<svg width="80.000000" height="80.000000" viewBox="0 0 80 80" fill="none" xmlns="http://www.w3.org/2000/svg" xmlns:xlink="http://www.w3.org/1999/xlink">
	<desc>
			Created with Pixso.
	</desc>
	<defs>
		<clipPath id="clip711_767">
			<rect id="Iconly / Stroke / Chat" width="40.000000" height="40.000000" transform="translate(20.000000 20.000000)" fill="white" fill-opacity="0"/>
		</clipPath>
		<clipPath id="clip711_768">
			<rect id="Iconly / Bold / Question" rx="14.000000" width="28.000000" height="28.000000" transform="translate(40.000000 12.000000)" fill="white" fill-opacity="0"/>
		</clipPath>
		<clipPath id="clip711_766">
			<rect id="icon" rx="40.000000" width="80.000000" height="80.000000" fill="white" fill-opacity="0"/>
		</clipPath>
	</defs>
	<rect id="icon" rx="40.000000" width="80.000000" height="80.000000" fill="#F6F6F9" fill-opacity="1.000000"/>
	<g clip-path="url(#clip711_766)">
		<rect id="Iconly / Stroke / Chat" width="40.000000" height="40.000000" transform="translate(20.000000 20.000000)" fill="#FFFFFF" fill-opacity="0"/>
		<g clip-path="url(#clip711_767)">
			<path id="Vector" d="M24.762 45.6621L24.1487 48.9326C24.0977 49.2075 24.1074 49.4907 24.1777 49.7612C24.248 50.0322 24.377 50.2842 24.5554 50.4995C24.7339 50.7153 24.9575 50.8887 25.2104 51.0083C25.4631 51.1279 25.7393 51.1904 26.019 51.1919C26.335 51.1909 26.6458 51.1123 26.9238 50.9619L30.5344 49.0229C31.0154 49.1763 31.502 49.2974 31.9905 49.4038C33.1121 52.1768 35.0693 54.5308 37.5906 56.1396C40.1116 57.749 43.0713 58.5327 46.0581 58.3823C47.5696 58.3203 49.0623 58.0249 50.4829 57.5059L53.8677 59.1538C54.1909 59.313 54.5527 59.3774 54.9111 59.3394C55.2693 59.3008 55.6096 59.1621 55.8921 58.9385C56.1746 58.7148 56.3879 58.4155 56.5071 58.0757C56.6265 57.7354 56.6467 57.3687 56.5659 57.0176L55.8926 54.0747C57.2595 52.7231 58.3298 51.1011 59.0352 49.313C59.7402 47.5244 60.0647 45.6089 59.9878 43.688C59.8562 40.7554 58.813 37.937 57.0032 35.626C55.1936 33.3149 52.7078 31.6265 49.8926 30.7954C48.9329 27.6665 46.9897 24.9307 44.3516 22.9937C41.7136 21.0566 38.5212 20.022 35.2485 20.043C31.2573 19.9971 27.4104 21.5356 24.552 24.3218C21.6934 27.1079 20.0564 30.9136 20 34.9048C19.9993 36.9312 20.4224 38.9346 21.2427 40.7876C22.0627 42.6401 23.2615 44.3008 24.762 45.6621ZM58.0886 43.7622C58.1533 45.4209 57.8716 47.0752 57.2615 48.6187C56.6514 50.1626 55.7261 51.5625 54.5449 52.729C54.3169 52.9551 54.1501 53.2354 54.0605 53.5439C53.9707 53.8525 53.9612 54.1787 54.0325 54.4917L54.6992 57.4438L51.325 55.8013C51.0962 55.688 50.8467 55.6221 50.5918 55.6079C50.3372 55.5938 50.082 55.6313 49.842 55.7183C46.9541 56.7749 43.7812 56.75 40.9099 55.6489C38.0388 54.5474 35.6633 52.4438 34.2229 49.7271C34.563 49.75 34.9048 49.7671 35.2458 49.7671C39.2363 49.813 43.0825 48.2754 45.9409 45.4902C48.7996 42.7051 50.437 38.9004 50.4944 34.9097C50.4897 34.2646 50.4421 33.6206 50.3516 32.9819C52.5464 33.8379 54.4456 35.312 55.8186 37.2261C57.1919 39.1401 57.9797 41.4116 58.0869 43.7651L58.0886 43.7622ZM35.2485 21.9478C38.7351 21.9014 42.0977 23.2393 44.5989 25.668C47.1003 28.0972 48.5366 31.4189 48.5925 34.9048C48.5366 38.3911 47.1003 41.7129 44.5989 44.1421C42.0977 46.5708 38.7351 47.9087 35.2485 47.8623C33.8442 47.8599 32.4485 47.6401 31.1116 47.2109C30.8687 47.1318 30.6123 47.1025 30.3579 47.1255C30.1035 47.1484 29.8562 47.2227 29.6313 47.3442L26.0181 49.2881L26.6323 46.0166C26.6914 45.6992 26.6685 45.3721 26.5657 45.0659C26.4629 44.7598 26.2834 44.4854 26.0447 44.2681C24.741 43.0815 23.6992 41.6357 22.9863 40.0234C22.2734 38.4111 21.905 36.668 21.9048 34.9048C21.9609 31.4189 23.3972 28.0972 25.8984 25.6685C28.3999 23.2393 31.7622 21.9014 35.2485 21.9478Z" fill="#252525" fill-opacity="1.000000" fill-rule="nonzero"/>
			<path id="Vector" d="M30.5 35C30.5 35.8286 29.8284 36.5 29 36.5C28.1716 36.5 27.5 35.8286 27.5 35C27.5 34.1714 28.1716 33.5 29 33.5C29.8284 33.5 30.5 34.1714 30.5 35Z" fill="#252525" fill-opacity="1.000000" fill-rule="evenodd"/>
			<path id="Vector" d="M37 35C37 35.8286 36.3284 36.5 35.5 36.5C34.6716 36.5 34 35.8286 34 35C34 34.1714 34.6716 33.5 35.5 33.5C36.3284 33.5 37 34.1714 37 35Z" fill="#252525" fill-opacity="1.000000" fill-rule="evenodd"/>
			<path id="Vector" d="M43 35C43 35.8286 42.3284 36.5 41.5 36.5C40.6716 36.5 40 35.8286 40 35C40 34.1714 40.6716 33.5 41.5 33.5C42.3284 33.5 43 34.1714 43 35Z" fill="#252525" fill-opacity="1.000000" fill-rule="evenodd"/>
		</g>
		<rect id="Iconly / Bold / Question" rx="14.000000" width="28.000000" height="28.000000" transform="translate(40.000000 12.000000)" fill="#F6F6F9" fill-opacity="1.000000"/>
		<g clip-path="url(#clip711_768)">
			<path id="Vector" d="M54 15C51.8245 15 49.6978 15.645 47.8887 16.854C46.0798 18.0625 44.6699 19.7803 43.8374 21.7905C43.0049 23.8003 42.7869 26.0122 43.2114 28.146C43.6357 30.2798 44.6833 32.2397 46.2219 33.7783C47.7603 35.3164 49.7202 36.3643 51.854 36.7886C53.9878 37.2129 56.1995 36.9951 58.2095 36.1626C60.2195 35.3301 61.9375 33.9204 63.1462 32.1113C64.355 30.3022 65 28.1758 65 26C65 23.0825 63.8411 20.2847 61.7781 18.2217C59.7153 16.1587 56.9175 15 54 15ZM53.8276 32.4165L53.769 32.4165C53.5671 32.4141 53.3679 32.3721 53.1824 32.2925C52.9971 32.2134 52.8291 32.0981 52.688 31.9536C52.4033 31.6621 52.2461 31.2695 52.251 30.8618C52.2559 30.4546 52.4224 30.0659 52.7139 29.7812C53.0056 29.4961 53.3982 29.3394 53.8057 29.3442L53.8569 29.3442C54.2639 29.3477 54.6528 29.5132 54.9377 29.8037C55.2229 30.0942 55.3806 30.4863 55.377 30.8931C55.373 31.3003 55.2075 31.689 54.917 31.9741C54.6265 32.2588 54.2346 32.417 53.8276 32.4131L53.8276 32.4165ZM57.5969 24.9331C57.2246 25.3574 56.8025 25.7354 56.3394 26.0586L55.6941 26.5024C55.4055 26.6953 55.1807 26.9697 55.0486 27.2905C54.97 27.5015 54.9363 27.7261 54.9497 27.9507L54.9497 28.0532L52.4929 28.0532L52.4929 27.8442C52.5222 26.9902 52.5444 26.4878 52.8999 26.0732C53.4543 25.5176 54.0693 25.0254 54.7334 24.6064C54.9033 24.4854 55.052 24.3364 55.1733 24.1665C55.3899 23.9106 55.5186 23.5918 55.54 23.2573C55.5417 22.8809 55.4236 22.5137 55.2026 22.2085C54.9863 21.9043 54.5793 21.7539 53.9854 21.7539C53.7483 21.7295 53.5093 21.769 53.293 21.8691C53.0769 21.9692 52.8916 22.126 52.7571 22.3223C52.5203 22.6855 52.3931 23.1094 52.3904 23.5435L52.3904 23.6499L49.8604 23.6499L49.8604 23.5396C49.9299 21.9668 50.4836 20.8667 51.5066 20.2065C52.2244 19.7734 53.052 19.5571 53.8899 19.5835C54.9822 19.5435 56.0586 19.853 56.9626 20.4668C57.374 20.7695 57.7031 21.1704 57.9202 21.6328C58.1372 22.0952 58.2354 22.6045 58.2056 23.1143C58.2043 23.7705 57.9907 24.4082 57.5969 24.9331Z" fill="#048159" fill-opacity="1.000000" fill-rule="nonzero"/>
		</g>
	</g>
</svg>
