<svg width="58.000000" height="58.000000" viewBox="0 0 58 58" fill="none" xmlns="http://www.w3.org/2000/svg" xmlns:xlink="http://www.w3.org/1999/xlink">
	<desc>
			Created with Pixso.
	</desc>
	<defs/>
	<g opacity="0.160000">
		<rect id="stroke" width="56.000000" height="16.000000" transform="translate(0.999756 1.000000)" fill="#FFFFFF" fill-opacity="0"/>
		<path id="stroke" d="M-0.01 17C-0.01 15.84 0.11 14.7 0.34 13.57C0.56 12.47 0.89 11.41 1.33 10.38C1.76 9.37 2.28 8.4 2.9 7.49C3.51 6.58 4.2 5.75 4.97 4.97C5.75 4.2 6.59 3.51 7.49 2.9C8.4 2.28 9.37 1.76 10.38 1.33C11.41 0.9 12.47 0.57 13.57 0.34C14.7 0.11 15.84 0 16.99 0L40.99 0C42.15 0 43.29 0.11 44.42 0.34C45.52 0.57 46.58 0.9 47.61 1.33C48.62 1.76 49.59 2.28 50.5 2.9C51.4 3.51 52.24 4.2 53.02 4.97C53.79 5.75 54.48 6.58 55.09 7.49C55.71 8.4 56.23 9.37 56.66 10.38C57.09 11.41 57.42 12.47 57.65 13.57C57.88 14.7 57.99 15.84 57.99 17L55.99 17C55.99 14.96 55.6 13.01 54.82 11.16C54.44 10.26 53.98 9.41 53.43 8.61C52.89 7.81 52.28 7.07 51.6 6.39C50.92 5.71 50.18 5.1 49.38 4.56C48.58 4.01 47.73 3.55 46.83 3.17C44.98 2.39 43.03 2 40.99 2L16.99 2C14.96 2 13.01 2.39 11.16 3.17C10.26 3.55 9.41 4.01 8.61 4.56C7.81 5.1 7.07 5.71 6.39 6.39C5.71 7.07 5.1 7.81 4.56 8.61C4.01 9.41 3.55 10.26 3.17 11.16C2.39 13.01 1.99 14.96 1.99 17L-0.01 17Z" fill="#ECECF3" fill-opacity="1.000000" fill-rule="evenodd"/>
	</g>
	<path id="Shape" d="M22.7056 31.1436L17.406 29.0693C16.8677 28.8574 16.863 28.0605 17.3999 27.8438L39.1497 19.0449C39.6108 18.8584 40.0867 19.2812 39.9861 19.7891L36.083 39.4785C35.991 39.9434 35.4712 40.1543 35.1045 39.874L29.7764 35.8174C29.4526 35.5713 29.0115 35.584 28.7019 35.8486L25.7478 38.375C25.4048 38.6689 24.8882 38.5049 24.7571 38.0615L22.7056 31.1436Z" clip-rule="evenodd" fill="#37AEE2" fill-opacity="1.000000" fill-rule="evenodd"/>
	<g opacity="0.240000">
		<path id="Shape" d="M24.42 30.03L34.78 23.34C34.96 23.22 35.16 23.49 35 23.64L26.45 31.98C26.15 32.27 25.95 32.66 25.9 33.09L25.61 35.35C25.57 35.65 25.16 35.68 25.08 35.39L23.96 31.26C23.84 30.79 24.02 30.29 24.42 30.03Z" fill="#202122" fill-opacity="1.000000" fill-rule="nonzero"/>
	</g>
	<g opacity="0.160000">
		<rect id="stroke" width="56.000000" height="16.000000" transform="matrix(1 0 0 -1 0.999756 57)" fill="#FFFFFF" fill-opacity="0"/>
		<path id="stroke" d="M-0.01 41C-0.01 42.15 0.11 43.29 0.34 44.42C0.56 45.52 0.89 46.58 1.33 47.61C1.76 48.62 2.28 49.59 2.9 50.5C3.51 51.41 4.2 52.24 4.97 53.02C5.75 53.79 6.59 54.48 7.49 55.09C8.4 55.71 9.37 56.23 10.38 56.66C11.41 57.09 12.47 57.42 13.57 57.65C14.7 57.88 15.84 58 16.99 58L40.99 58C42.15 58 43.29 57.88 44.42 57.65C45.52 57.42 46.58 57.09 47.61 56.66C48.62 56.23 49.59 55.71 50.5 55.09C51.4 54.48 52.24 53.79 53.02 53.02C53.79 52.24 54.48 51.41 55.09 50.5C55.71 49.59 56.23 48.62 56.66 47.61C57.09 46.58 57.42 45.52 57.65 44.42C57.88 43.29 57.99 42.15 57.99 41L55.99 41C55.99 43.03 55.6 44.98 54.82 46.83C54.44 47.73 53.98 48.58 53.43 49.38C52.89 50.18 52.28 50.92 51.6 51.6C50.92 52.28 50.18 52.89 49.38 53.43C48.58 53.98 47.73 54.44 46.83 54.82C44.98 55.6 43.03 56 40.99 56L16.99 56C14.96 56 13.01 55.6 11.16 54.82C10.26 54.44 9.41 53.98 8.61 53.43C7.81 52.89 7.07 52.28 6.39 51.6C5.71 50.92 5.1 50.18 4.56 49.38C4.01 48.58 3.55 47.73 3.17 46.83C2.39 44.98 1.99 43.03 1.99 41L-0.01 41Z" fill="#ECECF3" fill-opacity="1.000000" fill-rule="evenodd"/>
	</g>
</svg>
