<svg width="58.000000" height="58.000000" viewBox="0 0 58 58" fill="none" xmlns="http://www.w3.org/2000/svg" xmlns:xlink="http://www.w3.org/1999/xlink">
	<desc>
			Created with Pixso.
	</desc>
	<defs/>
	<g opacity="0.160000">
		<rect id="stroke" width="56.000000" height="16.000000" transform="translate(0.999756 1.000000)" fill="#FFFFFF" fill-opacity="0"/>
		<path id="stroke" d="M-0.01 17C-0.01 15.84 0.11 14.7 0.34 13.57C0.56 12.47 0.89 11.41 1.33 10.38C1.76 9.37 2.28 8.4 2.9 7.49C3.51 6.58 4.2 5.75 4.97 4.97C5.75 4.2 6.59 3.51 7.49 2.9C8.4 2.28 9.37 1.76 10.38 1.33C11.41 0.9 12.47 0.57 13.57 0.34C14.7 0.11 15.84 0 16.99 0L40.99 0C42.15 0 43.29 0.11 44.42 0.34C45.52 0.57 46.58 0.9 47.61 1.33C48.62 1.76 49.59 2.28 50.5 2.9C51.4 3.51 52.24 4.2 53.02 4.97C53.79 5.75 54.48 6.58 55.09 7.49C55.71 8.4 56.23 9.37 56.66 10.38C57.09 11.41 57.42 12.47 57.65 13.57C57.88 14.7 57.99 15.84 57.99 17L55.99 17C55.99 14.96 55.6 13.01 54.82 11.16C54.44 10.26 53.98 9.41 53.43 8.61C52.89 7.81 52.28 7.07 51.6 6.39C50.92 5.71 50.18 5.1 49.38 4.56C48.58 4.01 47.73 3.55 46.83 3.17C44.98 2.39 43.03 2 40.99 2L16.99 2C14.96 2 13.01 2.39 11.16 3.17C10.26 3.55 9.41 4.01 8.61 4.56C7.81 5.1 7.07 5.71 6.39 6.39C5.71 7.07 5.1 7.81 4.56 8.61C4.01 9.41 3.55 10.26 3.17 11.16C2.39 13.01 1.99 14.96 1.99 17L-0.01 17Z" fill="#ECECF3" fill-opacity="1.000000" fill-rule="evenodd"/>
	</g>
	<path id="Page-1-path" d="M30.04 39.81L30.04 39.81C28.2 39.81 26.4 39.35 24.8 38.48L18.99 40L20.55 34.35C19.59 32.69 19.09 30.82 19.09 28.9C19.09 22.89 24 18 30.04 18C32.97 18 35.72 19.13 37.79 21.19C39.86 23.25 41 25.99 40.99 28.9C40.99 34.91 36.08 39.8 30.04 39.81Z" fill="#25D366" fill-opacity="1.000000" fill-rule="nonzero"/>
	<path id="Page-1-path" d="M35.56 31.5C35.49 31.38 35.31 31.31 35.04 31.18C34.76 31.04 33.42 30.38 33.16 30.29C32.91 30.2 32.73 30.16 32.55 30.43C32.37 30.7 31.84 31.31 31.68 31.5C31.52 31.68 31.36 31.7 31.09 31.56C30.82 31.43 29.93 31.14 28.89 30.21C28.07 29.49 27.53 28.6 27.37 28.33C27.21 28.05 27.35 27.91 27.49 27.77C27.61 27.65 27.76 27.45 27.9 27.29C28.03 27.13 28.08 27.02 28.17 26.84C28.26 26.66 28.22 26.5 28.15 26.36C28.08 26.22 27.53 24.88 27.3 24.34C27.08 23.81 26.86 23.88 26.69 23.87C26.53 23.86 26.35 23.86 26.16 23.86C25.98 23.86 25.68 23.93 25.43 24.2C25.18 24.47 24.48 25.13 24.48 26.47C24.48 27.82 25.46 29.11 25.59 29.29C25.73 29.47 27.52 32.23 30.27 33.41C30.92 33.69 31.43 33.85 31.83 33.98C32.48 34.19 33.08 34.16 33.55 34.09C34.08 34.01 35.17 33.43 35.4 32.79C35.63 32.16 35.63 31.61 35.56 31.5Z" fill="#FFFFFF" fill-opacity="1.000000" fill-rule="nonzero"/>
	<g opacity="0.160000">
		<rect id="stroke" width="56.000000" height="16.000000" transform="matrix(1 0 0 -1 0.999756 57)" fill="#FFFFFF" fill-opacity="0"/>
		<path id="stroke" d="M-0.01 41C-0.01 42.15 0.11 43.29 0.34 44.42C0.56 45.52 0.89 46.58 1.33 47.61C1.76 48.62 2.28 49.59 2.9 50.5C3.51 51.41 4.2 52.24 4.97 53.02C5.75 53.79 6.59 54.48 7.49 55.09C8.4 55.71 9.37 56.23 10.38 56.66C11.41 57.09 12.47 57.42 13.57 57.65C14.7 57.88 15.84 58 16.99 58L40.99 58C42.15 58 43.29 57.88 44.42 57.65C45.52 57.42 46.58 57.09 47.61 56.66C48.62 56.23 49.59 55.71 50.5 55.09C51.4 54.48 52.24 53.79 53.02 53.02C53.79 52.24 54.48 51.41 55.09 50.5C55.71 49.59 56.23 48.62 56.66 47.61C57.09 46.58 57.42 45.52 57.65 44.42C57.88 43.29 57.99 42.15 57.99 41L55.99 41C55.99 43.03 55.6 44.98 54.82 46.83C54.44 47.73 53.98 48.58 53.43 49.38C52.89 50.18 52.28 50.92 51.6 51.6C50.92 52.28 50.18 52.89 49.38 53.43C48.58 53.98 47.73 54.44 46.83 54.82C44.98 55.6 43.03 56 40.99 56L16.99 56C14.96 56 13.01 55.6 11.16 54.82C10.26 54.44 9.41 53.98 8.61 53.43C7.81 52.89 7.07 52.28 6.39 51.6C5.71 50.92 5.1 50.18 4.56 49.38C4.01 48.58 3.55 47.73 3.17 46.83C2.39 44.98 1.99 43.03 1.99 41L-0.01 41Z" fill="#ECECF3" fill-opacity="1.000000" fill-rule="evenodd"/>
	</g>
</svg>
