<svg width="866.000000" height="25.000000" viewBox="0 0 866 25" fill="none" xmlns="http://www.w3.org/2000/svg" xmlns:xlink="http://www.w3.org/1999/xlink">
	<desc>
			Created with Pixso.
	</desc>
	<defs/>
	<rect id="stroke" width="864.000000" height="24.000000" transform="matrix(1 0 0 -1 1 24)" fill="#FFFFFF" fill-opacity="0"/>
	<path id="stroke" d="M0 0L0 4Q0 12.6982 6.15088 18.8491Q12.3015 25 21 25L845 25Q853.699 25 859.849 18.8491Q866 12.6982 866 4L866 0L864 0L864 4Q864 11.8701 858.435 17.4351Q852.87 23 845 23L21 23Q13.1299 23 7.56494 17.4351Q2 11.8701 2 4L2 0L0 0Z" fill="#ECECF3" fill-opacity="1.000000" fill-rule="evenodd"/>
</svg>
