<svg width="80.000000" height="80.000000" viewBox="0 0 80 80" fill="none" xmlns="http://www.w3.org/2000/svg" xmlns:xlink="http://www.w3.org/1999/xlink">
	<desc>
			Created with Pixso.
	</desc>
	<defs>
		<clipPath id="clip711_992">
			<rect id="Iconly / Stroke / Profit" width="40.000000" height="40.000000" transform="translate(20.000000 20.000000)" fill="white" fill-opacity="0"/>
		</clipPath>
		<clipPath id="clip711_993">
			<rect id="Iconly / Bold / Ruble" rx="14.000000" width="28.000000" height="28.000000" transform="translate(40.000000 12.000000)" fill="white" fill-opacity="0"/>
		</clipPath>
		<clipPath id="clip711_991">
			<rect id="icon" rx="40.000000" width="80.000000" height="80.000000" fill="white" fill-opacity="0"/>
		</clipPath>
	</defs>
	<rect id="icon" rx="40.000000" width="80.000000" height="80.000000" fill="#F6F6F9" fill-opacity="1.000000"/>
	<g clip-path="url(#clip711_991)">
		<rect id="Iconly / Stroke / Profit" width="40.000000" height="40.000000" transform="translate(20.000000 20.000000)" fill="#FFFFFF" fill-opacity="0"/>
		<g clip-path="url(#clip711_992)">
			<path id="Vector" d="M58.1802 40.415L44.3643 40.415C43.7256 39.8472 43.0229 39.3672 42.2354 38.9956C41.0645 36.7686 39.5317 34.9785 37.7861 33.7554C38.0415 32.3145 37.7437 30.8735 36.9771 29.8911L40.1489 24.978C40.3193 24.7163 40.3193 24.3667 40.1489 24.105C40 23.8428 39.7231 23.6685 39.3828 23.7119C39.0635 23.7339 38.7017 23.7773 38.2544 23.7773C36.8921 23.7773 36.2319 23.5811 35.5293 23.3623C34.7417 23.1226 33.9331 22.8604 32.3364 22.8604C30.7397 22.8604 29.9307 23.1226 29.1646 23.3623C28.4619 23.5811 27.8018 23.7773 26.4609 23.7773C26.0352 23.7773 25.6519 23.7554 25.3325 23.7119C25.0342 23.6899 24.7363 23.8428 24.5659 24.105C24.417 24.3667 24.417 24.7163 24.5659 24.978L27.6953 29.8252C26.8867 30.8081 26.6523 32.4019 26.8867 33.7554C23.0547 36.4849 20.5 41.8125 20.5 46.5942C20.5 55.939 26.8013 57.1401 32.3149 57.1401C33.7627 57.1401 34.9971 57.0527 36.1045 56.856C36.7856 57.0308 37.5093 57.1401 38.2329 57.1401C39.8086 57.1401 41.2773 56.7031 42.5762 55.9829C42.7251 56.6377 43.2783 57.1401 43.9385 57.1401L58.0737 57.1401C58.8613 57.1401 59.5 56.4849 59.5 55.6772L59.5 53.21C59.5 52.9697 59.436 52.7515 59.3296 52.5547C59.436 52.3584 59.5 52.1401 59.5 51.8999L59.5 49.4326C59.5 49.1924 59.436 48.9741 59.3296 48.7773C59.436 48.5811 59.5 48.3628 59.5 48.1226L59.5 45.6553C59.5 45.415 59.436 45.1968 59.3296 45C59.436 44.8037 59.5 44.5854 59.5 44.3452L59.5 41.8779C59.5 40.8984 58.8755 40.415 58.1802 40.415ZM58.0098 47.9697L47.5786 47.9697C47.5786 47.8604 47.6211 47.7515 47.6211 47.6201C47.6211 47.0088 47.5576 46.4194 47.4512 45.8301L58.0098 45.8301L58.0098 47.9697ZM47.4082 49.6069L58.0098 49.6069L58.0098 51.7471L46.6631 51.7471C46.9824 51.0698 47.2593 50.3716 47.4082 49.6069ZM58.0098 44.1924L46.9824 44.1924C46.6846 43.4282 46.3013 42.7075 45.8545 42.0527L58.0312 42.0527L58.0312 44.1924L58.0098 44.1924ZM29.6538 24.9126C30.3564 24.6943 31.0166 24.498 32.3574 24.498C33.6987 24.498 34.3799 24.6943 35.0825 24.9126C35.8062 25.1309 36.5513 25.3711 37.9351 25.415L35.6787 28.9082C33.5498 27.8604 31.3784 27.7729 29.0581 28.9082L26.8013 25.415C28.1636 25.3931 28.9302 25.1528 29.6328 24.9126L29.6538 24.9126ZM29.228 30.6333C31.3145 29.4106 33.4434 29.3887 35.5508 30.6553C36.0615 31.0698 36.3174 31.9653 36.2959 32.8604C35.04 32.249 33.7202 31.8779 32.3789 31.8779C31.0376 31.8779 29.6963 32.2271 28.4619 32.8384C28.4619 31.856 28.7598 30.939 29.207 30.6333L29.228 30.6333ZM32.3789 55.5024C27.0781 55.5024 22.1606 54.4326 22.1606 46.5942C22.1606 40.6768 26.7163 33.5371 32.3789 33.5371C35.125 33.5371 37.8926 35.3057 39.8936 38.2314C39.3828 38.144 38.8506 38.0786 38.3184 38.0786C33.188 38.0786 29.0151 42.3584 29.0151 47.6201C29.0151 50.8955 30.6333 53.7773 33.0815 55.5024C32.8472 55.5024 32.6343 55.5244 32.3789 55.5244L32.3789 55.5024ZM30.6118 47.5986C30.6118 43.2314 34.0605 39.6943 38.3184 39.6943C42.5762 39.6943 46.0244 43.2314 46.0244 47.5986C46.0244 51.9653 42.5762 55.5024 38.3184 55.5024C34.0605 55.5024 30.6118 51.9653 30.6118 47.5986ZM58.0098 55.5024L44.1938 55.5024L44.1938 54.9346C44.7476 54.4761 45.2583 53.9521 45.6841 53.3628L58.0098 53.3628L58.0098 55.5024Z" fill="#252525" fill-opacity="1.000000" fill-rule="nonzero"/>
			<path id="Vector" d="M46.5581 30.8296L47.9844 30.8296L47.9844 36.0479C47.9844 36.9434 48.7085 37.6855 49.5811 37.6855L52.604 37.6855C53.4771 37.6855 54.2007 36.9434 54.2007 36.0479L54.2007 30.8296L55.627 30.8296C56.0742 30.8296 56.4785 30.5679 56.6704 30.1528C56.8618 29.7378 56.7979 29.2358 56.5 28.8867L51.9653 23.4937C51.7524 23.2314 51.4331 23.0786 51.0928 23.0786C50.752 23.0786 50.4326 23.2314 50.2197 23.4937L45.6855 28.8867C45.3872 29.2358 45.3237 29.7163 45.5151 30.1528C45.7065 30.5679 46.1113 30.8516 46.5581 30.8516L46.5581 30.8296ZM51.0928 24.9565L54.6479 29.1924L53.9878 29.1924C53.2217 29.1924 52.604 29.8252 52.604 30.6113L52.604 36.0698L49.5811 36.0698L49.5811 30.6333C49.5811 29.8472 48.9639 29.2139 48.1973 29.2139L47.5376 29.2139L51.1138 24.978L51.0928 24.9565Z" fill="#252525" fill-opacity="1.000000" fill-rule="nonzero"/>
		</g>
		<rect id="Iconly / Bold / Ruble" rx="14.000000" width="28.000000" height="28.000000" transform="translate(40.000000 12.000000)" fill="#F6F6F9" fill-opacity="1.000000"/>
		<g clip-path="url(#clip711_993)">
			<path id="Subtract" d="M54 15C47.9248 15 43 19.9248 43 26C43 32.0752 47.9248 37 54 37C60.0752 37 65 32.0752 65 26C65 19.9248 60.0752 15 54 15ZM51.2642 30.144L51.2642 32L53.0718 32L53.0718 30.144L55.3921 30.144L55.3921 29L53.0718 29L53.0718 27.624L55.3921 27.624Q56.4575 27.624 57.1948 27.1323Q57.2217 27.1143 57.248 27.0962C58.0933 26.5146 58.832 25.3882 58.832 24.3359Q58.832 24.1084 58.8042 23.8843Q58.7476 23.4307 58.5762 22.9917Q58.4673 22.6943 58.312 22.4229Q58.1255 22.0962 57.8721 21.8081Q57.7856 21.7065 57.6919 21.6123Q57.2979 21.2183 56.7681 20.96C56.3413 20.7466 55.856 20.6396 55.312 20.6396L51.2642 20.6396L51.2642 26.04L50 26.04L50 27.624L51.2642 27.624L51.2642 29L50 29L50 30.144L51.2642 30.144ZM53.0718 26.04L55.2959 26.04C55.7119 26.04 56.0425 25.9492 56.2881 25.7681C56.6963 25.4614 57.0078 24.8496 57.0078 24.3359C57.0078 23.9199 56.9385 23.5518 56.7998 23.2319C56.6719 22.9121 56.4692 22.6665 56.1919 22.4961C55.9253 22.3145 55.5894 22.2241 55.1841 22.2241L53.0718 22.2241L53.0718 26.04Z" clip-rule="evenodd" fill="#048159" fill-opacity="1.000000" fill-rule="evenodd"/>
		</g>
	</g>
</svg>
