<svg width="80" height="80" viewBox="0 0 80 80" fill="none" xmlns="http://www.w3.org/2000/svg">
<rect width="80" height="80" rx="40" fill="#3F4451"/>
<path d="M28.5455 27.9999C28.9905 28.0068 29.3536 28.4482 29.3637 28.8157V38.312L33.4546 40.5044V36.1578C33.4464 35.5988 34.1437 35.1652 34.6435 35.4185L44.9091 40.5427V36.1578C44.9009 35.5988 45.5982 35.1652 46.098 35.4185L57.5525 41.129C57.8237 41.2664 58.0044 41.5651 58 41.8683V58.1841C57.9999 58.6113 57.6102 58.9999 57.1818 58.9999H22.8182C22.3898 58.9999 22.0001 58.6113 22.0001 58.1841V28.8157C22.0001 28.3885 22.3898 27.9999 22.8182 27.9999H28.5455ZM27.7273 29.6315H23.6364V57.3683H56.3636V42.3782L46.5455 37.4835V41.8683C46.5455 42.4231 45.8525 42.8462 45.3566 42.5949L35.0909 37.4835V41.8683C35.086 42.4258 34.3832 42.8434 33.8892 42.5821L28.162 39.5229C27.9031 39.386 27.7298 39.1013 27.7273 38.8091V29.6315ZM52.6818 46.3552C53.1102 46.3552 53.4999 46.7438 53.5 47.171V52.0657C53.4999 52.4928 53.1102 52.8814 52.6818 52.8815H46.9545C46.5261 52.8814 46.1364 52.4928 46.1364 52.0657V47.171C46.1364 46.7438 46.5261 46.3552 46.9545 46.3552H52.6818ZM42.8636 46.3552C43.292 46.3552 43.6818 46.7438 43.6818 47.171V52.0657C43.6818 52.4928 43.292 52.8814 42.8636 52.8815H37.1364C36.708 52.8814 36.3182 52.4928 36.3182 52.0657V47.171C36.3182 46.7438 36.708 46.3552 37.1364 46.3552H42.8636ZM33.0455 46.3552C33.4739 46.3552 33.8636 46.7438 33.8637 47.171V52.0657C33.8636 52.4928 33.4739 52.8814 33.0455 52.8815H27.3182C26.8898 52.8814 26.5001 52.4928 26.5001 52.0657V47.171C26.5001 46.7438 26.8898 46.3552 27.3182 46.3552H33.0455ZM51.8636 47.9867H47.7727V51.2499H51.8636V47.9867ZM42.0455 47.9867H37.9546V51.2499H42.0455V47.9867ZM32.2273 47.9867H28.1364V51.2499H32.2273V47.9867Z" fill="white" stroke="white" stroke-width="0.2"/>
<path d="M38.0001 20.9999C35.4233 27.4888 29.2291 22.0944 26.0001 25.9999C26.752 19.2822 31.7772 24.6954 38.0001 20.9999Z" fill="white" stroke="white" stroke-width="0.2"/>
<rect x="40" y="12" width="28" height="28" rx="14" fill="#3F4451"/>
<path fill-rule="evenodd" clip-rule="evenodd" d="M63.4505 23.624H64.0223C64.2815 23.624 64.5302 23.7269 64.7135 23.9104C64.897 24.0937 65 24.3425 65 24.6018V27.3982C65 27.6576 64.897 27.9063 64.7135 28.0896C64.5303 28.2731 64.2815 28.3761 64.0223 28.3761H63.4505C63.1702 28.3947 62.9007 28.4912 62.6722 28.6545C62.4437 28.8179 62.2653 29.0419 62.1572 29.3011C62.1391 29.3456 62.1209 29.3897 62.1021 29.4339C61.9952 29.6936 61.963 29.978 62.009 30.2551C62.0551 30.5321 62.1773 30.791 62.3623 31.0022L62.7668 31.4067C62.9503 31.59 63.0533 31.8388 63.0533 32.0981C63.0533 32.3573 62.9503 32.6061 62.7668 32.7894L60.7894 34.7668C60.6061 34.9503 60.3573 35.0533 60.0981 35.0533C59.8388 35.0533 59.59 34.9503 59.4067 34.7668L59.0022 34.3623C58.7908 34.1774 58.5321 34.0551 58.2551 34.0091C57.978 33.963 57.6936 33.9954 57.4339 34.1021C57.3897 34.1209 57.3456 34.1391 57.3011 34.1572C57.0417 34.2655 56.8179 34.4439 56.6545 34.6722C56.491 34.9006 56.3947 35.1702 56.3761 35.4505V36.0223C56.3761 36.2815 56.2731 36.5302 56.0896 36.7135C55.9063 36.897 55.6575 37 55.3982 37H52.6018C52.3425 37 52.0937 36.897 51.9104 36.7135C51.7269 36.5303 51.6239 36.2815 51.6239 36.0223V35.4505C51.6053 35.1702 51.5088 34.9007 51.3455 34.6722C51.182 34.4437 50.9581 34.2653 50.6989 34.1572C50.6544 34.1391 50.6101 34.1209 50.5661 34.1021C50.3064 33.9952 50.022 33.963 49.7449 34.0091C49.4679 34.0551 49.209 34.1774 48.9978 34.3623L48.5933 34.7668C48.41 34.9503 48.1612 35.0533 47.9019 35.0533C47.6427 35.0533 47.3939 34.9503 47.2106 34.7668L45.2332 32.7894C45.0497 32.6061 44.9467 32.3573 44.9467 32.0981C44.9467 31.8388 45.0497 31.59 45.2332 31.4067L45.6377 31.0022C45.8227 30.7908 45.9449 30.5322 45.991 30.2551C46.037 29.978 46.0046 29.6936 45.8979 29.4339C45.8791 29.3897 45.8609 29.3454 45.8428 29.3009C45.7345 29.0417 45.5561 28.8178 45.3277 28.6545C45.0994 28.491 44.8298 28.3946 44.5495 28.376H43.9777C43.7185 28.376 43.4698 28.2731 43.2865 28.0896C43.103 27.9063 43 27.6575 43 27.3982V24.6018C43 24.3424 43.103 24.0937 43.2865 23.9104C43.4697 23.7269 43.7185 23.6239 43.9777 23.6239H44.5495C44.8298 23.6053 45.0993 23.5088 45.3278 23.3455C45.5563 23.182 45.7347 22.9581 45.8428 22.6989C45.8609 22.6544 45.8791 22.6103 45.8979 22.5661C46.0048 22.3064 46.037 22.022 45.991 21.7449C45.9449 21.4679 45.8227 21.209 45.6377 20.9978L45.2332 20.5933C45.0497 20.41 44.9467 20.1612 44.9467 19.9019C44.9467 19.6427 45.0497 19.3939 45.2332 19.2106L47.2106 17.2332C47.3939 17.0497 47.6427 16.9467 47.9019 16.9467C48.1612 16.9467 48.41 17.0497 48.5933 17.2332L48.9978 17.6377C49.2092 17.8227 49.4679 17.9449 49.7449 17.9909C50.022 18.037 50.3064 18.0046 50.5661 17.8979C50.6103 17.8791 50.6544 17.8609 50.6989 17.8428C50.9583 17.7345 51.1821 17.5561 51.3455 17.3278C51.509 17.0994 51.6053 16.8298 51.6239 16.5495V15.9777C51.6239 15.7185 51.7269 15.4698 51.9104 15.2865C52.0937 15.103 52.3425 15 52.6018 15H55.3982C55.6575 15 55.9063 15.103 56.0896 15.2865C56.2731 15.4697 56.3761 15.7185 56.3761 15.9777V16.5495C56.3947 16.8298 56.4912 17.0993 56.6545 17.3278C56.818 17.5563 57.0419 17.7347 57.3011 17.8428C57.3456 17.8609 57.3899 17.8791 57.4339 17.8979C57.6936 18.0046 57.978 18.037 58.2551 17.9909C58.5321 17.9449 58.791 17.8227 59.0022 17.6377L59.4067 17.2332C59.59 17.0497 59.8388 16.9467 60.0981 16.9467C60.3573 16.9467 60.6061 17.0497 60.7895 17.2332L62.7668 19.2106C62.9503 19.3939 63.0533 19.6427 63.0533 19.9019C63.0533 20.1612 62.9503 20.41 62.7668 20.5933L62.3623 20.9978C62.1773 21.2092 62.0551 21.4678 62.0091 21.7449C61.963 22.022 61.9954 22.3064 62.1021 22.5661C62.1094 22.5832 62.1166 22.6004 62.1237 22.6176C62.135 22.6447 62.1461 22.6718 62.1572 22.6991C62.2655 22.9583 62.4439 23.1822 62.6722 23.3455C62.9006 23.509 63.1702 23.6054 63.4505 23.624ZM53.952 28.8341C55.5437 28.8341 56.8341 27.5437 56.8341 25.952C56.8341 24.3602 55.5437 23.0699 53.952 23.0699C52.3602 23.0699 51.0699 24.3602 51.0699 25.952C51.0699 27.5437 52.3602 28.8341 53.952 28.8341Z" fill="#3BC069"/>
</svg>
