<svg width="80.000000" height="80.000000" viewBox="0 0 80 80" fill="none" xmlns="http://www.w3.org/2000/svg" xmlns:xlink="http://www.w3.org/1999/xlink">
	<desc>
			Created with Pixso.
	</desc>
	<defs>
		<clipPath id="clip5_8776">
			<rect id="Iconly / Stroke / Reinforced-concrete" width="40.000000" height="40.000000" transform="translate(20.000000 20.000000)" fill="white" fill-opacity="0"/>
		</clipPath>
		<clipPath id="clip5_8780">
			<rect id="Iconly / Bold / Sand" rx="14.000000" width="28.000000" height="28.000000" transform="translate(40.000000 12.000000)" fill="white" fill-opacity="0"/>
		</clipPath>
		<clipPath id="clip5_8775">
			<rect id="icon" rx="40.000000" width="80.000000" height="80.000000" fill="white" fill-opacity="0"/>
		</clipPath>
	</defs>
	<rect id="icon" rx="40.000000" width="80.000000" height="80.000000" fill="#3F4451" fill-opacity="1.000000"/>
	<g clip-path="url(#clip5_8775)">
		<rect id="Iconly / Stroke / Reinforced-concrete" width="40.000000" height="40.000000" transform="translate(20.000000 20.000000)" fill="#FFFFFF" fill-opacity="0"/>
		<g clip-path="url(#clip5_8776)">
			<path id="Vector" d="M57.7456 44.7269C57.5911 44.3602 57.3914 44.0171 57.1101 43.7319L53.1875 39.8093C52.9024 39.5281 52.5592 39.3279 52.1925 39.1738C51.8243 39.024 51.4398 38.9224 51.0396 38.9199L50.8395 38.9199C50.4419 38.9199 50.1195 39.2423 50.1195 39.6399C50.1195 40.0376 50.4419 40.3599 50.8395 40.3599L51.0396 40.3599C51.1667 40.3571 51.4153 40.4089 51.6414 40.5044C51.869 40.5961 52.0811 40.7357 52.1694 40.8274L55.6 44.2581L24.399 44.2581L27.8296 40.8274C27.9179 40.7357 28.1296 40.5961 28.3576 40.5044C28.5837 40.4084 28.8318 40.3571 28.9595 40.3599L29.1595 40.3599C29.5572 40.3599 29.8795 40.0376 29.8795 39.6399C29.8795 39.2423 29.5572 38.9199 29.1595 38.9199L28.9595 38.9199C28.5587 38.9224 28.1747 39.024 27.8066 39.1738C27.4398 39.3279 27.0966 39.5281 26.812 39.8093L22.8895 43.7319C22.6082 44.0171 22.408 44.3602 22.2539 44.7269C22.1037 45.0951 22.0029 45.4791 22 45.8799L22 54.9999C22.0029 55.9292 22.7507 56.677 23.68 56.6799L56.32 56.6799C57.2488 56.677 57.9971 55.9292 58 54.9999L58 45.8799C57.9966 45.4791 57.8954 45.0951 57.7456 44.7269ZM56.5595 54.9999C56.5595 55.0652 56.5341 55.1218 56.4885 55.1688C56.4415 55.2145 56.3848 55.2399 56.3195 55.2399L23.6795 55.2399C23.6138 55.2399 23.5576 55.2145 23.5106 55.1688C23.465 55.1218 23.4395 55.0652 23.4395 54.9999L23.4395 45.8799C23.4385 45.8339 23.4472 45.7695 23.4597 45.6985L56.5394 45.6985C56.5518 45.769 56.5605 45.8339 56.5595 45.8799L56.5595 54.9999Z" fill="#FFFFFF" fill-opacity="1.000000" fill-rule="evenodd"/>
			<path id="Vector" d="M57.1101 43.7319L53.1875 39.8093C52.9024 39.5281 52.5592 39.3279 52.1925 39.1738C51.8243 39.024 51.4398 38.9224 51.0396 38.9199L50.8395 38.9199C50.4419 38.9199 50.1195 39.2423 50.1195 39.6399C50.1195 40.0376 50.4419 40.3599 50.8395 40.3599L51.0396 40.3599C51.1667 40.3571 51.4153 40.4089 51.6414 40.5044C51.869 40.5961 52.0811 40.7357 52.1694 40.8274L55.6 44.2581L24.399 44.2581L27.8296 40.8274C27.9179 40.7357 28.1296 40.5961 28.3576 40.5044C28.5837 40.4084 28.8318 40.3571 28.9595 40.3599L29.1595 40.3599C29.5572 40.3599 29.8795 40.0376 29.8795 39.6399C29.8795 39.2423 29.5572 38.9199 29.1595 38.9199L28.9595 38.9199C28.5587 38.9224 28.1747 39.024 27.8066 39.1738C27.4398 39.3279 27.0966 39.5281 26.812 39.8093L22.8895 43.7319C22.6082 44.0171 22.408 44.3602 22.2539 44.7269C22.1037 45.0951 22.0029 45.4791 22 45.8799L22 54.9999C22.0029 55.9292 22.7507 56.677 23.68 56.6799L56.32 56.6799C57.2488 56.677 57.9971 55.9292 58 54.9999L58 45.8799C57.9966 45.4791 57.8954 45.0951 57.7456 44.7269C57.5911 44.3602 57.3914 44.0171 57.1101 43.7319ZM56.4885 55.1688C56.4415 55.2145 56.3848 55.2399 56.3195 55.2399L23.6795 55.2399C23.6138 55.2399 23.5576 55.2145 23.5106 55.1688C23.465 55.1218 23.4395 55.0652 23.4395 54.9999L23.4395 45.8799C23.4385 45.8339 23.4472 45.7695 23.4597 45.6985L56.5394 45.6985C56.5518 45.769 56.5605 45.8339 56.5595 45.8799L56.5595 54.9999C56.5595 55.0652 56.5341 55.1218 56.4885 55.1688Z" stroke="#FFFFFF" stroke-opacity="1.000000" stroke-width="0.300000"/>
			<path id="Vector" d="M28.4792 34.5601C28.0818 34.5601 27.7593 34.8821 27.7593 35.28C27.7593 35.6775 28.0818 36 28.4792 36L32.0793 36L32.0793 41.5604C32.0793 41.9579 32.4019 42.2805 32.7993 42.2805C33.1967 42.2805 33.5193 41.9579 33.5193 41.5604L33.5193 36L39.2793 36L39.2793 41.5604C39.2793 41.9579 39.6018 42.2805 39.9993 42.2805C40.3967 42.2805 40.7193 41.9579 40.7193 41.5604L40.7193 36L46.4792 36L46.4792 41.5604C46.4792 41.9579 46.8018 42.2805 47.1993 42.2805C47.5967 42.2805 47.9193 41.9579 47.9193 41.5604L47.9193 36L51.5193 36C51.9167 36 52.2393 35.6775 52.2393 35.28C52.2393 34.8821 51.9167 34.5601 51.5193 34.5601L47.9193 34.5601L47.9193 28.76L51.5193 28.76C51.9167 28.76 52.2393 28.4375 52.2393 28.04C52.2393 27.6421 51.9167 27.3199 51.5193 27.3199L47.9193 27.3199L47.9193 22.72C47.9193 22.322 47.5967 22 47.1993 22C46.8018 22 46.4792 22.322 46.4792 22.72L46.4792 27.3199L40.7193 27.3199L40.7193 22.72C40.7193 22.322 40.3967 22 39.9993 22C39.6018 22 39.2793 22.322 39.2793 22.72L39.2793 27.3199L33.5193 27.3199L33.5193 22.72C33.5193 22.322 33.1967 22 32.7993 22C32.4019 22 32.0793 22.322 32.0793 22.72L32.0793 27.3199L28.4792 27.3199C28.0818 27.3199 27.7593 27.6421 27.7593 28.04C27.7593 28.4375 28.0818 28.76 28.4792 28.76L32.0793 28.76L32.0793 34.5601L28.4792 34.5601ZM46.4792 28.76L46.4792 34.5601L40.7193 34.5601L40.7193 28.76L46.4792 28.76ZM33.5193 28.76L39.2793 28.76L39.2793 34.5601L33.5193 34.5601L33.5193 28.76Z" fill="#FFFFFF" fill-opacity="1.000000" fill-rule="evenodd"/>
			<path id="Vector" d="M27.7593 35.28C27.7593 35.6775 28.0818 36 28.4792 36L32.0793 36L32.0793 41.5604C32.0793 41.9579 32.4019 42.2805 32.7993 42.2805C33.1967 42.2805 33.5193 41.9579 33.5193 41.5604L33.5193 36L39.2793 36L39.2793 41.5604C39.2793 41.9579 39.6018 42.2805 39.9993 42.2805C40.3967 42.2805 40.7193 41.9579 40.7193 41.5604L40.7193 36L46.4792 36L46.4792 41.5604C46.4792 41.9579 46.8018 42.2805 47.1993 42.2805C47.5967 42.2805 47.9193 41.9579 47.9193 41.5604L47.9193 36L51.5193 36C51.9167 36 52.2393 35.6775 52.2393 35.28C52.2393 34.8821 51.9167 34.5601 51.5193 34.5601L47.9193 34.5601L47.9193 28.76L51.5193 28.76C51.9167 28.76 52.2393 28.4375 52.2393 28.04C52.2393 27.6421 51.9167 27.3199 51.5193 27.3199L47.9193 27.3199L47.9193 22.72C47.9193 22.322 47.5967 22 47.1993 22C46.8018 22 46.4792 22.322 46.4792 22.72L46.4792 27.3199L40.7193 27.3199L40.7193 22.72C40.7193 22.322 40.3967 22 39.9993 22C39.6018 22 39.2793 22.322 39.2793 22.72L39.2793 27.3199L33.5193 27.3199L33.5193 22.72C33.5193 22.322 33.1967 22 32.7993 22C32.4019 22 32.0793 22.322 32.0793 22.72L32.0793 27.3199L28.4792 27.3199C28.0818 27.3199 27.7593 27.6421 27.7593 28.04C27.7593 28.4375 28.0818 28.76 28.4792 28.76L32.0793 28.76L32.0793 34.5601L28.4792 34.5601C28.0818 34.5601 27.7593 34.8821 27.7593 35.28ZM46.4792 34.5601L40.7193 34.5601L40.7193 28.76L46.4792 28.76L46.4792 34.5601ZM39.2793 28.76L39.2793 34.5601L33.5193 34.5601L33.5193 28.76L39.2793 28.76Z" stroke="#FFFFFF" stroke-opacity="1.000000" stroke-width="0.300000"/>
		</g>
		<rect id="Iconly / Bold / Sand" rx="14.000000" width="28.000000" height="28.000000" transform="translate(40.000000 12.000000)" fill="#3F4451" fill-opacity="1.000000"/>
		<g clip-path="url(#clip5_8780)">
			<path id="Sand" d="M52.8436 16.0043C53.5574 14.6653 55.4426 14.6653 56.1564 16.0043L64.7686 32.1603C65.4512 33.4409 64.5419 35 63.1122 35L45.8878 35C44.4581 35 43.5488 33.4409 44.2314 32.1602L52.8436 16.0043ZM54.9552 17.8571C54.4509 17.8571 54.0422 18.2834 54.0422 18.8094C54.0422 19.3354 54.4509 19.7618 54.9552 19.7618C55.4595 19.7618 55.8682 19.3354 55.8682 18.8094C55.8682 18.2834 55.4595 17.8571 54.9552 17.8571ZM52.674 21.6667C52.4218 21.6667 52.2174 21.88 52.2174 22.1429C52.2174 22.406 52.4218 22.6191 52.674 22.6191C52.9261 22.6191 53.1305 22.406 53.1305 22.1429C53.1305 21.88 52.9261 21.6667 52.674 21.6667ZM56.5529 22.6191C56.1747 22.6191 55.868 22.939 55.868 23.3334C55.868 23.7279 56.1747 24.0477 56.5529 24.0477C56.931 24.0477 57.2376 23.7279 57.2376 23.3334C57.2376 22.939 56.931 22.6191 56.5529 22.6191ZM53.131 25.4762C52.6267 25.4762 52.218 25.9026 52.218 26.4286C52.218 26.9546 52.6267 27.381 53.131 27.381C53.6353 27.381 54.044 26.9546 54.044 26.4286C54.044 25.9026 53.6353 25.4762 53.131 25.4762ZM57.2365 26.4287C56.9843 26.4287 56.7799 26.642 56.7799 26.9049C56.7799 27.168 56.9843 27.3811 57.2365 27.3811C57.4886 27.3811 57.693 27.168 57.693 26.9049C57.693 26.642 57.4886 26.4287 57.2365 26.4287ZM49.2482 27.3813C48.87 27.3813 48.5634 27.7012 48.5634 28.0956C48.5634 28.4901 48.87 28.8099 49.2482 28.8099C49.6263 28.8099 49.9329 28.4901 49.9329 28.0956C49.9329 27.7012 49.6263 27.3813 49.2482 27.3813ZM60.4357 28.3334C59.9314 28.3334 59.5226 28.7598 59.5226 29.2858C59.5226 29.8118 59.9314 30.2382 60.4357 30.2382C60.9399 30.2382 61.3487 29.8118 61.3487 29.2858C61.3487 28.7598 60.9399 28.3334 60.4357 28.3334ZM52.674 30.2383C52.4218 30.2383 52.2174 30.4515 52.2174 30.7145C52.2174 30.9775 52.4218 31.1907 52.674 31.1907C52.9261 31.1907 53.1305 30.9775 53.1305 30.7145C53.1305 30.4515 52.9261 30.2383 52.674 30.2383ZM48.5646 31.1908C48.0603 31.1908 47.6516 31.6172 47.6516 32.1432C47.6516 32.6692 48.0603 33.0956 48.5646 33.0956C49.0688 33.0956 49.4776 32.6692 49.4776 32.1432C49.4776 31.6172 49.0688 31.1908 48.5646 31.1908ZM56.7833 31.1908C56.2791 31.1908 55.8703 31.6172 55.8703 32.1432C55.8703 32.6692 56.2791 33.0956 56.7833 33.0956C57.2876 33.0956 57.6964 32.6692 57.6964 32.1432C57.6964 31.6172 57.2876 31.1908 56.7833 31.1908ZM61.1154 32.1433C60.7372 32.1433 60.4305 32.4631 60.4305 32.8575C60.4305 33.2521 60.7372 33.5719 61.1154 33.5719C61.4935 33.5719 61.8001 33.2521 61.8001 32.8575C61.8001 32.4631 61.4935 32.1433 61.1154 32.1433Z" clip-rule="evenodd" fill="#3BC069" fill-opacity="1.000000" fill-rule="evenodd"/>
		</g>
	</g>
</svg>
