<svg width="80" height="80" viewBox="0 0 80 80" fill="none" xmlns="http://www.w3.org/2000/svg">
<rect width="80" height="80" rx="40" fill="#F6F6F9"/>
<path fill-rule="evenodd" clip-rule="evenodd" d="M52.8769 56.9091H57.4849C57.7694 56.9091 58 57.1533 58 57.4545C58 57.7558 57.7694 58 57.4849 58H22.5151C22.2306 58 22 57.7558 22 57.4545C22 57.1533 22.2306 56.9091 22.5151 56.9091H27.1231V26.9091C27.1231 26.6078 27.3537 26.3636 27.6381 26.3636H30.2135V22.5455C30.2135 22.2442 30.4441 22 30.7286 22H49.2714C49.5559 22 49.7865 22.2442 49.7865 22.5455V26.3636H52.3619C52.6463 26.3636 52.8769 26.6078 52.8769 26.9091V56.9091ZM44.6357 56.9091H51.8468V27.4545H28.1532V56.9091H35.3643V50.9091C35.3643 50.6078 35.5949 50.3636 35.8794 50.3636H44.1206C44.4051 50.3636 44.6357 50.6078 44.6357 50.9091V56.9091ZM31.2437 26.3636H48.7563V23.0909H31.2437V26.3636ZM36.3945 56.9091H43.6055V51.4545H36.3945V56.9091ZM31.7588 31.8182H37.9397C38.2242 31.8182 38.4548 32.0624 38.4548 32.3636V36.1818C38.4548 36.4831 38.2242 36.7273 37.9397 36.7273H31.7588C31.4743 36.7273 31.2437 36.4831 31.2437 36.1818V32.3636C31.2437 32.0624 31.4743 31.8182 31.7588 31.8182ZM32.2738 32.9091V35.6364H37.4246V32.9091H32.2738ZM31.7588 41.0909H37.9397C38.2242 41.0909 38.4548 41.3351 38.4548 41.6364V45.4545C38.4548 45.7558 38.2242 46 37.9397 46H31.7588C31.4743 46 31.2437 45.7558 31.2437 45.4545V41.6364C31.2437 41.3351 31.4743 41.0909 31.7588 41.0909ZM32.2738 42.1818V44.9091H37.4246V42.1818H32.2738ZM42.0603 31.8182H48.2412C48.5257 31.8182 48.7563 32.0624 48.7563 32.3636V36.1818C48.7563 36.4831 48.5257 36.7273 48.2412 36.7273H42.0603C41.7758 36.7273 41.5452 36.4831 41.5452 36.1818V32.3636C41.5452 32.0624 41.7758 31.8182 42.0603 31.8182ZM42.5754 32.9091V35.6364H47.7262V32.9091H42.5754ZM42.0603 41.0909H48.2412C48.5257 41.0909 48.7563 41.3351 48.7563 41.6364V45.4545C48.7563 45.7558 48.5257 46 48.2412 46H42.0603C41.7758 46 41.5452 45.7558 41.5452 45.4545V41.6364C41.5452 41.3351 41.7758 41.0909 42.0603 41.0909ZM42.5754 42.1818V44.9091H47.7262V42.1818H42.5754Z" fill="#252525" stroke="#252525" stroke-width="0.6"/>
<rect x="40" y="12" width="28" height="28" rx="14" fill="#F6F6F9"/>
<path fill-rule="evenodd" clip-rule="evenodd" d="M46.6372 30.9879C46.4055 30.9871 46.1836 30.8934 46.0201 30.7273L42.2545 26.7844C42.0915 26.6191 42 26.3951 42 26.1617C42 25.9282 42.0915 25.7042 42.2545 25.5389L43.9477 24.1073C44.0639 23.992 44.2089 23.9108 44.3672 23.8723C44.5255 23.8339 44.6912 23.8397 44.8465 23.8891L45.9109 24.3224L46.4771 23.7527C46.4268 23.2882 46.4815 22.8182 46.6372 22.3783C46.7929 21.9383 47.0455 21.5399 47.3759 21.2133L51.0697 17.4617C52.5715 15.9371 54.5959 15.0559 56.7229 15.0011H57.1094C57.2845 14.9921 57.4581 15.039 57.6054 15.1353C57.7527 15.2316 57.8664 15.3722 57.9302 15.5375C57.9987 15.6991 58.0173 15.8778 57.9837 16.0503C57.95 16.2228 57.8656 16.381 57.7415 16.5041L57.3221 16.9344C56.7634 17.4907 56.3361 18.1674 56.072 18.9141C55.808 19.6608 55.714 20.4581 55.7972 21.2466C55.8145 21.3814 55.801 21.5183 55.7579 21.647C55.7148 21.7757 55.6432 21.8927 55.5485 21.989L51.8307 25.7285C51.5054 26.0611 51.1104 26.3155 50.6748 26.4729C50.2392 26.6302 49.7742 26.6865 49.3142 26.6376L48.748 27.2073L49.0411 28.2164C49.0889 28.37 49.0943 28.5338 49.0568 28.6902C49.0193 28.8467 48.9404 28.9899 48.8284 29.1043L47.2544 30.7394C47.0909 30.9055 46.869 30.9992 46.6372 31V30.9879Z" fill="#048159"/>
<path fill-rule="evenodd" clip-rule="evenodd" d="M64.5576 31L56.783 23.9022C56.3885 23.5421 55.7808 23.5555 55.4015 23.9316C54.7436 24.5842 54.0835 25.2351 53.4262 25.8881C53.0468 26.2649 53.0331 26.8737 53.3938 27.2685L60.5004 35.046C60.7627 35.329 61.0794 35.5562 61.4316 35.714C61.7838 35.8718 62.1641 35.957 62.55 35.9644H62.6144C62.9907 35.9657 63.3634 35.892 63.711 35.7478C64.0585 35.6036 64.3739 35.3917 64.6388 35.1244C64.9147 34.8543 65.1317 34.53 65.2762 34.172C65.4208 33.814 65.4898 33.4299 65.4788 33.044C65.4715 32.6587 65.3861 32.2789 65.2278 31.9275C65.0694 31.5762 64.8414 31.2606 64.5576 31Z" fill="#048159"/>
</svg>
