<svg width="80" height="80" viewBox="0 0 80 80" fill="none" xmlns="http://www.w3.org/2000/svg">
<rect width="80" height="80" rx="40" fill="#F6F6F9"/>
<path d="M43.0761 46.287L39.457 40.2424L40.5427 39.542L43.6113 44.6657L57.5855 39.3016L54.6557 34.4083L55.7415 33.7072L59.4999 39.9822L43.0761 46.287Z" fill="#252525" stroke="#252525" stroke-width="0.4"/>
<path d="M36.9238 46.2863L20.5 39.9821L24.2584 33.7072L25.3441 34.4076L22.4144 39.3009L36.3886 44.6656L39.4571 39.5413L40.5429 40.2424L36.9238 46.2863Z" fill="#252525" stroke="#252525" stroke-width="0.4"/>
<path d="M55.7415 34.5799L54.6557 33.8781L57.5855 28.9855L43.6113 23.6214L40.5427 28.7451L39.457 28.044L43.0761 22.0001L59.4999 28.3049L55.7415 34.5799Z" fill="#252525" stroke="#252525" stroke-width="0.4"/>
<path d="M24.2584 34.5805L20.5 28.3048L36.9238 22.0006L40.5429 28.0445L39.4571 28.745L36.3886 23.622L22.4144 28.986L25.3441 33.8787L24.2584 34.5805Z" fill="#252525" stroke="#252525" stroke-width="0.4"/>
<path d="M54.755 34.856L40.0001 28.8718L25.2451 34.856L24.7803 33.6184L40.0001 27.4457L55.2199 33.6184L54.755 34.856Z" fill="#252525" stroke="#252525" stroke-width="0.4"/>
<path d="M40.1784 40.4314H39.8216L24.7949 34.7858L25.2304 33.5369L40 39.0862L54.7697 33.5369L55.2051 34.7858L40.1784 40.4314Z" fill="#252525" stroke="#252525" stroke-width="0.4"/>
<path d="M40.7056 40.0872H39.4268V57.3359H40.7056V40.0872Z" fill="#252525" stroke="#252525" stroke-width="0.4"/>
<path d="M40.1622 57.9998H39.8387L24.3906 52.1956V41.0133H25.6694V51.2634L40.0005 56.6487L54.3315 51.2634V41.0133H55.6103V52.1956L40.1622 57.9998Z" fill="#252525" stroke="#252525" stroke-width="0.4"/>
<rect x="40" y="12" width="28" height="28" rx="14" fill="#F6F6F9"/>
<path d="M50.586 36.2911L43.5666 26.3485C42.8543 25.4033 43.2747 24.6303 44.5005 24.6303L47.6261 24.6307C48.8306 19.1201 53.5668 14.5 59.3114 14.5C60.975 14.5 62.559 14.8454 64.0005 15.4694C59.5005 15.5 55.5004 19.5 56.0322 24.6303L59.3114 24.6307C60.5367 24.6307 60.9575 25.4041 60.2453 26.3489L53.1741 36.2911C52.4619 37.2363 51.2978 37.2363 50.586 36.2911Z" fill="#048159"/>
</svg>
