<svg width="80" height="80" viewBox="0 0 80 80" fill="none" xmlns="http://www.w3.org/2000/svg">
<rect width="80" height="80" rx="40" fill="#F6F6F9"/>
<path d="M39.6667 23H42.6667C43.6 23 44.4 23.7164 44.4 24.5522V27.1791H44.4667C45.4 27.1791 46.2 27.8955 46.2 28.7313V30.7612C48.8667 31.1194 51 33.1493 51 35.6567V54.0448C51 56.791 48.5333 59 45.4667 59H36.5333C33.4667 59 31 56.791 31 54.0448V35.6567C31 33.0299 33.3333 30.8806 36.2 30.7015V28.7313C36.2 27.8955 37 27.1791 37.9333 27.1791H38V24.5522C37.9333 23.7164 38.6667 23 39.6667 23ZM43.0667 24.5522C43.0667 24.3731 42.8667 24.194 42.6667 24.194H39.6667C39.4667 24.194 39.2667 24.3731 39.2667 24.5522V27.1791H43.0667V24.5522ZM32.2667 50.1642H49.6V39.4179H32.2667V50.1642ZM36.4667 57.7463H45.4C47.7333 57.7463 49.6 56.0746 49.6 53.9851V51.3582H32.2667V53.9851C32.2667 56.0746 34.1333 57.7463 36.4667 57.7463ZM32.2667 35.6567V38.2836H49.6V35.6567C49.6 33.6269 47.7333 31.9552 45.4667 31.8955C45.4 31.8955 36.4 31.8955 36.4667 31.8955C34.1333 31.8955 32.2667 33.5672 32.2667 35.6567ZM37.4667 28.7313V30.7015H44.8667V28.7313C44.8667 28.5522 44.6667 28.3731 44.4667 28.3731H37.8667C37.6667 28.3731 37.4667 28.4925 37.4667 28.7313Z" fill="#252525" stroke="#252525" stroke-width="0.6"/>
<path d="M33.9088 26.3637C30.6361 27.6971 27.2422 29.6364 23.8482 30.9698C23.5452 31.091 23.1816 30.9698 23.0603 30.6061C22.9391 30.3031 23.0603 29.9395 23.424 29.8183C25.8482 28.8486 28.2725 27.5758 30.8179 26.3637H23.6058C23.2422 26.3637 22.9997 26.1213 22.9997 25.7577C22.9997 25.394 23.2422 25.1516 23.6058 25.1516H30.8179C28.3331 24.0001 25.8482 22.7274 23.424 21.6971C23.1209 21.5758 22.9391 21.2122 23.0603 20.9092C23.1816 20.6061 23.5452 20.4243 23.8482 20.5455C27.2422 22.0001 30.6361 23.9395 33.9088 25.2728C34.1512 25.3334 34.2725 25.6364 34.2725 25.8183C34.2725 26.0607 34.0906 26.3031 33.9088 26.3637Z" fill="#252525" stroke="#252525" stroke-width="0.6"/>
<rect x="40" y="12" width="28" height="28" rx="14" fill="#F6F6F9"/>
<path d="M58.5906 16C57.5408 16 57.1066 17.5245 57.9685 18.1239C59.7246 19.3454 60.7592 19.9998 62.6993 20.1916C63.4549 20.2663 64.0731 19.6367 64.0731 18.8774C64.0731 18.1181 63.4552 17.5231 62.6989 17.4555C61.5208 17.3501 60.79 17.035 59.5482 16.1954C59.3623 16.0698 59.143 16 58.9187 16H58.5906Z" fill="#048159" stroke="#048159" stroke-width="0.2"/>
<path d="M50.1767 33.8748C48.4215 32.654 47.3873 32.0015 45.4471 31.8104C44.6914 31.736 44.0732 32.3656 44.0732 33.1248C44.0732 33.8841 44.6911 34.4792 45.4474 34.5464C46.6259 34.6512 47.3563 34.9651 48.5983 35.8044C48.784 35.9299 49.0032 35.9996 49.2274 35.9996H49.5542C50.6041 35.9996 51.0385 34.4746 50.1767 33.8748Z" fill="#048159" stroke="#048159" stroke-width="0.2"/>
<path d="M64.0729 24.1265C64.0729 23.3672 63.4547 22.7625 62.6988 22.6915C60.1347 22.4505 58.7751 21.5048 56.8558 20.17C54.2589 18.3634 51.0739 16.3234 45.4507 16.0347C44.6917 15.9957 44.0733 16.6162 44.0734 17.3763C44.0735 18.1362 44.6918 18.7477 45.4508 18.7864C50.4638 19.0417 53.2554 20.6897 55.7426 22.42C57.8237 23.8676 59.5189 25.1562 62.699 25.4423C63.4552 25.5104 64.0729 24.8858 64.0729 24.1265ZM64.0731 34.625C64.073 33.8658 63.4551 33.2553 62.6972 33.2125C57.6832 32.929 54.8913 31.1056 52.4036 29.3752C50.3228 27.9277 48.628 26.8001 45.4478 26.5522C44.6907 26.4932 44.0733 27.1169 44.0734 27.8763C44.0735 28.6355 44.6912 29.2415 45.4482 29.2999C48.0122 29.4976 49.3718 30.2905 51.2907 31.6252C53.8875 33.4319 57.0734 35.6481 62.6972 35.9623C63.4553 36.0046 64.0732 35.3844 64.0731 34.625Z" fill="#048159" stroke="#048159" stroke-width="0.2"/>
<path d="M64.0732 29.4064C64.0732 30.1664 63.4558 30.7884 62.6975 30.7382C58.2913 30.4464 55.8677 28.7602 53.5168 27.1246C51.3288 25.6027 49.2491 24.2975 45.4485 24.0455C44.6908 23.9952 44.0733 23.386 44.0734 22.6266C44.0735 21.8674 44.6904 21.2462 45.448 21.2954C49.855 21.5817 52.2789 23.2393 54.6301 24.8751C56.8179 26.3968 58.8973 27.7278 62.6969 27.9854C63.4552 28.0368 64.0732 28.6464 64.0732 29.4064Z" fill="#048159" stroke="#048159" stroke-width="0.2"/>
</svg>
