<svg width="80.000000" height="80.000000" viewBox="0 0 80 80" fill="none" xmlns="http://www.w3.org/2000/svg" xmlns:xlink="http://www.w3.org/1999/xlink">
	<desc>
			Created with Pixso.
	</desc>
	<defs>
		<clipPath id="clip28_6002">
			<rect id="Iconly / Stroke / Technology" width="40.000000" height="40.000000" transform="translate(20.000000 20.000000)" fill="white" fill-opacity="0"/>
		</clipPath>
		<clipPath id="clip28_6001">
			<rect id="icon" rx="40.000000" width="80.000000" height="80.000000" fill="white" fill-opacity="0"/>
		</clipPath>
	</defs>
	<rect id="icon" rx="40.000000" width="80.000000" height="80.000000" fill="#F6F6F9" fill-opacity="1.000000"/>
	<g clip-path="url(#clip28_6001)">
		<rect id="Iconly / Stroke / Technology" width="40.000000" height="40.000000" transform="translate(20.000000 20.000000)" fill="#FFFFFF" fill-opacity="0"/>
		<g clip-path="url(#clip28_6002)">
			<path id="Vector" d="M31.51 49.41L39.7 52.87C39.79 52.91 39.89 52.92 40 52.92C40.09 52.92 40.19 52.91 40.29 52.87L48.49 49.41C48.76 49.29 48.94 49.02 48.94 48.72L48.94 40.17C48.94 39.84 48.72 39.57 48.49 39.48L40.29 36.01C40.1 35.94 39.89 35.94 39.7 36.01L31.53 39.47C31.2 39.61 31.04 39.87 31.04 40.17L31.04 48.72C31.04 49.02 31.23 49.29 31.51 49.41ZM47.44 48.21L40.75 51.05L40.74 51.05L40.74 44.13L40.75 44.13L47.44 41.3L47.44 48.21ZM40 37.52C40.07 37.55 46.68 40.34 46.27 40.17C46.19 40.2 39.58 42.99 40 42.81C39.92 42.78 33.31 39.99 33.72 40.17C33.8 40.13 40.41 37.34 40 37.52ZM32.54 41.29L39.24 44.12L39.24 51.05L32.54 48.21L32.54 41.29Z" fill="#252525" fill-opacity="1.000000" fill-rule="nonzero"/>
			<path id="Vector" d="M39.7 52.87C39.79 52.91 39.89 52.92 40 52.92C40.09 52.92 40.19 52.91 40.29 52.87L48.49 49.41C48.76 49.29 48.94 49.02 48.94 48.72L48.94 40.17C48.94 39.84 48.72 39.57 48.49 39.48L40.29 36.01C40.1 35.94 39.89 35.94 39.7 36.01L31.53 39.47C31.2 39.61 31.04 39.87 31.04 40.17L31.04 48.72C31.04 49.02 31.23 49.29 31.51 49.41L39.7 52.87ZM40.75 51.05L40.74 51.05L40.74 44.13L40.75 44.13L47.44 41.3L47.44 48.21L40.75 51.05ZM46.27 40.17C46.19 40.2 39.58 42.99 40 42.81C39.92 42.78 33.31 39.99 33.72 40.17C33.8 40.13 40.41 37.34 40 37.52C40.07 37.55 46.68 40.34 46.27 40.17ZM39.24 44.12L39.24 51.05L32.54 48.21L32.54 41.29L39.24 44.12Z" stroke="#252525" stroke-opacity="1.000000" stroke-width="0.300000"/>
			<path id="Vector" d="M58 26.55C58 24.23 56.1 22.34 53.77 22.34L26.21 22.34C23.89 22.34 22 24.23 22 26.55C22 33.3 22 46.81 22 53.44C22 55.76 23.89 57.65 26.21 57.65L53.77 57.65C56.1 57.65 58 55.76 58 53.44C58 46.8 58 33.3 58 26.55ZM56.5 53.44C56.5 54.94 55.27 56.15 53.77 56.15L26.21 56.15C24.71 56.15 23.5 54.94 23.5 53.44L23.5 31.91L56.5 31.91L56.5 53.44ZM56.5 30.41L23.5 30.41L23.5 26.55C23.5 25.05 24.71 23.84 26.21 23.84L53.77 23.84C55.27 23.84 56.5 25.05 56.5 26.55L56.5 30.41Z" fill="#252525" fill-opacity="1.000000" fill-rule="nonzero"/>
			<path id="Vector" d="M53.77 22.34L26.21 22.34C23.89 22.34 22 24.23 22 26.55C22 33.3 22 46.81 22 53.44C22 55.76 23.89 57.65 26.21 57.65L53.77 57.65C56.1 57.65 58 55.76 58 53.44C58 46.8 58 33.3 58 26.55C58 24.23 56.1 22.34 53.77 22.34ZM53.77 56.15L26.21 56.15C24.71 56.15 23.5 54.94 23.5 53.44L23.5 31.91L56.5 31.91L56.5 53.44C56.5 54.94 55.27 56.15 53.77 56.15ZM23.5 30.41L23.5 26.55C23.5 25.05 24.71 23.84 26.21 23.84L53.77 23.84C55.27 23.84 56.5 25.05 56.5 26.55L56.5 30.41L23.5 30.41Z" stroke="#252525" stroke-opacity="1.000000" stroke-width="0.300000"/>
			<rect id="Rectangle 263" x="42.000000" y="26.000000" rx="1.200000" width="13.000000" height="2.400000" fill="#252525" fill-opacity="1.000000"/>
			<path id="Vector" d="M27.5 25.7C26.67 25.7 26 26.37 26 27.2C26 28.02 26.67 28.7 27.5 28.7C28.32 28.7 29 28.02 29 27.2C29 26.37 28.32 25.7 27.5 25.7Z" fill="#252525" fill-opacity="1.000000" fill-rule="nonzero"/>
			<path id="Vector" d="M31.5 25.7C30.67 25.7 30 26.37 30 27.2C30 28.02 30.67 28.7 31.5 28.7C32.32 28.7 33 28.02 33 27.2C33 26.37 32.32 25.7 31.5 25.7Z" fill="#252525" fill-opacity="1.000000" fill-rule="nonzero"/>
			<path id="Vector" d="M35.5 25.7C34.67 25.7 34 26.37 34 27.2C34 28.02 34.67 28.7 35.5 28.7C36.32 28.7 37 28.02 37 27.2C37 26.37 36.32 25.7 35.5 25.7Z" fill="#252525" fill-opacity="1.000000" fill-rule="nonzero"/>
		</g>
		<rect id="Iconly / Bold / Search" rx="14.000000" width="28.000000" height="28.000000" transform="translate(40.000000 12.000000)" fill="#F6F6F9" fill-opacity="1.000000"/>
		<path id="Path_33905" d="M64.52 34.48L61.71 32.21C61.29 31.79 60.6 31.79 60.18 32.21C59.96 32.44 59.83 32.74 59.83 33.05C59.83 33.37 59.96 33.67 60.18 33.89L62.51 36.56C63.08 37.14 64 37.14 64.57 36.56C65.14 35.99 65.14 35.06 64.57 34.48L64.52 34.48Z" fill="#048159" fill-opacity="1.000000" fill-rule="evenodd"/>
		<path id="Subtract" d="M52.4336 15C47.2222 15 42.998 19.2698 42.998 24.5369C42.998 29.8039 47.2222 34.0737 52.4336 34.0737C57.6445 34.0737 61.8687 29.8039 61.8687 24.5369C61.8687 22.0075 60.8745 19.5818 59.105 17.7933C57.3359 16.0048 54.9355 15 52.4336 15ZM56.8101 23.1132C57.4185 22.8901 57.5508 22.3349 57.3975 21.7336C56.6973 19.6645 54.9165 18.2669 52.6929 18.2383C52.0127 18.2498 51.2734 18.2977 51.2578 19.186C51.2461 19.8417 51.752 20.2781 52.686 20.2862C53.7588 20.2954 55.0522 21.0399 55.3818 22.013C55.6182 22.7109 55.8496 23.3461 56.8101 23.1132Z" clip-rule="evenodd" fill="#048159" fill-opacity="1.000000" fill-rule="evenodd"/>
	</g>
</svg>
