<svg width="80.000000" height="80.000000" viewBox="0 0 80 80" fill="none" xmlns="http://www.w3.org/2000/svg" xmlns:xlink="http://www.w3.org/1999/xlink">
	<desc>
			Created with Pixso.
	</desc>
	<defs>
		<clipPath id="clip28_5987">
			<rect id="Iconly / Stroke / Globe" width="40.000000" height="40.000000" transform="translate(20.000000 20.000000)" fill="white" fill-opacity="0"/>
		</clipPath>
		<clipPath id="clip28_5993">
			<rect id="icon" rx="40.000000" width="80.000000" height="80.000000" fill="white" fill-opacity="0"/>
		</clipPath>
	</defs>
	<rect id="icon" rx="40.000000" width="80.000000" height="80.000000" fill="#F6F6F9" fill-opacity="1.000000"/>
	<g clip-path="url(#clip28_5993)">
		<rect id="Iconly / Stroke / Globe" width="40.000000" height="40.000000" transform="translate(20.000000 20.000000)" fill="#FFFFFF" fill-opacity="0"/>
		<g clip-path="url(#clip28_5987)">
			<path id="Vector" d="M40 20C28.97 20 20 28.97 20 40C20 51.02 28.97 60 40 60C51.02 60 60 51.02 60 40C60 28.97 51.02 20 40 20ZM30.76 40C30.76 37.26 31.09 34.65 31.69 32.31L38.99 32.31L38.99 47.68L31.69 47.68C31.09 45.34 30.76 42.73 30.76 40ZM40.87 22.21C43.72 22.76 46.24 25.94 47.75 30.43L40.87 30.43L40.87 22.21ZM39 22.24L39 30.44L32.24 30.44C33.73 26 36.2 22.85 39 22.24ZM39 49.56L39 57.76C36.2 57.14 33.73 53.99 32.24 49.56L39 49.56ZM40.87 57.78L40.87 49.56L47.75 49.56C46.24 54.05 43.72 57.23 40.87 57.78ZM40.87 47.68L40.87 32.31L48.3 32.31C48.9 34.65 49.23 37.26 49.23 40C49.23 42.73 48.9 45.34 48.3 47.68L40.87 47.68ZM50.26 32.31L56.41 32.31C57.51 34.65 58.12 37.25 58.12 40C58.12 42.74 57.5 45.35 56.41 47.68L50.26 47.68C50.81 45.33 51.11 42.74 51.11 40C51.11 37.25 50.81 34.66 50.26 32.31ZM55.38 30.43L49.76 30.43C48.77 27.17 47.27 24.5 45.44 22.71C49.6 24.02 53.12 26.8 55.38 30.43ZM34.55 22.71C32.72 24.5 31.22 27.17 30.23 30.43L24.61 30.43C26.87 26.8 30.39 24.02 34.55 22.71ZM23.59 32.31L29.73 32.31C29.19 34.66 28.88 37.25 28.88 40C28.88 42.74 29.18 45.33 29.73 47.68L23.59 47.68C22.49 45.35 21.87 42.74 21.87 40C21.87 37.25 22.49 34.64 23.59 32.31ZM24.61 49.56L30.23 49.56C31.22 52.82 32.72 55.49 34.55 57.28C30.39 55.97 26.87 53.19 24.61 49.56ZM45.44 57.28C47.27 55.49 48.77 52.82 49.76 49.56L55.38 49.56C53.12 53.19 49.6 55.97 45.44 57.28Z" fill="#252525" fill-opacity="1.000000" fill-rule="nonzero"/>
		</g>
		<rect id="Iconly / Bold / Location" rx="14.000000" width="28.000000" height="28.000000" transform="translate(40.000000 12.000000)" fill="#F6F6F9" fill-opacity="1.000000"/>
		<path id="Location" d="M44.6499 24.1495C44.6499 19.0897 48.8782 15 53.9927 15C59.1216 15 63.3499 19.0897 63.3499 24.1495C63.3499 26.6993 62.4226 29.0664 60.8962 31.0728C59.2126 33.2859 57.1372 35.2141 54.8013 36.7277C54.2666 37.0775 53.7842 37.1039 53.1975 36.7277C50.8481 35.2141 48.7727 33.2859 47.1035 31.0728C45.5762 29.0664 44.6499 26.6993 44.6499 24.1495ZM50.9116 24.4344C50.9116 26.1295 52.2947 27.4626 53.9907 27.4626C55.6877 27.4626 57.0842 26.1295 57.0842 24.4344C57.0842 22.7526 55.6877 21.3545 53.9907 21.3545C52.2947 21.3545 50.9116 22.7526 50.9116 24.4344Z" clip-rule="evenodd" fill="#048159" fill-opacity="1.000000" fill-rule="evenodd"/>
	</g>
</svg>
