<svg width="80" height="80" viewBox="0 0 80 80" fill="none" xmlns="http://www.w3.org/2000/svg">
<rect width="80" height="80" rx="40" fill="#3F4451"/>
<path d="M55.1686 22H24.8313C24.0806 22.0008 23.3609 22.2994 22.8302 22.8302C22.2994 23.3609 22.0008 24.0806 22 24.8313V55.1686C22.0008 55.9193 22.2994 56.639 22.8302 57.1698C23.3609 57.7006 24.0806 57.9991 24.8313 57.9999H55.1686C55.9193 57.9991 56.639 57.7006 57.1698 57.1698C57.7006 56.639 57.9991 55.9193 57.9999 55.1686V24.8313C57.9991 24.0806 57.7006 23.3609 57.1698 22.8302C56.639 22.2994 55.9193 22.0008 55.1686 22ZM56.3823 55.1686C56.3819 55.4904 56.2539 55.7989 56.0264 56.0264C55.7989 56.2539 55.4904 56.3819 55.1686 56.3823H24.8313C24.5095 56.3819 24.2011 56.2539 23.9735 56.0264C23.746 55.7989 23.618 55.4904 23.6176 55.1686V24.8313C23.618 24.5095 23.746 24.2011 23.9735 23.9735C24.2011 23.746 24.5095 23.618 24.8313 23.6176H55.1686C55.4904 23.618 55.7989 23.746 56.0264 23.9735C56.2539 24.2011 56.3819 24.5095 56.3823 24.8313V55.1686Z" fill="white" stroke="white" stroke-width="0.4"/>
<path d="M29.382 26.045C28.722 26.045 28.0768 26.2407 27.5281 26.6074C26.9793 26.9741 26.5516 27.4952 26.2991 28.105C26.0465 28.7147 25.9804 29.3856 26.1092 30.0329C26.2379 30.6802 26.5557 31.2748 27.0224 31.7415C27.4891 32.2082 28.0837 32.526 28.731 32.6547C29.3783 32.7835 30.0492 32.7174 30.6589 32.4649C31.2687 32.2123 31.7898 31.7846 32.1565 31.2358C32.5232 30.6871 32.7189 30.0419 32.7189 29.382C32.718 28.4972 32.3661 27.649 31.7405 27.0234C31.1149 26.3978 30.2667 26.0459 29.382 26.045ZM29.382 31.1013C29.0419 31.1013 28.7095 31.0004 28.4268 30.8115C28.144 30.6226 27.9237 30.3541 27.7935 30.0399C27.6634 29.7257 27.6293 29.38 27.6957 29.0465C27.762 28.713 27.9258 28.4066 28.1662 28.1662C28.4067 27.9257 28.713 27.762 29.0465 27.6957C29.3801 27.6293 29.7258 27.6634 30.0399 27.7935C30.3541 27.9236 30.6226 28.144 30.8115 28.4267C31.0004 28.7095 31.1013 29.0419 31.1013 29.382C31.1008 29.8378 30.9195 30.2748 30.5971 30.5971C30.2748 30.9194 29.8378 31.1007 29.382 31.1013Z" fill="white" stroke="white" stroke-width="0.4"/>
<path d="M50.618 47.281C49.958 47.281 49.3129 47.4767 48.7641 47.8433C48.2154 48.21 47.7877 48.7312 47.5351 49.3409C47.2825 49.9506 47.2165 50.6216 47.3452 51.2689C47.474 51.9162 47.7918 52.5108 48.2585 52.9774C48.7251 53.4441 49.3197 53.7619 49.967 53.8907C50.6143 54.0194 51.2853 53.9533 51.895 53.7008C52.5047 53.4482 53.0259 53.0205 53.3926 52.4718C53.7592 51.923 53.9549 51.2778 53.9549 50.6179C53.954 49.7331 53.6022 48.8849 52.9766 48.2593C52.351 47.6337 51.5027 47.2819 50.618 47.281ZM50.618 52.3372C50.278 52.3372 49.9456 52.2364 49.6628 52.0474C49.3801 51.8585 49.1597 51.59 49.0296 51.2758C48.8994 50.9617 48.8654 50.616 48.9317 50.2824C48.9981 49.9489 49.1618 49.6426 49.4023 49.4021C49.6427 49.1617 49.9491 48.9979 50.2826 48.9316C50.6161 48.8652 50.9618 48.8993 51.276 49.0294C51.5901 49.1596 51.8587 49.3799 52.0476 49.6627C52.2365 49.9454 52.3373 50.2778 52.3373 50.6179C52.3368 51.0737 52.1555 51.5107 51.8332 51.833C51.5109 52.1554 51.0739 52.3367 50.618 52.3372Z" fill="white" stroke="white" stroke-width="0.4"/>
<path d="M50.618 26.045C49.958 26.045 49.3129 26.2407 48.7641 26.6074C48.2154 26.9741 47.7877 27.4952 47.5351 28.105C47.2825 28.7147 47.2165 29.3857 47.3452 30.033C47.474 30.6803 47.7918 31.2748 48.2585 31.7415C48.7251 32.2082 49.3197 32.526 49.967 32.6548C50.6143 32.7835 51.2853 32.7174 51.895 32.4649C52.5047 32.2123 53.0259 31.7846 53.3926 31.2358C53.7592 30.6871 53.9549 30.0419 53.9549 29.382C53.954 28.4972 53.6022 27.649 52.9766 27.0234C52.351 26.3978 51.5027 26.0459 50.618 26.045ZM50.618 31.1013C50.278 31.1013 49.9456 31.0004 49.6628 30.8115C49.3801 30.6226 49.1597 30.3541 49.0296 30.0399C48.8994 29.7257 48.8654 29.38 48.9317 29.0465C48.9981 28.713 49.1618 28.4066 49.4023 28.1662C49.6427 27.9257 49.9491 27.762 50.2826 27.6957C50.6161 27.6293 50.9618 27.6634 51.276 27.7935C51.5901 27.9236 51.8587 28.144 52.0476 28.4267C52.2365 28.7095 52.3373 29.0419 52.3373 29.382C52.3368 29.8378 52.1555 30.2748 51.8332 30.5971C51.5109 30.9194 51.0738 31.1008 50.618 31.1013Z" fill="#252525" stroke="#252525" stroke-width="0.4"/>
<path d="M29.382 47.281C28.722 47.281 28.0768 47.4767 27.5281 47.8433C26.9793 48.21 26.5516 48.7311 26.2991 49.3409C26.0465 49.9506 25.9804 50.6216 26.1092 51.2689C26.2379 51.9162 26.5557 52.5108 27.0224 52.9774C27.4891 53.4441 28.0837 53.7619 28.731 53.8907C29.3783 54.0194 30.0492 53.9533 30.6589 53.7008C31.2687 53.4482 31.7898 53.0205 32.1565 52.4718C32.5232 51.923 32.7189 51.2778 32.7189 50.6179C32.718 49.7331 32.3661 48.8849 31.7405 48.2593C31.1149 47.6337 30.2667 47.2819 29.382 47.281ZM29.382 52.3372C29.0419 52.3372 28.7095 52.2364 28.4268 52.0474C28.144 51.8585 27.9237 51.59 27.7935 51.2758C27.6634 50.9617 27.6293 50.616 27.6957 50.2825C27.762 49.9489 27.9258 49.6426 28.1662 49.4021C28.4067 49.1617 28.713 48.9979 29.0465 48.9316C29.3801 48.8652 29.7257 48.8993 30.0399 49.0294C30.3541 49.1596 30.6226 49.3799 30.8115 49.6627C31.0004 49.9454 31.1013 50.2778 31.1013 50.6179C31.1008 51.0737 30.9195 51.5107 30.5971 51.833C30.2748 52.1554 29.8378 52.3367 29.382 52.3372Z" fill="white" stroke="white" stroke-width="0.4"/>
<path d="M45.4952 33.3601L33.3602 45.4951C33.2094 45.6471 33.1249 45.8526 33.1253 46.0668C33.1257 46.2809 33.2109 46.4861 33.3623 46.6376C33.5137 46.789 33.719 46.8742 33.9331 46.8746C34.1473 46.875 34.3528 46.7905 34.5048 46.6397L46.6397 34.5047C46.7154 34.4297 46.7754 34.3404 46.8164 34.2421C46.8575 34.1438 46.8787 34.0384 46.8789 33.9318C46.8791 33.8253 46.8582 33.7198 46.8176 33.6213C46.7769 33.5228 46.7172 33.4334 46.6418 33.3581C46.5665 33.2827 46.477 33.223 46.3786 33.1823C46.2801 33.1417 46.1746 33.1208 46.0681 33.121C45.9615 33.1212 45.8561 33.1424 45.7578 33.1835C45.6595 33.2245 45.5702 33.2845 45.4952 33.3601Z" fill="white" stroke="white" stroke-width="0.4"/>
<path d="M45.4952 39.4277L39.4277 45.4951C39.3525 45.5703 39.2929 45.6595 39.2523 45.7577C39.2116 45.8559 39.1906 45.9611 39.1906 46.0674C39.1906 46.1737 39.2116 46.2789 39.2522 46.3771C39.2929 46.4753 39.3525 46.5646 39.4277 46.6397C39.5795 46.7915 39.7853 46.8768 40 46.8768C40.1063 46.8768 40.2115 46.8558 40.3097 46.8152C40.4079 46.7745 40.4971 46.7149 40.5723 46.6397L46.6397 40.5722C46.7149 40.4971 46.7745 40.4079 46.8152 40.3097C46.8558 40.2115 46.8768 40.1062 46.8768 40C46.8768 39.8937 46.8558 39.7884 46.8152 39.6902C46.7745 39.592 46.7149 39.5028 46.6397 39.4277C46.5646 39.3525 46.4753 39.2929 46.3772 39.2522C46.279 39.2116 46.1737 39.1906 46.0674 39.1906C45.9612 39.1906 45.8559 39.2116 45.7577 39.2522C45.6595 39.2929 45.5703 39.3525 45.4952 39.4277Z" fill="white" stroke="white" stroke-width="0.4"/>
<path d="M33.9326 40.8087C34.0389 40.8088 34.1441 40.7879 34.2423 40.7473C34.3405 40.7068 34.4297 40.6472 34.5049 40.5722L40.5724 34.5047C40.7242 34.3529 40.8094 34.1471 40.8094 33.9324C40.8094 33.7178 40.7242 33.5119 40.5724 33.3601C40.4206 33.2083 40.2147 33.1231 40.0001 33.1231C39.7855 33.1231 39.5796 33.2083 39.4278 33.3601L33.3603 39.4276C33.2471 39.5407 33.1699 39.6849 33.1387 39.8419C33.1074 39.9989 33.1234 40.1616 33.1847 40.3095C33.246 40.4574 33.3497 40.5837 33.4829 40.6726C33.616 40.7615 33.7725 40.8088 33.9326 40.8087Z" fill="white" stroke="white" stroke-width="0.4"/>
<rect x="40" y="12" width="28" height="28" rx="14" fill="#3F4451"/>
<path d="M56.096 23.997C55.676 23.5766 55.088 23.3243 54.5 23.3243C53.912 23.3243 53.324 23.5766 52.904 23.997C52.484 24.4174 52.232 25.006 52.232 25.5946C52.232 26.1832 52.484 26.7718 52.904 27.1081C53.744 27.9489 55.172 27.9489 56.012 27.1081C56.432 26.6877 56.684 26.1832 56.684 25.5946C56.684 25.006 56.516 24.4174 56.096 23.997ZM56.096 23.997C55.676 23.5766 55.088 23.3243 54.5 23.3243C53.912 23.3243 53.324 23.5766 52.904 23.997C52.484 24.4174 52.232 25.006 52.232 25.5946C52.232 26.1832 52.484 26.7718 52.904 27.1081C53.744 27.9489 55.172 27.9489 56.012 27.1081C56.432 26.6877 56.684 26.1832 56.684 25.5946C56.684 25.006 56.516 24.4174 56.096 23.997ZM61.892 18.1111C59.876 16.0931 57.188 15 54.5 15C51.812 15 49.124 16.009 47.108 18.1111C45.092 20.1291 44 22.7357 44 25.5105C44 28.2853 45.092 30.976 47.108 32.9099C51.224 37.03 57.86 37.03 61.976 32.9099C63.908 30.8919 65 28.2853 65 25.5105C65 22.7357 63.908 20.1291 61.892 18.1111ZM57.272 28.2853C56.516 29.042 55.592 29.3784 54.5 29.3784C53.492 29.3784 52.484 28.958 51.728 28.2853C50.972 27.5285 50.552 26.6036 50.552 25.5105C50.552 24.5015 50.972 23.4925 51.728 22.7357C52.484 21.979 53.408 21.5586 54.5 21.5586C55.508 21.5586 56.516 21.979 57.272 22.7357C58.028 23.4925 58.364 24.4174 58.364 25.5105C58.364 26.6036 58.028 27.5285 57.272 28.2853ZM54.5 23.3243C53.912 23.3243 53.324 23.5766 52.904 23.997C52.484 24.4174 52.232 25.006 52.232 25.5946C52.232 26.1832 52.484 26.7718 52.904 27.1081C53.744 27.9489 55.172 27.9489 56.012 27.1081C56.432 26.6877 56.684 26.1832 56.684 25.5946C56.684 25.006 56.432 24.4174 56.012 23.997C55.676 23.5766 55.088 23.3243 54.5 23.3243ZM56.096 23.997C55.676 23.5766 55.088 23.3243 54.5 23.3243C53.912 23.3243 53.324 23.5766 52.904 23.997C52.484 24.4174 52.232 25.006 52.232 25.5946C52.232 26.1832 52.484 26.7718 52.904 27.1081C53.744 27.9489 55.172 27.9489 56.012 27.1081C56.432 26.6877 56.684 26.1832 56.684 25.5946C56.684 25.006 56.516 24.4174 56.096 23.997ZM56.096 23.997C55.676 23.5766 55.088 23.3243 54.5 23.3243C53.912 23.3243 53.324 23.5766 52.904 23.997C52.484 24.4174 52.232 25.006 52.232 25.5946C52.232 26.1832 52.484 26.7718 52.904 27.1081C53.744 27.9489 55.172 27.9489 56.012 27.1081C56.432 26.6877 56.684 26.1832 56.684 25.5946C56.684 25.006 56.516 24.4174 56.096 23.997Z" fill="#3BC069"/>
</svg>
