<svg width="80" height="80" viewBox="0 0 80 80" fill="none" xmlns="http://www.w3.org/2000/svg">
<rect width="80" height="80" rx="40" fill="#3F4451"/>
<path d="M55.3125 47.4877C54.6897 47.1542 53.978 46.9651 53.2221 46.9651C51.4553 46.9651 49.9297 47.9984 49.2169 49.4937H42.7192C42.6984 46.0312 39.8851 43.2308 36.4177 43.2308C36.1951 43.2308 35.9752 43.2423 35.7585 43.2648V33.5836C35.7608 33.5607 35.762 33.5375 35.762 33.514C35.762 33.4905 35.7608 33.4673 35.7585 33.4443V30.2052C35.7585 30.0763 35.863 29.9718 35.9919 29.9718H47.4869C47.5686 29.9718 47.6443 30.0145 47.6866 30.0843L49.3362 32.8099H44.3531C43.9664 32.8099 43.6529 33.1234 43.6529 33.5101C43.6529 33.8968 43.9664 34.2103 44.3531 34.2103H58.1234V41.5547L55.3125 47.4877ZM56.4368 48.3449L59.3731 42.1896C59.4719 42.0146 59.5238 41.817 59.5238 41.616V33.9185C59.5238 33.274 59.0013 32.7516 58.3568 32.7516H50.9378L48.8846 29.3593C48.5886 28.8702 48.0586 28.5714 47.4869 28.5714H35.9919C35.0896 28.5714 34.3582 29.3029 34.3582 30.2052V32.8138H31.893C31.8686 32.8112 31.8439 32.8099 31.8189 32.8099H24.2204C23.8337 32.8099 23.5202 33.1234 23.5202 33.5101C23.5202 33.8968 23.8337 34.2103 24.2204 34.2103H24.864L27.8574 40.2524L27.7485 46.9651H25.1806L20.4762 51.1437V54.04H21.1764L25.5067 54.0398C27.5599 53.9964 29.2545 53.2566 30.5526 51.8418C31.4739 54.1796 33.7526 55.8341 36.4177 55.8341C39.4305 55.8341 41.9495 53.7198 42.5719 50.8941H48.8161C48.7973 51.06 48.7876 51.2286 48.7876 51.3996C48.7876 53.8487 50.773 55.8341 53.2221 55.8341C55.6712 55.8341 57.6566 53.8487 57.6566 51.3996C57.6566 50.2157 57.1927 49.1402 56.4368 48.3449ZM34.3582 34.2142V43.575C31.8892 44.4284 30.116 46.7733 30.116 49.5324C30.116 49.7241 30.1246 49.9138 30.1414 50.1012C29.0289 51.7635 27.4967 52.5971 25.4919 52.6396H21.8766V51.7728L25.7127 48.3654H29.154L29.2628 41.616H31.893C32.2797 41.616 32.5932 41.3025 32.5932 40.9158C32.5932 40.5291 32.2797 40.2156 31.893 40.2156H29.2801C29.2782 40.1613 29.27 40.1063 29.2549 40.0516L26.3181 34.2142H34.3582ZM36.4177 54.4337C33.7108 54.4337 31.5164 52.2393 31.5164 49.5324C31.5164 46.8255 33.7108 44.6311 36.4177 44.6311C39.1246 44.6311 41.319 46.8255 41.319 49.5324C41.319 52.2393 39.1246 54.4337 36.4177 54.4337ZM53.2221 54.4337C51.5464 54.4337 50.188 53.0753 50.188 51.3996C50.188 49.7239 51.5464 48.3654 53.2221 48.3654C54.8978 48.3654 56.2563 49.7239 56.2563 51.3996C56.2563 53.0753 54.8978 54.4337 53.2221 54.4337Z" fill="white" stroke="white" stroke-width="0.4"/>
<rect x="40" y="12" width="28" height="28" rx="14" fill="#3F4451"/>
<path d="M61.9837 22.0152C61.9837 22.0152 58.32 21.7257 56.251 23.6675C54.1816 25.6094 54.49 29.0469 54.49 29.0469C54.49 29.0469 58.1537 29.3364 60.2228 27.3945C62.2922 25.4527 61.9837 22.0152 61.9837 22.0152ZM47.7772 27.3945C49.8466 29.3364 53.51 29.0469 53.51 29.0469C53.51 29.0469 53.8184 25.609 51.749 23.6675C49.6796 21.7257 46.0163 22.0152 46.0163 22.0152C46.0163 22.0152 45.7078 25.4527 47.7772 27.3945Z" fill="#3BC069"/>
<path d="M56.8137 30.889C59.4 28.6893 63.9797 29.0172 63.9797 29.0172C63.9797 29.0172 64.3652 32.9115 61.7785 35.1108C58.6119 37.803 54.6125 36.9826 54.6125 36.9826C54.6125 36.9826 54.227 33.0887 56.8137 30.889Z" fill="#3BC069"/>
<path d="M53.3875 36.9826C53.3875 36.9826 49.3377 37.7602 46.2215 35.1108C43.6348 32.9115 44.0203 29.0172 44.0203 29.0172C44.0203 29.0172 48.5995 28.6897 51.1863 30.889C53.773 33.0883 53.3875 36.9826 53.3875 36.9826Z" fill="#3BC069"/>
<path d="M51 18.4999C51 16.0147 54 13.9999 54 13.9999C54 13.9999 57 16.0147 57 18.4999C57 20.9851 54 22.9999 54 22.9999C54 22.9999 51 20.9851 51 18.4999Z" fill="#3BC069"/>
</svg>
