<svg width="80" height="80" viewBox="0 0 80 80" fill="none" xmlns="http://www.w3.org/2000/svg">
<rect width="80" height="80" rx="40" fill="#3F4451"/>
<g clip-path="url(#clip0_1_221)">
<path d="M52.9499 46.3473C53.5861 45.6513 53.939 44.7427 53.9392 43.8V36.2C53.9419 35.3887 53.6836 34.598 53.2025 33.9446C52.7213 33.2912 52.0427 32.8096 51.2668 32.571C51.1294 32.5366 51.0068 32.4587 50.9173 32.3489C50.8279 32.2391 50.7764 32.1032 50.7707 31.9617V31.1333C51.2749 31.1333 51.7584 30.9332 52.1149 30.5768C52.4715 30.2205 52.6718 29.7372 52.6718 29.2333C52.6718 28.7294 52.4715 28.2461 52.1149 27.8898C51.7584 27.5335 51.2749 27.3333 50.7707 27.3333H43.1663C42.6621 27.3333 42.1785 27.5335 41.822 27.8898C41.4655 28.2461 41.2652 28.7294 41.2652 29.2333C41.2652 29.7372 41.4655 30.2205 41.822 30.5768C42.1785 30.9332 42.6621 31.1333 43.1663 31.1333V31.9617C43.1605 32.1032 43.1091 32.2391 43.0196 32.3489C42.9302 32.4587 42.8075 32.5366 42.6701 32.571C41.8942 32.8096 41.2156 33.2912 40.7345 33.9446C40.2533 34.598 39.995 35.3887 39.9978 36.2V43.8C39.998 44.7361 40.3458 45.6388 40.9737 46.3333H37.1081C37.3371 45.9502 37.4596 45.5129 37.463 45.0667V33.7002C37.4625 33.1249 37.2668 32.5667 36.9079 32.1169L35.2057 29.9933C35.0255 29.7681 34.9276 29.4882 34.9282 29.1998V25.2573C35.1202 25.147 35.2799 24.9882 35.3911 24.7967C35.5023 24.6053 35.5612 24.388 35.5619 24.1667V22.2667C35.5619 21.9307 35.4284 21.6085 35.1907 21.371C34.953 21.1335 34.6306 21 34.2945 21H29.8586C29.5225 21 29.2001 21.1335 28.9624 21.371C28.7247 21.6085 28.5912 21.9307 28.5912 22.2667V24.1667C28.5919 24.388 28.6508 24.6053 28.762 24.7967C28.8732 24.9882 29.0329 25.147 29.2249 25.2573V29.1998C29.2249 29.4873 29.127 29.7662 28.9473 29.9908L27.2459 32.1175C26.8866 32.5669 26.6906 33.125 26.6901 33.7002V45.0667C26.6925 45.5181 26.8169 45.9606 27.05 46.3473C25.3974 46.4212 23.8392 47.1385 22.7088 48.3457C21.5785 49.5529 20.9657 51.1543 21.0014 52.8073C21.0372 54.4603 21.7187 56.0337 22.9002 57.191C24.0817 58.3483 25.6695 58.9976 27.3238 59H52.6718C54.3265 58.9987 55.9149 58.3502 57.0973 57.1933C58.2797 56.0363 58.9621 54.4629 58.9984 52.8095C59.0348 51.1562 58.4222 49.5543 57.2918 48.3465C56.1614 47.1388 54.603 46.4212 52.9499 46.3473ZM52.6718 42.5333H41.2652V37.4667H52.6718V42.5333ZM42.5326 29.2333C42.5326 29.0654 42.5993 28.9043 42.7182 28.7855C42.837 28.6667 42.9982 28.6 43.1663 28.6H50.7707C50.9387 28.6 51.0999 28.6667 51.2188 28.7855C51.3376 28.9043 51.4044 29.0654 51.4044 29.2333C51.4044 29.4013 51.3376 29.5624 51.2188 29.6812C51.0999 29.7999 50.9387 29.8667 50.7707 29.8667H43.1663C42.9982 29.8667 42.837 29.7999 42.7182 29.6812C42.5993 29.5624 42.5326 29.4013 42.5326 29.2333ZM43.0465 33.7807C43.4421 33.6658 43.7904 33.4272 44.0401 33.0997C44.2898 32.7723 44.4278 32.3734 44.4337 31.9617V31.1333H49.5033V31.9617C49.5092 32.3734 49.6471 32.7723 49.8968 33.0997C50.1466 33.4272 50.4948 33.6658 50.8904 33.7807C51.4077 33.9397 51.8601 34.2607 52.1808 34.6964C52.5015 35.132 52.6737 35.6591 52.6718 36.2H41.2652C41.2633 35.6591 41.4354 35.132 41.7561 34.6964C42.0769 34.2607 42.5293 33.9397 43.0465 33.7807ZM41.2652 43.8H52.6718C52.6718 44.4719 52.4047 45.1162 51.9293 45.5913C51.454 46.0664 50.8092 46.3333 50.137 46.3333H43.8C43.1277 46.3333 42.483 46.0664 42.0076 45.5913C41.5322 45.1162 41.2652 44.4719 41.2652 43.8ZM27.9575 45.0667V43.8H36.1956V45.0667C36.1956 45.4026 36.0621 45.7248 35.8244 45.9623C35.5867 46.1999 35.2643 46.3333 34.9282 46.3333H29.2249C28.8888 46.3333 28.5664 46.1999 28.3287 45.9623C28.091 45.7248 27.9575 45.4026 27.9575 45.0667ZM36.1956 42.5333H27.9575V35.5667H36.1956V42.5333ZM29.8586 22.2667H34.2945V24.1667H29.8586V22.2667ZM28.2351 32.9067L29.9365 30.7799C30.296 30.3304 30.4919 29.7721 30.4923 29.1966V25.4333H33.6608V29.1998C33.6612 29.7751 33.8569 30.3333 34.2159 30.7831L35.918 32.9067C36.0982 33.1319 36.1961 33.4118 36.1956 33.7002V34.3H27.9575V33.7002C27.9569 33.4118 28.0548 33.1319 28.2351 32.9067ZM52.6718 57.7333H27.3238C25.9793 57.7333 24.6898 57.1995 23.7391 56.2493C22.7883 55.2992 22.2542 54.0104 22.2542 52.6667C22.2542 51.3229 22.7883 50.0342 23.7391 49.084C24.6898 48.1338 25.9793 47.6 27.3238 47.6H52.6718C54.0163 47.6 55.3058 48.1338 56.2565 49.084C57.2072 50.0342 57.7413 51.3229 57.7413 52.6667C57.7413 54.0104 57.2072 55.2992 56.2565 56.2493C55.3058 57.1995 54.0163 57.7333 52.6718 57.7333Z" fill="white" stroke="white" stroke-width="0.4"/>
<circle cx="28" cy="52.5" r="2.25" stroke="white" stroke-width="1.5"/>
<circle cx="52" cy="52.5" r="2.25" stroke="white" stroke-width="1.5"/>
<circle cx="40" cy="52.5" r="2.25" stroke="white" stroke-width="1.5"/>
</g>
<rect x="40" y="12" width="28" height="28" rx="14" fill="#3F4451"/>
<path d="M58.5126 20.064C57.1544 19.6667 55.7743 19.8874 54.5256 20.5718C54.3942 18.607 54.1094 16.3332 53.8247 15.5826C53.4742 14.6996 51.0864 14.8762 51.5464 15.7371C52.0064 16.5981 52.8608 18.6512 53.4303 20.5276C52.2036 19.8653 50.8454 19.6667 49.5091 20.0419C46.1356 21.0354 44.2517 25.3402 45.2813 29.6892C46.2889 34.0381 49.8377 36.7756 53.1894 35.8042C53.4742 35.7159 53.737 35.6055 53.9999 35.4731C54.2628 35.6055 54.5256 35.7159 54.8104 35.8042C58.1621 36.7756 61.7109 34.0381 62.7185 29.6892C63.7481 25.3402 61.8642 21.0354 58.5126 20.064Z" fill="#3BC069"/>
<path d="M55.6801 18.9855C56.5298 18.7887 58.2662 18.2638 59.1898 17.017C60.1503 15.7703 60.0395 14.1628 59.9287 13.3754C59.8917 13.1129 59.5962 12.9489 59.3006 13.0145C58.4509 13.2113 56.7145 13.7362 55.7909 14.983C54.8673 16.2297 54.9412 17.8373 55.0889 18.6246C55.1259 18.8871 55.4214 19.0511 55.6801 18.9855Z" fill="#3BC069"/>
<defs>
<clipPath id="clip0_1_221">
<rect width="40" height="40" fill="white" transform="translate(20 20)"/>
</clipPath>
</defs>
</svg>
