<svg width="80" height="80" viewBox="0 0 80 80" fill="none" xmlns="http://www.w3.org/2000/svg">
<rect width="80" height="80" rx="40"  fill="#3F4451"/>
<g clip-path="url(#clip0_1_2975)">
<path d="M59.4404 36.99C59.4021 36.9153 59.3469 36.8504 59.2792 36.8007C59.2115 36.7509 59.1332 36.7175 59.0504 36.7032L56.1471 36.1983L55.5769 28.0899C55.571 28.0061 55.5458 27.9248 55.5032 27.8524C55.4605 27.7801 55.4016 27.7186 55.3311 27.673C55.2606 27.6273 55.1804 27.5987 55.097 27.5894C55.0135 27.5801 54.929 27.5903 54.8502 27.6193L52.0842 28.6333L47.5351 21.8972C47.4881 21.8273 47.4254 21.7694 47.352 21.728C47.2787 21.6866 47.1967 21.6629 47.1126 21.6587C47.0285 21.6545 46.9446 21.6699 46.8675 21.7038C46.7904 21.7377 46.7222 21.789 46.6685 21.8538L44.7822 24.1141L37.4741 20.5547C37.3986 20.5179 37.3155 20.4992 37.2316 20.5C37.1476 20.5008 37.065 20.5212 36.9902 20.5594C36.9154 20.5977 36.8506 20.6528 36.8008 20.7204C36.7509 20.788 36.7175 20.8663 36.7032 20.949L36.1988 23.8523L28.0899 24.4243C28.0062 24.4303 27.925 24.4557 27.8527 24.4983C27.7804 24.541 27.7191 24.5999 27.6735 24.6704C27.6278 24.7408 27.5992 24.8209 27.5898 24.9043C27.5804 24.9877 27.5905 25.0722 27.6193 25.151L28.6337 27.917L21.8972 32.4648C21.8273 32.5118 21.7694 32.5745 21.728 32.6479C21.6866 32.7212 21.6629 32.8032 21.6587 32.8873C21.6545 32.9714 21.6699 33.0553 21.7038 33.1324C21.7377 33.2095 21.789 33.2776 21.8538 33.3314L24.1149 35.2195L20.5547 42.5258C20.5179 42.6013 20.4992 42.6843 20.5 42.7683C20.5008 42.8523 20.5212 42.9349 20.5594 43.0097C20.5977 43.0845 20.6528 43.1493 20.7204 43.1991C20.788 43.249 20.8663 43.2824 20.949 43.2967L23.8523 43.8016L24.4239 51.91C24.4298 51.9938 24.4551 52.075 24.4978 52.1473C24.5404 52.2196 24.5993 52.281 24.6698 52.3267C24.7403 52.3723 24.8204 52.4009 24.9038 52.4103C24.9873 52.4197 25.0718 52.4095 25.1506 52.3806L27.9165 51.3662L32.4665 58.1027C32.5136 58.1726 32.5762 58.2305 32.6496 58.2719C32.7229 58.3133 32.8049 58.337 32.889 58.3412C32.9731 58.3454 33.057 58.33 33.1341 58.2961C33.2112 58.2622 33.2794 58.2109 33.3332 58.1461L35.2212 55.885L42.5293 59.4443C42.6048 59.4811 42.6878 59.4998 42.7718 59.499C42.8558 59.4982 42.9384 59.4778 43.0132 59.4396C43.0879 59.4014 43.1528 59.3462 43.2026 59.2786C43.2524 59.211 43.2858 59.1327 43.3002 59.05L43.805 56.1467L51.9135 55.5751C51.9972 55.5692 52.0785 55.544 52.1508 55.5013C52.2231 55.4586 52.2845 55.3997 52.3301 55.3292C52.3758 55.2587 52.4044 55.1786 52.4138 55.0952C52.4231 55.0117 52.413 54.9273 52.3841 54.8484L51.3701 52.0825L58.1066 47.5325C58.1765 47.4855 58.2344 47.4228 58.2758 47.3494C58.3172 47.2761 58.3409 47.1941 58.3451 47.11C58.3493 47.0259 58.3339 46.942 58.3 46.8649C58.2661 46.7878 58.2148 46.7197 58.15 46.6659L55.8858 44.7822L59.4452 37.4741C59.482 37.3985 59.5007 37.3155 59.4998 37.2315C59.499 37.1475 59.4787 37.0648 59.4404 36.99ZM54.7262 44.689C54.6734 44.7979 54.6585 44.9213 54.6838 45.0396C54.7092 45.1579 54.7734 45.2644 54.8662 45.342L56.8998 47.0403L50.409 51.4238C50.3086 51.4915 50.2339 51.5909 50.1966 51.706C50.1594 51.8212 50.1618 51.9455 50.2036 52.0591L51.1157 54.5468L43.3024 55.0976C43.1816 55.1061 43.0672 55.1549 42.9774 55.236C42.8875 55.3171 42.8274 55.426 42.8066 55.5452L42.3529 58.1565L35.3109 54.7262C35.202 54.6733 35.0786 54.6583 34.9603 54.6837C34.8419 54.7091 34.7355 54.7733 34.6579 54.8662L32.9596 56.8998L28.5761 50.4085C28.5082 50.3084 28.4088 50.2339 28.2937 50.1967C28.1787 50.1594 28.0544 50.1617 27.9408 50.2031L25.4531 51.1131L24.9023 43.3002C24.8937 43.1795 24.8449 43.0651 24.7638 42.9753C24.6827 42.8854 24.5739 42.8253 24.4547 42.8045L21.8434 42.3529L25.2732 35.3109C25.3263 35.2021 25.3414 35.0786 25.316 34.9602C25.2906 34.8418 25.2263 34.7354 25.1333 34.6579L23.1001 32.9596L29.5914 28.5761C29.6915 28.5082 29.7661 28.4089 29.8034 28.2938C29.8406 28.1787 29.8382 28.0544 29.7968 27.9408L28.8842 25.4531L36.6975 24.9019C36.8183 24.8935 36.9327 24.8449 37.0226 24.7638C37.1124 24.6827 37.1725 24.5739 37.1933 24.4547L37.647 21.8434L44.689 25.2732C44.7978 25.3262 44.9213 25.3412 45.0397 25.3159C45.158 25.2905 45.2645 25.2262 45.342 25.1333L47.0403 23.1001L51.4238 29.5909C51.4915 29.6914 51.5909 29.7662 51.7062 29.8034C51.8214 29.8407 51.9459 29.8382 52.0595 29.7963L54.5468 28.8842L55.098 36.6975C55.1065 36.8183 55.1551 36.9326 55.2362 37.0225C55.3172 37.1123 55.426 37.1725 55.5452 37.1933L58.1565 37.647L54.7262 44.689ZM39.9999 30.1881C38.0593 30.1881 36.1623 30.7635 34.5488 31.8417C32.9352 32.9198 31.6776 34.4522 30.9349 36.2451C30.1923 38.038 29.998 40.0108 30.3766 41.9142C30.7552 43.8175 31.6897 45.5658 33.0619 46.938C34.4341 48.3102 36.1824 49.2447 38.0857 49.6233C39.9891 50.0019 41.9619 49.8076 43.7548 49.0649C45.5477 48.3223 47.0801 47.0647 48.1582 45.4511C49.2364 43.8376 49.8118 41.9406 49.8118 39.9999C49.809 37.3986 48.7743 34.9045 46.9348 33.0651C45.0954 31.2256 42.6013 30.1909 39.9999 30.1881ZM39.9999 48.7281C38.2736 48.7281 36.586 48.2161 35.1506 47.257C33.7152 46.2979 32.5964 44.9347 31.9358 43.3397C31.2751 41.7447 31.1023 39.9897 31.4391 38.2965C31.776 36.6033 32.6073 35.048 33.8281 33.8273C35.0488 32.6066 36.6042 31.7754 38.2974 31.4386C39.9906 31.1019 41.7456 31.2748 43.3405 31.9355C44.9355 32.5962 46.2986 33.715 47.2577 35.1505C48.2167 36.586 48.7286 38.2736 48.7285 39.9999C48.7259 42.3141 47.8054 44.5326 46.169 46.1689C44.5327 47.8052 42.3141 48.7256 39.9999 48.7281ZM39.9999 37.1833C39.443 37.1837 38.8986 37.3493 38.4357 37.659C37.9728 37.9688 37.6121 38.4089 37.3993 38.9236C37.1864 39.4383 37.1309 40.0045 37.2399 40.5508C37.3488 41.097 37.6172 41.5987 38.0112 41.9924C38.4052 42.3861 38.9071 42.6541 39.4534 42.7626C39.9997 42.8711 40.5659 42.8152 41.0805 42.602C41.595 42.3887 42.0348 42.0277 42.3442 41.5646C42.6536 41.1014 42.8188 40.5569 42.8188 39.9999C42.8174 39.253 42.5199 38.537 41.9915 38.009C41.4631 37.481 40.7469 37.1841 39.9999 37.1833ZM39.9999 41.7333C39.6572 41.7328 39.3223 41.6308 39.0376 41.4401C38.7528 41.2494 38.531 40.9785 38.4001 40.6618C38.2693 40.345 38.2352 39.9966 38.3024 39.6605C38.3695 39.3244 38.5347 39.0157 38.7772 38.7735C39.0197 38.5314 39.3286 38.3665 39.6648 38.2998C40.0009 38.2331 40.3493 38.2675 40.6659 38.3988C40.9825 38.53 41.2531 38.7522 41.4435 39.0372C41.6338 39.3222 41.7354 39.6572 41.7354 39.9999C41.7345 40.4597 41.5513 40.9004 41.226 41.2253C40.9006 41.5503 40.4597 41.7329 39.9999 41.7333ZM45.8833 37.2149C45.9137 37.2792 45.9313 37.3489 45.9348 37.4199C45.9384 37.4909 45.9279 37.562 45.904 37.629C45.8801 37.696 45.8432 37.7576 45.7955 37.8104C45.7478 37.8631 45.6901 37.906 45.6259 37.9364C45.5616 37.9669 45.4919 37.9844 45.4209 37.988C45.3499 37.9915 45.2788 37.9811 45.2118 37.9572C45.1448 37.9333 45.0832 37.8964 45.0304 37.8487C44.9777 37.801 44.9348 37.7433 44.9044 37.679C44.5711 36.9741 44.0897 36.3494 43.493 35.8474C42.8963 35.3455 42.1984 34.9782 41.4468 34.7705C41.312 34.7294 41.1984 34.6373 41.1304 34.5138C41.0623 34.3903 41.0451 34.2451 41.0824 34.1091C41.1197 33.9731 41.2086 33.8571 41.3301 33.7856C41.4517 33.714 41.5963 33.6928 41.7333 33.7262C42.6353 33.975 43.4729 34.4154 44.1891 35.0175C44.9054 35.6196 45.4832 36.3691 45.8833 37.2149ZM38.9309 45.8958C38.8995 46.0098 38.8316 46.1103 38.7378 46.1821C38.6439 46.2539 38.5291 46.2931 38.4109 46.2936C38.3621 46.2936 38.3136 46.2869 38.2666 46.2737C37.365 46.0247 36.5276 45.5842 35.8117 44.9821C35.0958 44.38 34.5182 43.6306 34.1184 42.785C34.0568 42.6551 34.0494 42.5062 34.0976 42.3709C34.1459 42.2356 34.2459 42.125 34.3758 42.0635C34.5056 42.0019 34.6545 41.9945 34.7898 42.0427C34.9251 42.091 35.0357 42.1911 35.0973 42.3209C35.4305 43.0258 35.9119 43.6505 36.5086 44.1525C37.1053 44.6544 37.8032 45.0217 38.5548 45.2294C38.693 45.268 38.8102 45.3599 38.8807 45.4848C38.9512 45.6098 38.9693 45.7576 38.9309 45.8958Z" fill="#FFFFFF" stroke="#FFFFFF"/>
</g>
<rect x="40" y="12" width="28" height="28" rx="14" fill="#3F4451"/>
<path d="M61.8024 32.2276L58.0366 27.5911H60.4278C61.1396 27.5911 61.5529 26.7566 61.0937 26.177L57.5116 21.8188H58.499C59.1649 21.8188 59.5323 21.0306 59.096 20.5205L54.7071 15.3477C54.3397 14.8841 53.6278 14.8841 53.2605 15.3477L48.8715 20.5205C48.4582 21.0306 48.8256 21.8188 49.4686 21.8188H50.4789L46.9197 26.2002C46.4605 26.7566 46.8509 27.6143 47.5856 27.6143H49.9769L46.1881 32.2276C45.7518 32.784 46.1192 33.5954 46.831 33.5954H51.9727V36.3973C51.9727 36.745 52.2482 37 52.5697 37H55.1808C55.5252 37 55.7778 36.7218 55.7778 36.3973V33.5954H61.1365C61.8713 33.5954 62.2617 32.784 61.8024 32.2276Z" fill="#3BC069"/>
<defs>
<clipPath id="clip0_1_2975">
<rect width="40" height="40" fill="white" transform="translate(20 20)"/>
</clipPath>
</defs>
</svg>
