<svg width="80" height="80" viewBox="0 0 80 80" fill="none" xmlns="http://www.w3.org/2000/svg">
<rect width="80" height="80" rx="40" fill="#F6F6F9"/>
<path fill-rule="evenodd" clip-rule="evenodd" d="M21 55.7996V37.0849C21 36.2404 21.3442 35.4309 21.9567 34.8341C22.5692 34.2373 23.4 33.902 24.2663 33.902H27.0092C27.2987 33.902 27.5333 34.1306 27.5333 34.4123V37.5797H36.9671V34.9912L35.5563 32.6849C35.5079 32.6061 35.4825 32.5156 35.4825 32.4238V31.0922H33.4667C33.1771 31.0922 32.9425 30.8636 32.9425 30.5819V27.7486H30.7967C30.5075 27.7486 30.2729 27.52 30.2729 27.2383V21.5107C30.2729 21.2286 30.5075 21 30.7967 21H44.1854C44.4746 21 44.7096 21.2286 44.7096 21.5107V27.2383C44.7096 27.52 44.4746 27.7486 44.1854 27.7486H42.0396V30.5819C42.0396 30.8636 41.805 31.0922 41.5154 31.0922H39.4996V32.4238C39.4996 32.5156 39.4742 32.6061 39.4258 32.6849L38.015 34.9912V37.5797H57.4583C57.7475 37.5797 57.9821 37.8083 57.9821 38.0905V58.4718C57.9821 58.7535 57.7475 58.9825 57.4583 58.9825H24.2663C23.4 58.9825 22.5692 58.6472 21.9567 58.05C21.3442 57.4532 21 56.6437 21 55.7996C21 56.0144 21 56.014 21 55.7996ZM22.0479 55.7996C22.0479 55.8975 22.0479 55.8975 22.0479 55.7996C22.0479 56.3729 22.2817 56.9226 22.6979 57.3281C23.1137 57.7333 23.6779 57.9611 24.2663 57.9611H56.9342V38.6012H38.0446C38.1208 39.0551 38.3413 39.4781 38.6796 39.8073C39.105 40.2218 39.6817 40.4549 40.2833 40.4549H46.9038C47.4596 40.4549 47.9921 40.67 48.385 41.0529C48.7779 41.4353 48.9988 41.9546 48.9988 42.4961V42.5022C48.9988 43.6162 48.0746 44.5203 46.9313 44.5256L32.0617 44.5894C31.4921 44.5918 31.0317 45.0424 31.0317 45.5974C31.0317 46.1605 31.5 46.6176 32.0783 46.6176H46.8738C47.4371 46.6176 47.9779 46.8356 48.3762 47.2242C48.775 47.6123 48.9988 48.1388 48.9988 48.6881C48.9988 49.2374 48.775 49.764 48.3762 50.1525C47.9779 50.5406 47.4371 50.7586 46.8738 50.7586H32.0688C31.4958 50.7586 31.0317 51.2113 31.0317 51.7695C31.0317 52.3277 31.4958 52.7804 32.0688 52.7804H36.6988C37.5783 52.7804 38.4217 53.1206 39.0438 53.7267C39.6658 54.3328 40.015 55.1545 40.015 56.0116V56.2836C40.015 56.5653 39.7804 56.7939 39.4913 56.7939C39.2017 56.7939 38.9671 56.5653 38.9671 56.2836V56.0116C38.9671 55.4253 38.7279 54.8634 38.3025 54.4489C37.8771 54.0344 37.3004 53.8014 36.6988 53.8014H32.0688C30.9171 53.8014 29.9833 52.8916 29.9833 51.7695C29.9833 50.6474 30.9171 49.7376 32.0688 49.7376H46.8738C47.1592 49.7376 47.4333 49.6271 47.635 49.4302C47.8371 49.2333 47.9504 48.9666 47.9504 48.6881C47.9504 48.41 47.8371 48.1429 47.635 47.946C47.4333 47.7495 47.1592 47.6387 46.8738 47.6387H32.0783C30.9213 47.6387 29.9833 46.7248 29.9833 45.5978C29.9833 44.4806 30.9104 43.5732 32.0571 43.5683L46.9267 43.5042C47.4929 43.5017 47.9504 43.0539 47.9504 42.5022V42.4961C47.9504 42.2253 47.8404 41.9659 47.6442 41.7747C47.4479 41.5835 47.1817 41.4759 46.9038 41.4759H40.2833C39.4038 41.4759 38.5604 41.1357 37.9383 40.5296C37.4033 40.0083 37.07 39.3271 36.9871 38.6012H27.5333V53.1271C27.5333 53.4092 27.2987 53.6378 27.0092 53.6378H24.2663C23.6779 53.6378 23.1137 53.8656 22.6979 54.2707C22.2825 54.6755 22.0483 55.2252 22.0479 55.798V55.7996ZM33.9908 27.7486V30.0712H40.9917V27.7486H33.9908ZM26.485 38.0905V34.923H24.2663C23.6779 34.923 23.1137 35.1508 22.6979 35.5563C22.2817 35.9615 22.0479 36.5112 22.0479 37.0849V53.4632C22.6504 52.92 23.4425 52.6164 24.2663 52.6164H25.0742H26.485V38.0905ZM41.5154 26.7275H43.6613V22.021H31.3208V26.7275H41.5154ZM36.5304 31.0922V32.2829L37.4913 33.8533L38.4517 32.2829V31.0922H36.5304Z" fill="#252525"/>
<path d="M21 55.7996V37.0849C21 36.2404 21.3442 35.4309 21.9567 34.8341C22.5692 34.2373 23.4 33.902 24.2663 33.902H27.0092C27.2988 33.902 27.5333 34.1306 27.5333 34.4123V37.5797H36.9671V34.9912L35.5563 32.6849C35.5079 32.6061 35.4825 32.5156 35.4825 32.4238V31.0922H33.4667C33.1771 31.0922 32.9425 30.8636 32.9425 30.5819V27.7486H30.7967C30.5075 27.7486 30.2729 27.52 30.2729 27.2383V21.5107C30.2729 21.2286 30.5075 21 30.7967 21H44.1854C44.4746 21 44.7096 21.2286 44.7096 21.5107V27.2383C44.7096 27.52 44.4746 27.7486 44.1854 27.7486H42.0396V30.5819C42.0396 30.8636 41.805 31.0922 41.5154 31.0922H39.4996V32.4238C39.4996 32.5156 39.4742 32.6061 39.4258 32.6849L38.015 34.9912V37.5797H57.4583C57.7475 37.5797 57.9821 37.8083 57.9821 38.0905V58.4718C57.9821 58.7535 57.7475 58.9825 57.4583 58.9825H24.2663C23.4 58.9825 22.5692 58.6472 21.9567 58.05C21.3442 57.4532 21 56.6437 21 55.7996ZM21 55.7996C21 56.014 21 56.0144 21 55.7996ZM22.0479 55.7996C22.0479 55.8975 22.0479 55.8975 22.0479 55.7996ZM22.0479 55.7996C22.0479 56.3729 22.2817 56.9226 22.6979 57.3281C23.1137 57.7333 23.6779 57.9611 24.2663 57.9611H56.9342V38.6012H38.0446C38.1208 39.0551 38.3413 39.4781 38.6796 39.8073C39.105 40.2218 39.6817 40.4549 40.2833 40.4549H46.9038C47.4596 40.4549 47.9921 40.67 48.385 41.0529C48.7779 41.4353 48.9988 41.9546 48.9988 42.4961V42.5022C48.9988 43.6162 48.0746 44.5203 46.9313 44.5256L32.0617 44.5894C31.4921 44.5918 31.0317 45.0424 31.0317 45.5974C31.0317 46.1605 31.5 46.6176 32.0783 46.6176H46.8738C47.4371 46.6176 47.9779 46.8356 48.3762 47.2242C48.775 47.6123 48.9988 48.1388 48.9988 48.6881C48.9988 49.2374 48.775 49.764 48.3762 50.1525C47.9779 50.5406 47.4371 50.7586 46.8738 50.7586H32.0688C31.4958 50.7586 31.0317 51.2113 31.0317 51.7695C31.0317 52.3277 31.4958 52.7804 32.0688 52.7804H36.6988C37.5783 52.7804 38.4217 53.1206 39.0438 53.7267C39.6658 54.3328 40.015 55.1545 40.015 56.0116V56.2836C40.015 56.5653 39.7804 56.7939 39.4913 56.7939C39.2017 56.7939 38.9671 56.5653 38.9671 56.2836V56.0116C38.9671 55.4253 38.7279 54.8634 38.3025 54.4489C37.8771 54.0344 37.3004 53.8014 36.6988 53.8014H32.0688C30.9171 53.8014 29.9833 52.8916 29.9833 51.7695C29.9833 50.6474 30.9171 49.7376 32.0688 49.7376H46.8738C47.1592 49.7376 47.4333 49.6271 47.635 49.4302C47.8371 49.2333 47.9504 48.9666 47.9504 48.6881C47.9504 48.41 47.8371 48.1429 47.635 47.946C47.4333 47.7495 47.1592 47.6387 46.8738 47.6387H32.0783C30.9213 47.6387 29.9833 46.7248 29.9833 45.5978C29.9833 44.4806 30.9104 43.5732 32.0571 43.5683L46.9267 43.5042C47.4929 43.5017 47.9504 43.0539 47.9504 42.5022V42.4961C47.9504 42.2253 47.8404 41.9659 47.6442 41.7747C47.4479 41.5835 47.1817 41.4759 46.9038 41.4759H40.2833C39.4038 41.4759 38.5604 41.1357 37.9383 40.5296C37.4033 40.0083 37.07 39.3271 36.9871 38.6012H27.5333V53.1271C27.5333 53.4092 27.2988 53.6378 27.0092 53.6378H24.2663C23.6779 53.6378 23.1137 53.8656 22.6979 54.2707C22.2825 54.6755 22.0483 55.2252 22.0479 55.798V55.7996ZM33.9908 27.7486V30.0712H40.9917V27.7486H33.9908ZM26.485 38.0905V34.923H24.2663C23.6779 34.923 23.1137 35.1508 22.6979 35.5563C22.2817 35.9615 22.0479 36.5112 22.0479 37.0849V53.4632C22.6504 52.92 23.4425 52.6164 24.2663 52.6164H25.0742H26.485V38.0905ZM41.5154 26.7275H43.6613V22.021H31.3208V26.7275H41.5154ZM36.5304 31.0922V32.2829L37.4913 33.8533L38.4517 32.2829V31.0922H36.5304Z" stroke="#252525" stroke-width="0.6"/>
<rect x="40" y="12" width="28" height="28" rx="14" fill="#F6F6F9"/>
<path d="M61.2346 24.5582L54.5425 15.2697C54.4825 15.1866 54.4019 15.1186 54.3077 15.0716C54.2136 15.0246 54.1087 15 54.0022 15C53.8958 15 53.7909 15.0246 53.6967 15.0716C53.6026 15.1186 53.522 15.1866 53.462 15.2697L46.7672 24.5582C46.753 24.5773 46.7399 24.5971 46.728 24.6175C46.0688 25.801 45.7443 27.1253 45.7858 28.4621C45.8273 29.799 46.2334 31.103 46.9648 32.248C47.6963 33.3929 48.7282 34.3399 49.9607 34.9972C51.1932 35.6546 52.5844 36 53.9996 36C55.4148 36 56.8061 35.6546 58.0386 34.9972C59.271 34.3399 60.303 33.3929 61.0344 32.248C61.7658 31.103 62.172 29.799 62.2135 28.4621C62.255 27.1253 61.9304 25.801 61.2713 24.6175C61.2602 24.5971 61.248 24.5773 61.2346 24.5582ZM51.5967 32.2076C50.5434 31.6405 49.7704 30.7026 49.4464 29.5988C49.1224 28.4949 49.2737 27.3148 49.8674 26.316C50.4996 25 52.3767 25.6844 51.4996 27C50.4996 28.5 51.1966 30.0328 52.9996 31C53.6678 31.3582 53.1691 33.0542 51.5967 32.2076Z" fill="#048159"/>
</svg>
