<svg width="80" height="80" viewBox="0 0 80 80" fill="none" xmlns="http://www.w3.org/2000/svg">
<rect width="80" height="80" rx="40" fill="#F6F6F9"/>
<g clip-path="url(#clip0_1_5097)">
<path d="M52.95 46.3473C53.5862 45.6513 53.939 44.7427 53.9392 43.8V36.2C53.942 35.3887 53.6837 34.598 53.2025 33.9446C52.7214 33.2912 52.0428 32.8096 51.2669 32.571C51.1294 32.5366 51.0068 32.4587 50.9174 32.3489C50.8279 32.2391 50.7765 32.1032 50.7707 31.9617V31.1333C51.2749 31.1333 51.7585 30.9332 52.115 30.5768C52.4715 30.2205 52.6718 29.7372 52.6718 29.2333C52.6718 28.7294 52.4715 28.2461 52.115 27.8898C51.7585 27.5335 51.2749 27.3333 50.7707 27.3333H43.1663C42.6621 27.3333 42.1786 27.5335 41.8221 27.8898C41.4655 28.2461 41.2652 28.7294 41.2652 29.2333C41.2652 29.7372 41.4655 30.2205 41.8221 30.5768C42.1786 30.9332 42.6621 31.1333 43.1663 31.1333V31.9617C43.1606 32.1032 43.1091 32.2391 43.0197 32.3489C42.9302 32.4587 42.8076 32.5366 42.6701 32.571C41.8943 32.8096 41.2157 33.2912 40.7345 33.9446C40.2534 34.598 39.9951 35.3887 39.9978 36.2V43.8C39.9981 44.7361 40.3458 45.6388 40.9737 46.3333H37.1082C37.3371 45.9502 37.4596 45.5129 37.463 45.0667V33.7002C37.4626 33.1249 37.2669 32.5667 36.9079 32.1169L35.2058 29.9933C35.0256 29.7681 34.9277 29.4882 34.9282 29.1998V25.2573C35.1203 25.147 35.2799 24.9882 35.3911 24.7967C35.5024 24.6053 35.5613 24.388 35.5619 24.1667V22.2667C35.5619 21.9307 35.4284 21.6085 35.1907 21.371C34.953 21.1335 34.6307 21 34.2945 21H29.8587C29.5225 21 29.2002 21.1335 28.9625 21.371C28.7248 21.6085 28.5913 21.9307 28.5913 22.2667V24.1667C28.5919 24.388 28.6508 24.6053 28.7621 24.7967C28.8733 24.9882 29.0329 25.147 29.225 25.2573V29.1998C29.2249 29.4873 29.1271 29.7662 28.9474 29.9908L27.2459 32.1175C26.8866 32.5669 26.6907 33.125 26.6902 33.7002V45.0667C26.6926 45.5181 26.8169 45.9606 27.0501 46.3473C25.3974 46.4212 23.8393 47.1385 22.7089 48.3457C21.5785 49.5529 20.9657 51.1543 21.0015 52.8073C21.0372 54.4603 21.7188 56.0337 22.9003 57.191C24.0818 58.3483 25.6695 58.9976 27.3239 59H52.6718C54.3265 58.9987 55.915 58.3502 57.0974 57.1933C58.2798 56.0363 58.9621 54.4629 58.9985 52.8095C59.0348 51.1562 58.4223 49.5543 57.2919 48.3465C56.1615 47.1388 54.6031 46.4212 52.95 46.3473ZM52.6718 42.5333H41.2652V37.4667H52.6718V42.5333ZM42.5326 29.2333C42.5326 29.0654 42.5994 28.9043 42.7182 28.7855C42.8371 28.6667 42.9983 28.6 43.1663 28.6H50.7707C50.9388 28.6 51.1 28.6667 51.2188 28.7855C51.3377 28.9043 51.4044 29.0654 51.4044 29.2333C51.4044 29.4013 51.3377 29.5624 51.2188 29.6812C51.1 29.7999 50.9388 29.8667 50.7707 29.8667H43.1663C42.9983 29.8667 42.8371 29.7999 42.7182 29.6812C42.5994 29.5624 42.5326 29.4013 42.5326 29.2333ZM43.0466 33.7807C43.4422 33.6658 43.7904 33.4272 44.0401 33.0997C44.2899 32.7723 44.4278 32.3734 44.4337 31.9617V31.1333H49.5033V31.9617C49.5092 32.3734 49.6472 32.7723 49.8969 33.0997C50.1466 33.4272 50.4949 33.6658 50.8905 33.7807C51.4077 33.9397 51.8601 34.2607 52.1809 34.6964C52.5016 35.132 52.6737 35.6591 52.6718 36.2H41.2652C41.2633 35.6591 41.4354 35.132 41.7562 34.6964C42.0769 34.2607 42.5293 33.9397 43.0466 33.7807ZM41.2652 43.8H52.6718C52.6718 44.4719 52.4048 45.1162 51.9294 45.5913C51.454 46.0664 50.8093 46.3333 50.137 46.3333H43.8C43.1278 46.3333 42.483 46.0664 42.0077 45.5913C41.5323 45.1162 41.2652 44.4719 41.2652 43.8ZM27.9576 45.0667V43.8H36.1956V45.0667C36.1956 45.4026 36.0621 45.7248 35.8244 45.9623C35.5867 46.1999 35.2644 46.3333 34.9282 46.3333H29.225C28.8888 46.3333 28.5665 46.1999 28.3288 45.9623C28.0911 45.7248 27.9576 45.4026 27.9576 45.0667ZM36.1956 42.5333H27.9576V35.5667H36.1956V42.5333ZM29.8587 22.2667H34.2945V24.1667H29.8587V22.2667ZM28.2351 32.9067L29.9366 30.7799C30.296 30.3304 30.492 29.7721 30.4924 29.1966V25.4333H33.6608V29.1998C33.6613 29.7751 33.857 30.3333 34.216 30.7831L35.9181 32.9067C36.0983 33.1319 36.1962 33.4118 36.1956 33.7002V34.3H27.9576V33.7002C27.957 33.4118 28.0549 33.1319 28.2351 32.9067ZM52.6718 57.7333H27.3239C25.9793 57.7333 24.6898 57.1995 23.7391 56.2493C22.7884 55.2992 22.2543 54.0104 22.2543 52.6667C22.2543 51.3229 22.7884 50.0342 23.7391 49.084C24.6898 48.1338 25.9793 47.6 27.3239 47.6H52.6718C54.0164 47.6 55.3058 48.1338 56.2566 49.084C57.2073 50.0342 57.7414 51.3229 57.7414 52.6667C57.7414 54.0104 57.2073 55.2992 56.2566 56.2493C55.3058 57.1995 54.0164 57.7333 52.6718 57.7333Z" fill="#252525" stroke="#252525" stroke-width="0.4"/>
<circle cx="28" cy="52.5" r="2.25" stroke="#252525" stroke-width="1.5"/>
<circle cx="52" cy="52.5" r="2.25" stroke="#252525" stroke-width="1.5"/>
<circle cx="40" cy="52.5" r="2.25" stroke="#252525" stroke-width="1.5"/>
</g>
<rect x="40" y="12" width="28" height="28" rx="14" fill="#F6F6F9"/>
<path d="M58.5126 20.064C57.1544 19.6667 55.7743 19.8874 54.5257 20.5718C54.3942 18.607 54.1095 16.3332 53.8247 15.5826C53.4742 14.6996 51.0864 14.8762 51.5464 15.7371C52.0065 16.5981 52.8608 18.6512 53.4304 20.5276C52.2036 19.8653 50.8454 19.6667 49.5092 20.0419C46.1356 21.0354 44.2517 25.3402 45.2813 29.6892C46.289 34.0381 49.8378 36.7756 53.1894 35.8042C53.4742 35.7159 53.7371 35.6055 53.9999 35.4731C54.2628 35.6055 54.5257 35.7159 54.8105 35.8042C58.1621 36.7756 61.7109 34.0381 62.7186 29.6892C63.7482 25.3402 61.8642 21.0354 58.5126 20.064Z" fill="#048159"/>
<path d="M55.6801 18.9855C56.5298 18.7887 58.2662 18.2638 59.1898 17.017C60.1504 15.7703 60.0395 14.1628 59.9287 13.3754C59.8918 13.1129 59.5962 12.9489 59.3006 13.0145C58.4509 13.2113 56.7145 13.7362 55.7909 14.983C54.8673 16.2297 54.9412 17.8373 55.089 18.6246C55.1259 18.8871 55.4215 19.0511 55.6801 18.9855Z" fill="#048159"/>
<defs>
<clipPath id="clip0_1_5097">
<rect width="40" height="40" fill="white" transform="translate(20 20)"/>
</clipPath>
</defs>
</svg>
