<svg width="80" height="80" viewBox="0 0 80 80" fill="none" xmlns="http://www.w3.org/2000/svg">
<rect width="80" height="80" rx="40" fill="#F6F6F9"/>
<path d="M57.7456 44.727C57.591 44.3603 57.3914 44.0171 57.1101 43.7319L53.1875 39.8094C52.9024 39.5281 52.5592 39.3279 52.1925 39.1739C51.8243 39.0241 51.4398 38.9223 51.0395 38.9199H50.8395C50.4419 38.9199 50.1195 39.2423 50.1195 39.6399C50.1195 40.0376 50.4419 40.3599 50.8395 40.3599H51.0395C51.1667 40.3571 51.4154 40.4089 51.6414 40.5044C51.869 40.5961 52.0811 40.7358 52.1694 40.8275L55.6 44.258H24.399L27.8296 40.8275C27.9179 40.7358 28.1296 40.5961 28.3576 40.5044C28.5837 40.4084 28.8318 40.3571 28.9595 40.3599H29.1595C29.5572 40.3599 29.8795 40.0376 29.8795 39.6399C29.8795 39.2423 29.5572 38.9199 29.1595 38.9199H28.9595C28.5587 38.9223 28.1747 39.0241 27.8066 39.1739C27.4398 39.3279 27.0966 39.5281 26.812 39.8094L22.8894 43.7319C22.6082 44.0171 22.408 44.3603 22.2539 44.727C22.1037 45.0951 22.0029 45.4791 22 45.8799V54.9999C22.0029 55.9292 22.7507 56.6771 23.68 56.6799H56.32C57.2488 56.6771 57.9971 55.9292 58 54.9999V45.8799C57.9966 45.4791 57.8954 45.0951 57.7456 44.727ZM56.5595 54.9999C56.5595 55.0652 56.5341 55.1219 56.4885 55.1689C56.4414 55.2145 56.3848 55.2399 56.3195 55.2399H23.6795C23.6138 55.2399 23.5576 55.2145 23.5106 55.1689C23.465 55.1219 23.4395 55.0652 23.4395 54.9999V45.8799C23.4386 45.8339 23.4472 45.7695 23.4597 45.6985H56.5394C56.5518 45.7691 56.5605 45.8339 56.5595 45.8799V54.9999Z" fill="#252525" stroke="#252525" stroke-width="0.3"/>
<path d="M28.4798 34.56C28.0823 34.56 27.7598 34.8821 27.7598 35.28C27.7598 35.6774 28.0823 36 28.4798 36H32.0798V41.5605C32.0798 41.9579 32.4023 42.2805 32.7998 42.2805C33.1972 42.2805 33.5198 41.9579 33.5198 41.5605V36H39.2798V41.5605C39.2798 41.9579 39.6023 42.2805 39.9998 42.2805C40.3972 42.2805 40.7198 41.9579 40.7198 41.5605V36H46.4798V41.5605C46.4798 41.9579 46.8023 42.2805 47.1998 42.2805C47.5972 42.2805 47.9198 41.9579 47.9198 41.5605V36H51.5198C51.9172 36 52.2398 35.6774 52.2398 35.28C52.2398 34.8821 51.9172 34.56 51.5198 34.56H47.9198V28.76H51.5198C51.9172 28.76 52.2398 28.4374 52.2398 28.04C52.2398 27.6421 51.9172 27.32 51.5198 27.32H47.9198V22.72C47.9198 22.3221 47.5972 22 47.1998 22C46.8023 22 46.4798 22.3221 46.4798 22.72V27.32H40.7198V22.72C40.7198 22.3221 40.3972 22 39.9998 22C39.6023 22 39.2798 22.3221 39.2798 22.72V27.32H33.5198V22.72C33.5198 22.3221 33.1972 22 32.7998 22C32.4023 22 32.0798 22.3221 32.0798 22.72V27.32H28.4798C28.0823 27.32 27.7598 27.6421 27.7598 28.04C27.7598 28.4374 28.0823 28.76 28.4798 28.76H32.0798V34.56H28.4798ZM46.4798 28.76V34.56H40.7198V28.76H46.4798ZM33.5198 28.76H39.2798V34.56H33.5198V28.76Z" fill="#252525" stroke="#252525" stroke-width="0.3"/>
<rect x="40" y="12" width="28" height="28" rx="14" fill="#F6F6F9"/>
<path fill-rule="evenodd" clip-rule="evenodd" d="M56.1564 16.0042C55.4426 14.6653 53.5574 14.6653 52.8436 16.0042L44.2315 32.1602C43.5488 33.4409 44.4581 35 45.8878 35H63.1122C64.5419 35 65.4512 33.4409 64.7685 32.1602L56.1564 16.0042ZM54.9564 19.7617C55.4607 19.7617 55.8695 19.3353 55.8695 18.8093C55.8695 18.2834 55.4607 17.857 54.9564 17.857C54.4522 17.857 54.0434 18.2834 54.0434 18.8093C54.0434 19.3353 54.4522 19.7617 54.9564 19.7617ZM54.0434 26.4284C54.0434 26.9543 53.6346 27.3807 53.1303 27.3807C52.6261 27.3807 52.2173 26.9543 52.2173 26.4284C52.2173 25.9024 52.6261 25.476 53.1303 25.476C53.6346 25.476 54.0434 25.9024 54.0434 26.4284ZM60.4345 30.238C60.9388 30.238 61.3476 29.8116 61.3476 29.2856C61.3476 28.7596 60.9388 28.3332 60.4345 28.3332C59.9303 28.3332 59.5215 28.7596 59.5215 29.2856C59.5215 29.8116 59.9303 30.238 60.4345 30.238ZM48.5651 33.0954C49.0694 33.0954 49.4782 32.669 49.4782 32.143C49.4782 31.6171 49.0694 31.1907 48.5651 31.1907C48.0609 31.1907 47.6521 31.6171 47.6521 32.143C47.6521 32.669 48.0609 33.0954 48.5651 33.0954ZM57.6955 32.143C57.6955 32.669 57.2867 33.0954 56.7824 33.0954C56.2782 33.0954 55.8694 32.669 55.8694 32.143C55.8694 31.6171 56.2782 31.1907 56.7824 31.1907C57.2867 31.1907 57.6955 31.6171 57.6955 32.143ZM49.2498 28.8096C49.628 28.8096 49.9346 28.4898 49.9346 28.0953C49.9346 27.7008 49.628 27.381 49.2498 27.381C48.8717 27.381 48.5651 27.7008 48.5651 28.0953C48.5651 28.4898 48.8717 28.8096 49.2498 28.8096ZM53.1303 30.7144C53.1303 30.9774 52.9259 31.1906 52.6738 31.1906C52.4217 31.1906 52.2173 30.9774 52.2173 30.7144C52.2173 30.4515 52.4217 30.2383 52.6738 30.2383C52.9259 30.2383 53.1303 30.4515 53.1303 30.7144ZM61.1195 33.5716C61.4977 33.5716 61.8043 33.2518 61.8043 32.8574C61.8043 32.4629 61.4977 32.1431 61.1195 32.1431C60.7413 32.1431 60.4347 32.4629 60.4347 32.8574C60.4347 33.2518 60.7413 33.5716 61.1195 33.5716ZM57.6955 26.9048C57.6955 27.1678 57.4911 27.381 57.239 27.381C56.9869 27.381 56.7825 27.1678 56.7825 26.9048C56.7825 26.6418 56.9869 26.4286 57.239 26.4286C57.4911 26.4286 57.6955 26.6418 57.6955 26.9048ZM52.6738 22.6192C52.9259 22.6192 53.1303 22.406 53.1303 22.1431C53.1303 21.8801 52.9259 21.6669 52.6738 21.6669C52.4217 21.6669 52.2173 21.8801 52.2173 22.1431C52.2173 22.406 52.4217 22.6192 52.6738 22.6192ZM57.2389 23.3333C57.2389 23.7278 56.9324 24.0476 56.5542 24.0476C56.176 24.0476 55.8694 23.7278 55.8694 23.3333C55.8694 22.9388 56.176 22.619 56.5542 22.619C56.9324 22.619 57.2389 22.9388 57.2389 23.3333Z" fill="#048159"/>
</svg>
