<svg width="80" height="80" viewBox="0 0 80 80" fill="none" xmlns="http://www.w3.org/2000/svg">
<rect width="80" height="80" rx="40" fill="#F6F6F9"/>
<path d="M55.1686 22H24.8313C24.0806 22.0008 23.3609 22.2994 22.8302 22.8302C22.2994 23.3609 22.0008 24.0806 22 24.8313V55.1686C22.0008 55.9193 22.2994 56.639 22.8302 57.1698C23.3609 57.7006 24.0806 57.9991 24.8313 57.9999H55.1686C55.9193 57.9991 56.639 57.7006 57.1698 57.1698C57.7006 56.639 57.9991 55.9193 57.9999 55.1686V24.8313C57.9991 24.0806 57.7006 23.3609 57.1698 22.8302C56.639 22.2994 55.9193 22.0008 55.1686 22ZM56.3823 55.1686C56.3819 55.4904 56.2539 55.7989 56.0264 56.0264C55.7989 56.2539 55.4904 56.3819 55.1686 56.3823H24.8313C24.5095 56.3819 24.2011 56.2539 23.9735 56.0264C23.746 55.7989 23.618 55.4904 23.6176 55.1686V24.8313C23.618 24.5095 23.746 24.2011 23.9735 23.9735C24.2011 23.746 24.5095 23.618 24.8313 23.6176H55.1686C55.4904 23.618 55.7989 23.746 56.0264 23.9735C56.2539 24.2011 56.3819 24.5095 56.3823 24.8313V55.1686Z" fill="#252525" stroke="#252525" stroke-width="0.4"/>
<path d="M29.3819 26.045C28.7219 26.045 28.0767 26.2407 27.528 26.6074C26.9792 26.9741 26.5515 27.4952 26.2989 28.105C26.0464 28.7147 25.9803 29.3857 26.109 30.033C26.2378 30.6803 26.5556 31.2748 27.0223 31.7415C27.489 32.2082 28.0835 32.526 28.7308 32.6548C29.3781 32.7835 30.0491 32.7174 30.6588 32.4649C31.2686 32.2123 31.7897 31.7846 32.1564 31.2359C32.523 30.6871 32.7188 30.0419 32.7188 29.382C32.7179 28.4972 32.366 27.649 31.7404 27.0234C31.1148 26.3978 30.2666 26.0459 29.3819 26.045ZM29.3819 31.1013C29.0418 31.1013 28.7094 31.0004 28.4266 30.8115C28.1439 30.6226 27.9235 30.3541 27.7934 30.0399C27.6633 29.7257 27.6292 29.38 27.6956 29.0465C27.7619 28.713 27.9256 28.4067 28.1661 28.1662C28.4065 27.9258 28.7129 27.762 29.0464 27.6957C29.3799 27.6293 29.7256 27.6634 30.0398 27.7935C30.354 27.9236 30.6225 28.144 30.8114 28.4268C31.0003 28.7095 31.1012 29.0419 31.1012 29.382C31.1006 29.8378 30.9193 30.2748 30.597 30.5971C30.2747 30.9195 29.8377 31.1008 29.3819 31.1013Z" fill="#252525" stroke="#252525" stroke-width="0.4"/>
<path d="M50.6182 47.281C49.9582 47.281 49.313 47.4767 48.7643 47.8433C48.2155 48.21 47.7878 48.7312 47.5353 49.3409C47.2827 49.9507 47.2166 50.6216 47.3454 51.2689C47.4741 51.9162 47.7919 52.5108 48.2586 52.9775C48.7253 53.4441 49.3199 53.7619 49.9672 53.8907C50.6145 54.0194 51.2854 53.9534 51.8952 53.7008C52.5049 53.4482 53.0261 53.0205 53.3927 52.4718C53.7594 51.923 53.9551 51.2779 53.9551 50.6179C53.9542 49.7332 53.6023 48.8849 52.9767 48.2593C52.3511 47.6337 51.5029 47.2819 50.6182 47.281ZM50.6182 52.3372C50.2781 52.3372 49.9457 52.2364 49.663 52.0474C49.3802 51.8585 49.1599 51.59 49.0297 51.2758C48.8996 50.9617 48.8655 50.616 48.9319 50.2825C48.9982 49.9489 49.162 49.6426 49.4024 49.4021C49.6429 49.1617 49.9492 48.9979 50.2827 48.9316C50.6163 48.8653 50.962 48.8993 51.2761 49.0294C51.5903 49.1596 51.8588 49.3799 52.0477 49.6627C52.2367 49.9454 52.3375 50.2778 52.3375 50.6179C52.337 51.0737 52.1557 51.5107 51.8333 51.8331C51.511 52.1554 51.074 52.3367 50.6182 52.3372Z" fill="#252525" stroke="#252525" stroke-width="0.4"/>
<path d="M50.6182 26.045C49.9582 26.045 49.313 26.2408 48.7643 26.6074C48.2155 26.9741 47.7878 27.4952 47.5353 28.105C47.2827 28.7147 47.2166 29.3857 47.3454 30.033C47.4741 30.6803 47.7919 31.2748 48.2586 31.7415C48.7253 32.2082 49.3199 32.526 49.9672 32.6548C50.6145 32.7835 51.2854 32.7174 51.8952 32.4649C52.5049 32.2123 53.026 31.7846 53.3927 31.2359C53.7594 30.6871 53.9551 30.0419 53.9551 29.382C53.9542 28.4972 53.6023 27.649 52.9767 27.0234C52.3511 26.3978 51.5029 26.0459 50.6182 26.045ZM50.6182 31.1013C50.2781 31.1013 49.9457 31.0004 49.663 30.8115C49.3802 30.6226 49.1599 30.3541 49.0297 30.0399C48.8996 29.7257 48.8655 29.38 48.9319 29.0465C48.9982 28.713 49.162 28.4067 49.4024 28.1662C49.6429 27.9258 49.9492 27.762 50.2828 27.6957C50.6163 27.6293 50.962 27.6634 51.2761 27.7935C51.5903 27.9236 51.8588 28.144 52.0477 28.4268C52.2367 28.7095 52.3375 29.0419 52.3375 29.382C52.337 29.8378 52.1557 30.2748 51.8333 30.5971C51.511 30.9195 51.074 31.1008 50.6182 31.1013Z" fill="#252525" stroke="#252525" stroke-width="0.4"/>
<path d="M29.3819 47.281C28.7219 47.281 28.0767 47.4767 27.528 47.8433C26.9792 48.21 26.5515 48.7312 26.2989 49.3409C26.0464 49.9506 25.9803 50.6216 26.109 51.2689C26.2378 51.9162 26.5556 52.5108 27.0223 52.9774C27.489 53.4441 28.0835 53.7619 28.7308 53.8907C29.3781 54.0194 30.0491 53.9534 30.6588 53.7008C31.2686 53.4482 31.7897 53.0205 32.1564 52.4718C32.5231 51.923 32.7188 51.2779 32.7188 50.6179C32.7179 49.7332 32.366 48.8849 31.7404 48.2593C31.1148 47.6337 30.2666 47.2819 29.3819 47.281ZM29.3819 52.3372C29.0418 52.3372 28.7094 52.2364 28.4266 52.0474C28.1439 51.8585 27.9235 51.59 27.7934 51.2758C27.6633 50.9617 27.6292 50.616 27.6956 50.2825C27.7619 49.9489 27.9256 49.6426 28.1661 49.4021C28.4065 49.1617 28.7129 48.9979 29.0464 48.9316C29.3799 48.8653 29.7256 48.8993 30.0398 49.0294C30.354 49.1596 30.6225 49.3799 30.8114 49.6627C31.0003 49.9454 31.1012 50.2778 31.1012 50.6179C31.1006 51.0737 30.9193 51.5107 30.597 51.8331C30.2747 52.1554 29.8377 52.3367 29.3819 52.3372Z" fill="#252525" stroke="#252525" stroke-width="0.4"/>
<path d="M45.4954 33.3601L33.3605 45.4951C33.2096 45.647 33.1251 45.8526 33.1255 46.0667C33.1259 46.2809 33.2111 46.4861 33.3625 46.6376C33.514 46.789 33.7192 46.8742 33.9334 46.8746C34.1475 46.875 34.3531 46.7905 34.505 46.6396L46.64 34.5047C46.7156 34.4297 46.7756 34.3404 46.8166 34.2421C46.8577 34.1438 46.8789 34.0383 46.8791 33.9318C46.8793 33.8253 46.8585 33.7198 46.8178 33.6213C46.7771 33.5228 46.7174 33.4334 46.6421 33.3581C46.5667 33.2827 46.4773 33.223 46.3788 33.1823C46.2803 33.1416 46.1748 33.1208 46.0683 33.121C45.9618 33.1212 45.8563 33.1424 45.758 33.1835C45.6597 33.2245 45.5704 33.2845 45.4954 33.3601Z" fill="#252525" stroke="#252525" stroke-width="0.4"/>
<path d="M45.4949 39.4277L39.4275 45.4952C39.3523 45.5703 39.2927 45.6595 39.252 45.7577C39.2114 45.8559 39.1904 45.9612 39.1904 46.0674C39.1904 46.1737 39.2114 46.279 39.252 46.3772C39.2927 46.4753 39.3523 46.5646 39.4275 46.6397C39.5793 46.7915 39.7851 46.8768 39.9998 46.8768C40.106 46.8768 40.2113 46.8558 40.3095 46.8152C40.4077 46.7745 40.4969 46.7149 40.572 46.6397L46.6395 40.5723C46.7147 40.4971 46.7743 40.4079 46.815 40.3097C46.8556 40.2115 46.8766 40.1063 46.8766 40C46.8766 39.8937 46.8556 39.7884 46.8149 39.6903C46.7743 39.5921 46.7147 39.5028 46.6395 39.4277C46.5644 39.3525 46.4751 39.2929 46.3769 39.2522C46.2787 39.2116 46.1735 39.1906 46.0672 39.1906C45.9609 39.1906 45.8557 39.2116 45.7575 39.2523C45.6593 39.2929 45.5701 39.3525 45.4949 39.4277Z" fill="#252525" stroke="#252525" stroke-width="0.4"/>
<path d="M33.9326 40.8087C34.0388 40.8088 34.1441 40.7879 34.2423 40.7474C34.3405 40.7068 34.4297 40.6472 34.5049 40.5722L40.5723 34.5047C40.7241 34.3529 40.8094 34.1471 40.8094 33.9324C40.8094 33.7178 40.7241 33.5119 40.5723 33.3601C40.4206 33.2083 40.2147 33.1231 40.0001 33.1231C39.7854 33.1231 39.5796 33.2083 39.4278 33.3601L33.3603 39.4276C33.247 39.5407 33.1699 39.6849 33.1386 39.8419C33.1074 39.9989 33.1234 40.1616 33.1847 40.3095C33.2459 40.4574 33.3497 40.5837 33.4829 40.6726C33.616 40.7615 33.7725 40.8088 33.9326 40.8087Z" fill="#252525" stroke="#252525" stroke-width="0.4"/>
<rect x="40" y="12" width="28" height="28" rx="14" fill="#F6F6F9"/>
<path d="M56.096 23.997C55.676 23.5766 55.088 23.3243 54.5 23.3243C53.912 23.3243 53.324 23.5766 52.904 23.997C52.484 24.4174 52.232 25.006 52.232 25.5946C52.232 26.1832 52.484 26.7718 52.904 27.1081C53.744 27.9489 55.172 27.9489 56.012 27.1081C56.432 26.6877 56.684 26.1832 56.684 25.5946C56.684 25.006 56.516 24.4174 56.096 23.997ZM56.096 23.997C55.676 23.5766 55.088 23.3243 54.5 23.3243C53.912 23.3243 53.324 23.5766 52.904 23.997C52.484 24.4174 52.232 25.006 52.232 25.5946C52.232 26.1832 52.484 26.7718 52.904 27.1081C53.744 27.9489 55.172 27.9489 56.012 27.1081C56.432 26.6877 56.684 26.1832 56.684 25.5946C56.684 25.006 56.516 24.4174 56.096 23.997ZM61.892 18.1111C59.876 16.0931 57.188 15 54.5 15C51.812 15 49.124 16.009 47.108 18.1111C45.092 20.1291 44 22.7357 44 25.5105C44 28.2853 45.092 30.976 47.108 32.9099C51.224 37.03 57.86 37.03 61.976 32.9099C63.908 30.8919 65 28.2853 65 25.5105C65 22.7357 63.908 20.1291 61.892 18.1111ZM57.272 28.2853C56.516 29.042 55.592 29.3784 54.5 29.3784C53.492 29.3784 52.484 28.958 51.728 28.2853C50.972 27.5285 50.552 26.6036 50.552 25.5105C50.552 24.5015 50.972 23.4925 51.728 22.7357C52.484 21.979 53.408 21.5586 54.5 21.5586C55.508 21.5586 56.516 21.979 57.272 22.7357C58.028 23.4925 58.364 24.4174 58.364 25.5105C58.364 26.6036 58.028 27.5285 57.272 28.2853ZM54.5 23.3243C53.912 23.3243 53.324 23.5766 52.904 23.997C52.484 24.4174 52.232 25.006 52.232 25.5946C52.232 26.1832 52.484 26.7718 52.904 27.1081C53.744 27.9489 55.172 27.9489 56.012 27.1081C56.432 26.6877 56.684 26.1832 56.684 25.5946C56.684 25.006 56.432 24.4174 56.012 23.997C55.676 23.5766 55.088 23.3243 54.5 23.3243ZM56.096 23.997C55.676 23.5766 55.088 23.3243 54.5 23.3243C53.912 23.3243 53.324 23.5766 52.904 23.997C52.484 24.4174 52.232 25.006 52.232 25.5946C52.232 26.1832 52.484 26.7718 52.904 27.1081C53.744 27.9489 55.172 27.9489 56.012 27.1081C56.432 26.6877 56.684 26.1832 56.684 25.5946C56.684 25.006 56.516 24.4174 56.096 23.997ZM56.096 23.997C55.676 23.5766 55.088 23.3243 54.5 23.3243C53.912 23.3243 53.324 23.5766 52.904 23.997C52.484 24.4174 52.232 25.006 52.232 25.5946C52.232 26.1832 52.484 26.7718 52.904 27.1081C53.744 27.9489 55.172 27.9489 56.012 27.1081C56.432 26.6877 56.684 26.1832 56.684 25.5946C56.684 25.006 56.516 24.4174 56.096 23.997Z" fill="#048159"/>
</svg>
