<svg width="80" height="80" viewBox="0 0 80 80" fill="none" xmlns="http://www.w3.org/2000/svg">
<rect width="80" height="80" rx="40" fill="#F6F6F9"/>
<path d="M55.3122 47.4877C54.6894 47.1542 53.9777 46.9651 53.2218 46.9651C51.4549 46.9651 49.9294 47.9984 49.2166 49.4937H42.7189C42.6981 46.0312 39.8847 43.2307 36.4173 43.2307C36.1947 43.2307 35.9748 43.2423 35.7582 43.2648V33.5836C35.7604 33.5607 35.7616 33.5375 35.7616 33.514C35.7616 33.4905 35.7604 33.4672 35.7582 33.4443V30.2052C35.7582 30.0763 35.8627 29.9718 35.9916 29.9718H47.4866C47.5682 29.9718 47.6439 30.0145 47.6862 30.0843L49.3358 32.8099H44.3528C43.9661 32.8099 43.6526 33.1234 43.6526 33.5101C43.6526 33.8968 43.9661 34.2103 44.3528 34.2103H58.1231V41.5547L55.3122 47.4877ZM56.4364 48.3449L59.3728 42.1896C59.4715 42.0146 59.5234 41.817 59.5234 41.616V33.9185C59.5234 33.274 59.001 32.7516 58.3565 32.7516H50.9374L48.8843 29.3593C48.5883 28.8702 48.0582 28.5714 47.4866 28.5714H35.9916C35.0893 28.5714 34.3578 29.3029 34.3578 30.2052V32.8138H31.8926C31.8682 32.8112 31.8435 32.8099 31.8185 32.8099H24.2201C23.8334 32.8099 23.5199 33.1234 23.5199 33.5101C23.5199 33.8968 23.8334 34.2103 24.2201 34.2103H24.8636L27.8571 40.2524L27.7482 46.9651H25.1802L20.4758 51.1437V54.04H21.176L25.5063 54.0398C27.5595 53.9964 29.2541 53.2566 30.5523 51.8418C31.4735 54.1796 33.7522 55.8341 36.4173 55.8341C39.4301 55.8341 41.9491 53.7198 42.5715 50.8941H48.8158C48.7969 51.06 48.7873 51.2286 48.7873 51.3996C48.7873 53.8487 50.7727 55.8341 53.2218 55.8341C55.6709 55.8341 57.6563 53.8487 57.6563 51.3996C57.6563 50.2157 57.1924 49.1402 56.4364 48.3449ZM34.3578 34.2142V43.575C31.8888 44.4284 30.1157 46.7733 30.1157 49.5324C30.1157 49.7241 30.1242 49.9138 30.141 50.1012C29.0285 51.7635 27.4963 52.5971 25.4915 52.6396H21.8762V51.7728L25.7124 48.3654H29.1536L29.2624 41.616H31.8926C32.2793 41.616 32.5928 41.3025 32.5928 40.9158C32.5928 40.5291 32.2793 40.2156 31.8926 40.2156H29.2797C29.2779 40.1613 29.2697 40.1063 29.2545 40.0516L26.3178 34.2142H34.3578ZM36.4173 54.4337C33.7104 54.4337 31.516 52.2393 31.516 49.5324C31.516 46.8255 33.7104 44.6311 36.4173 44.6311C39.1242 44.6311 41.3186 46.8255 41.3186 49.5324C41.3186 52.2393 39.1242 54.4337 36.4173 54.4337ZM53.2218 54.4337C51.5461 54.4337 50.1876 53.0753 50.1876 51.3996C50.1876 49.7239 51.5461 48.3654 53.2218 48.3654C54.8975 48.3654 56.2559 49.7239 56.2559 51.3996C56.2559 53.0753 54.8975 54.4337 53.2218 54.4337Z" fill="#252525" stroke="#252525" stroke-width="0.4"/>
<rect x="40" y="12" width="28" height="28" rx="14" fill="#F6F6F9"/>
<path d="M61.9837 22.0151C61.9837 22.0151 58.32 21.7257 56.251 23.6675C54.1816 25.6094 54.49 29.0469 54.49 29.0469C54.49 29.0469 58.1537 29.3363 60.2228 27.3945C62.2922 25.4527 61.9837 22.0151 61.9837 22.0151ZM47.7772 27.3945C49.8466 29.3363 53.51 29.0469 53.51 29.0469C53.51 29.0469 53.8184 25.609 51.749 23.6675C49.6796 21.7257 46.0163 22.0151 46.0163 22.0151C46.0163 22.0151 45.7078 25.4527 47.7772 27.3945Z" fill="#048159"/>
<path d="M56.8137 30.889C59.4 28.6893 63.9797 29.0172 63.9797 29.0172C63.9797 29.0172 64.3652 32.9115 61.7785 35.1108C58.6119 37.803 54.6125 36.9826 54.6125 36.9826C54.6125 36.9826 54.227 33.0887 56.8137 30.889Z" fill="#048159"/>
<path d="M53.3875 36.9826C53.3875 36.9826 49.3377 37.7602 46.2215 35.1108C43.6348 32.9115 44.0203 29.0172 44.0203 29.0172C44.0203 29.0172 48.5995 28.6897 51.1863 30.889C53.773 33.0882 53.3875 36.9826 53.3875 36.9826Z" fill="#048159"/>
<path d="M51 18.4999C51 16.0147 54 13.9999 54 13.9999C54 13.9999 57 16.0147 57 18.4999C57 20.9851 54 22.9999 54 22.9999C54 22.9999 51 20.9851 51 18.4999Z" fill="#048159"/>
</svg>
