<svg width="1053.000000" height="256.000000" viewBox="0 0 1053 256" fill="none" xmlns="http://www.w3.org/2000/svg" xmlns:xlink="http://www.w3.org/1999/xlink">
	<desc>
			Created with Pixso.
	</desc>
	<defs>
		<clipPath id="clip711_1000">
			<rect id="Iconly / Bold / Ruble" width="28.000000" height="28.000000" transform="translate(234.000000 172.000000)" fill="white" fill-opacity="0"/>
		</clipPath>
		<clipPath id="clip711_1005">
			<rect id="Iconly / Bold / Ruble" width="28.000000" height="28.000000" transform="translate(350.000000 172.000000)" fill="white" fill-opacity="0"/>
		</clipPath>
		<clipPath id="clip711_1010">
			<rect id="Icons / Arrow_alt_lright" width="40.000000" height="28.000000" transform="translate(286.000000 172.000000)" fill="white" fill-opacity="0"/>
		</clipPath>
		<clipPath id="clip711_999">
			<rect id="о" rx="36.000000" width="196.000000" height="72.000000" transform="translate(208.000000 150.000000)" fill="white" fill-opacity="0"/>
		</clipPath>
	</defs>
	<path id="казатели" d="M616.582 226.943C605.424 227.057 593.246 222.525 582.031 212.5L590.471 203.154C598.684 211.311 607.746 214.426 615.393 214.482C626.381 214.596 634.537 208.592 634.48 201.852C634.48 194.092 622.416 191.656 611.598 191.656L599.873 191.656L599.873 179.592L611.598 179.592C620.547 179.592 630.402 176.93 630.402 169.51C630.346 162.26 622.643 157.729 613.354 157.785C606.727 157.785 599.193 160.051 592.453 165.035L584.693 155.633C594.662 148.609 604.914 145.551 614.09 145.551C630.912 145.551 643.77 155.859 643.826 169.793C643.883 176.816 639.578 181.461 633.121 184.52C641.73 187.805 648.018 193.186 648.018 201.852C647.961 215.105 634.367 226.83 616.582 226.943ZM438.73 176.76C448.359 166.451 457.932 156.086 467.617 145.721L483.816 145.721C472.941 157.389 462.066 169 451.248 180.668L490.217 227L473.848 227L438.73 185.143L438.73 227L425.137 227L425.137 145.721L438.73 145.721L438.73 176.76ZM739.152 158.352L739.152 145.721L809.557 145.721L809.557 158.352L781.123 158.352L781.123 227L767.586 227L767.586 158.352L739.152 158.352ZM497.24 227L529.582 145.777L543.062 145.777L575.348 227L561.924 227L556.373 213.236L516.215 213.236L510.721 227L497.24 227ZM655.324 227L687.666 145.777L701.146 145.777L733.432 227L720.008 227L714.457 213.236L674.299 213.236L668.805 227L655.324 227ZM819.639 227L819.639 145.777L875.09 145.777L875.09 158.352L833.176 158.352L833.176 176.307L864.781 176.307L864.781 188.881L833.176 188.881L833.176 214.482L875.09 214.482L875.09 227L819.639 227ZM904.43 202.191L904.43 145.777L959.994 145.777L959.994 226.943L946.514 226.943L946.514 158.352L917.967 158.352L917.967 202.248C917.967 209.102 915.531 214.936 910.717 219.75C905.902 224.564 900.068 227 893.215 227C888.91 227 884.832 225.924 881.094 223.828L887.664 211.99C889.363 212.953 891.232 213.406 893.158 213.406C896.273 213.406 898.936 212.33 901.145 210.121C903.297 207.969 904.43 205.307 904.43 202.191ZM974.438 227L974.438 145.834L987.975 145.834L987.975 203.324L1038.21 145.834L1045.41 145.834L1045.41 227L1031.87 227L1031.87 169.51L981.631 227L974.438 227ZM551.502 200.889L536.322 161.693L521.086 200.889L551.502 200.889ZM709.586 200.889L694.406 161.693L679.17 200.889L709.586 200.889Z" fill="#252525" fill-opacity="1.000000" fill-rule="evenodd"/>
	<g clip-path="url(#clip711_999)">
		<g clip-path="url(#clip711_1000)">
			<rect id="3" rx="2.000000" width="5.250000" height="10.500000" transform="translate(237.000000 188.000000)" fill="#252525" fill-opacity="1.000000"/>
			<rect id="2" rx="2.000000" width="5.250000" height="16.625000" transform="translate(245.750000 181.875000)" fill="#252525" fill-opacity="1.000000"/>
			<rect id="1" rx="2.000000" width="5.250000" height="24.500000" transform="translate(254.500000 174.000000)" fill="#252525" fill-opacity="1.000000"/>
		</g>
		<g clip-path="url(#clip711_1005)">
			<path id="Subtract" d="M364 173C356.82 173 351 178.82 351 186C351 193.18 356.82 199 364 199C371.18 199 377 193.18 377 186C377 178.82 371.18 173 364 173ZM360.494 190.232L360.494 192.425L362.631 192.425L362.631 190.232L365.372 190.232L365.373 188.88L362.631 188.88L362.631 187.254L365.372 187.254Q366.631 187.254 367.503 186.673Q367.535 186.652 367.566 186.63C368.565 185.943 369.438 184.611 369.438 183.368Q369.438 183.099 369.405 182.834Q369.338 182.298 369.135 181.78C368.946 181.263 368.669 180.796 368.303 180.38C367.95 179.964 367.515 179.63 366.999 179.378C366.494 179.126 365.921 179 365.278 179L360.494 179L360.494 185.382L359 185.382L359 187.254L360.494 187.254L360.494 188.88L359 188.88L359 190.232L360.494 190.232ZM362.631 185.382L365.259 185.382C365.75 185.382 366.141 185.275 366.431 185.061C366.914 184.698 367.282 183.976 367.282 183.368C367.282 182.876 367.2 182.441 367.036 182.063C366.885 181.685 366.646 181.395 366.318 181.193C366.003 180.979 365.605 180.872 365.126 180.872L362.631 180.872L362.631 185.382Z" clip-rule="evenodd" fill="#252525" fill-opacity="1.000000" fill-rule="evenodd"/>
		</g>
		<g clip-path="url(#clip711_1010)">
			<path id="Vector 9" d="M315.216 179.041L322.919 187.041L324 186L322.919 184.959L315.216 192.959L317.377 195.041L325.081 187.041L325.081 184.959L317.377 176.959L315.216 179.041ZM324 184.5L288 184.5L288 187.5L324 187.5L324 184.5Z" fill="#252525" fill-opacity="1.000000" fill-rule="evenodd"/>
		</g>
	</g>
	<rect id="о" rx="36.000000" width="196.000000" height="72.000000" transform="translate(208.000000 150.000000)" stroke="#048159" stroke-opacity="1.000000" stroke-width="12.000000"/>
	<path id="п" d="M119.193 227L119.193 145.721L186.369 145.721L186.369 227L172.775 227L172.775 158.352L132.73 158.352L132.73 227L119.193 227Z" fill="#252525" fill-opacity="1.000000" fill-rule="evenodd"/>
	<path id="ключевые" d="M20.7305 48.7598C30.3594 38.4512 39.9316 28.0859 49.6172 17.7207L65.8164 17.7207C54.9414 29.3887 44.0664 41 33.248 52.668L72.2168 99L55.8477 99L20.7305 57.1426L20.7305 99L7.13672 99L7.13672 17.7207L20.7305 17.7207L20.7305 48.7598ZM199.602 52.1016C202.887 32.1641 219.199 17.834 239.873 17.7207C262.246 17.7207 280.598 35.5059 280.598 58.332C280.598 80.8184 262.643 99 239.873 99C219.822 99 203.566 85.4062 199.602 64.6758L186.461 64.6758L186.461 99L172.924 99L172.924 17.7773L186.461 17.7773L186.461 52.1016L199.602 52.1016ZM102.916 74.1914L102.916 17.7773L158.48 17.7773L158.48 98.9434L145 98.9434L145 30.3516L116.453 30.3516L116.453 74.248C116.453 81.1016 114.018 86.9355 109.203 91.75C104.389 96.5645 98.5547 99 91.7012 99C87.3965 99 83.3184 97.9238 79.5801 95.8281L86.1504 83.9902C87.8496 84.9531 89.7188 85.4062 91.6445 85.4062C94.7598 85.4062 97.4219 84.3301 99.6309 82.1211C101.783 79.9688 102.916 77.3066 102.916 74.1914ZM337.238 53.2344L337.238 17.7773L350.832 17.7773L350.832 99L337.238 99L337.238 66.2617C330.781 68.4707 323.928 69.8867 316.621 69.8867C299.402 69.8867 288.131 62.0137 288.131 44.2852L288.131 17.9473L301.668 17.9473L301.668 42.1328C301.668 52.8945 307.615 57.3691 318.32 57.3691C324.947 57.3691 331.121 55.8965 337.238 53.2344ZM365.219 99L365.219 17.7773L420.67 17.7773L420.67 30.3516L378.756 30.3516L378.756 48.3066L410.361 48.3066L410.361 60.8809L378.756 60.8809L378.756 86.4824L420.67 86.4824L420.67 99L365.219 99ZM604.865 99L604.865 17.7773L660.316 17.7773L660.316 30.3516L618.402 30.3516L618.402 48.3066L650.008 48.3066L650.008 60.8809L618.402 60.8809L618.402 86.4824L660.316 86.4824L660.316 99L604.865 99ZM462.018 17.834C475.102 17.834 485.75 27.293 485.75 41.3398C485.75 46.834 483.371 51.7617 479.35 55.6699C487.223 59.125 493.396 66.0352 493.396 75.4375C493.396 89.3145 483.031 99 469.607 99L430.865 99L430.865 17.834L462.018 17.834ZM518.375 17.834L518.375 52.2715L543.637 52.2715C556.891 52.2715 567.369 61.7305 567.369 75.4941C567.369 89.2578 557.117 99 543.637 99L504.895 99L504.895 17.834L518.375 17.834ZM576.885 17.834L590.422 17.834L590.422 99L576.885 99L576.885 17.834ZM473.346 41.1133C473.346 34.7129 467.795 30.0117 461.281 30.0117L444.402 30.0117L444.402 52.2715L462.188 52.2715C467.795 51.9316 473.346 47.6836 473.346 41.1133ZM266.777 58.332C266.777 43.209 256.129 30.2383 239.873 30.0684C224.693 30.0684 212.912 42.4727 212.912 58.332C212.912 73.3418 223.561 86.6523 239.873 86.6523C255.053 86.6523 266.777 74.248 266.777 58.332ZM444.402 63.7695L444.402 86.6523L467.965 86.6523C473.969 86.6523 480.086 82.4043 480.086 75.2109C480.086 68.6406 474.592 63.7695 468.021 63.7695L444.402 63.7695ZM542.051 64.5625L518.375 64.5059L518.375 86.4824L542.051 86.4824C547.998 86.4824 554.115 82.2344 554.115 75.4375C554.115 69.0371 548.508 64.5625 542.051 64.5625Z" fill="#252525" fill-opacity="1.000000" fill-rule="evenodd"/>
</svg>
