<svg width="1876.000000" height="322.000000" viewBox="0 0 1876 322" fill="none" xmlns="http://www.w3.org/2000/svg" xmlns:xlink="http://www.w3.org/1999/xlink">
	<desc>
			Created with Pixso.
	</desc>
	<defs>
		<filter id="filter_18_10963_dd" x="1473.999756" y="0.000000" width="207.000244" height="206.000000" filterUnits="userSpaceOnUse" color-interpolation-filters="sRGB">
			<feFlood flood-opacity="0" result="BackgroundImageFix"/>
			<feBlend mode="normal" in="SourceGraphic" in2="BackgroundImageFix" result="shape"/>
			<feGaussianBlur stdDeviation="21.3333" result="effect_layerBlur_1"/>
		</filter>
	</defs>
	<g opacity="0.400000" filter="url(#filter_18_10963_dd)">
		<path id="Vector" d="M1538 64L1617 64L1538 142L1538 64Z" fill="#048159" fill-opacity="1.000000" fill-rule="evenodd"/>
	</g>
	<path id="Vector" d="M1540.87 142.34L1613.93 69.41L1617.35 66L1540.87 66L1540.87 142.34ZM1609.68 68L1542.87 68L1542.87 137.51L1544.87 135.52L1610.51 70L1612.52 68L1609.68 68Z" fill="#048159" fill-opacity="1.000000" fill-rule="evenodd"/>
	<g opacity="0.080000">
		<path id="Vector" d="M1876 246.03L1851.3 246.03L1851.3 100.35L1720.16 100.35L1720.12 102.31C1720.08 104.05 1720.03 106.7 1719.96 110.24C1719.34 142.23 1718.05 166.12 1716.07 181.9C1712.82 207.92 1706.79 229.3 1697.98 246.03L1675.88 246.03L1675.88 321.99L1717.69 321.99L1717.69 284.88L1834.31 284.88L1834.31 321.99L1876 321.99L1876 246.03ZM1836.31 284.88L1836.31 319.99L1874 319.99L1874 248.03L1849.3 248.03L1849.3 102.35L1722.12 102.35C1721.11 150.91 1721.24 207.14 1699.18 248.03L1677.88 248.03L1677.88 319.99L1715.69 319.99L1715.69 282.88L1836.31 282.88L1836.31 284.88ZM1761.04 139.2C1760.89 158.39 1759.6 175.76 1757.17 191.32C1754.19 210.34 1749.29 228.57 1742.46 246.03L1809.48 246.03L1809.48 139.2L1761.04 139.2ZM1811.48 139.2L1811.48 248.03L1739.51 248.03C1739.78 247.37 1740.05 246.7 1740.31 246.03C1755.51 207.54 1758.93 171.58 1759.05 137.2L1811.48 137.2L1811.48 139.2Z" fill="#FFFFFF" fill-opacity="1.000000" fill-rule="evenodd"/>
		<path id="Vector" d="M1647.44 284.88L1647.44 100.35L1625.67 100.35L1519.63 211.83L1519.63 100.35L1477.82 100.35L1477.82 284.88L1499.58 284.88L1605.75 173.4L1605.75 284.88L1647.44 284.88ZM1605.75 170.5L1498.73 282.88L1479.82 282.88L1479.82 102.35L1517.63 102.35L1517.63 216.83L1519.63 214.73L1626.53 102.35L1645.44 102.35L1645.44 282.88L1607.75 282.88L1607.75 168.4L1605.75 170.5Z" fill="#FFFFFF" fill-opacity="1.000000" fill-rule="evenodd"/>
		<path id="Vector" d="M721.39 139.2L721.39 100.47L564.41 100.47L564.41 284.88L721.39 284.88L721.39 246.16L606.22 246.16L606.22 212.83L721.39 212.83L721.39 174.11L606.22 174.11L606.22 139.2L721.39 139.2ZM604.22 139.2L604.22 137.2L719.39 137.2L719.39 102.47L566.41 102.47L566.41 282.88L719.39 282.88L719.39 248.16L604.22 248.16L604.22 210.83L719.39 210.83L719.39 176.11L604.22 176.11L604.22 139.2Z" fill="#FFFFFF" fill-opacity="1.000000" fill-rule="evenodd"/>
		<path id="Vector" d="M1451.99 139.25L1451.99 100.52L1295 100.52L1295 284.93L1451.99 284.93L1451.99 246.21L1336.81 246.21L1336.81 212.79L1451.99 212.79L1451.99 174.06L1336.81 174.06L1336.81 139.25L1451.99 139.25ZM1334.81 139.25L1334.81 137.25L1449.99 137.25L1449.99 102.52L1297 102.52L1297 282.93L1449.99 282.93L1449.99 248.21L1334.81 248.21L1334.81 210.79L1449.99 210.79L1449.99 176.06L1334.81 176.06L1334.81 139.25Z" fill="#FFFFFF" fill-opacity="1.000000" fill-rule="evenodd"/>
		<path id="Vector" d="M1239.78 103.82C1231.78 99.6 1222.66 97.5 1212.43 97.5L1119.79 97.5L1119.79 283.98L1160.97 283.98L1160.97 209.99L1212.43 209.99C1222.1 209.99 1230.79 208.06 1238.51 204.19C1243.57 201.65 1248.22 198.28 1252.46 194.08C1256.77 189.8 1260.21 185.09 1262.79 179.94C1266.61 172.29 1268.53 163.69 1268.53 154.13C1268.53 142.79 1266.06 132.87 1261.17 124.37C1258.76 120.19 1255.75 116.36 1252.16 112.87C1248.38 109.19 1244.25 106.18 1239.78 103.82ZM1158.97 209.99L1158.97 207.99L1212.43 207.99C1243.27 207.99 1266.53 185.07 1266.53 154.13C1266.53 120.76 1242.53 99.5 1212.43 99.5L1121.79 99.5L1121.79 281.98L1158.97 281.98L1158.97 209.99ZM1217.93 169.43C1214.92 170.88 1211.55 171.61 1207.84 171.61L1160.97 171.61L1160.97 136.64L1207.71 136.64C1211.76 136.64 1215.38 137.48 1218.56 139.14C1219.75 139.77 1220.88 140.5 1221.93 141.36C1224.03 143.04 1225.59 144.97 1226.62 147.15C1227.6 149.25 1228.09 151.57 1228.09 154.13C1228.09 156.79 1227.56 159.19 1226.52 161.34C1225.46 163.51 1223.87 165.42 1221.75 167.06C1220.55 168 1219.27 168.79 1217.93 169.43ZM1158.97 136.64L1158.97 134.64L1207.71 134.64C1219.15 134.64 1230.09 141.9 1230.09 154.13C1230.09 166.86 1218.53 173.61 1207.84 173.61L1158.97 173.61L1158.97 136.64Z" fill="#FFFFFF" fill-opacity="1.000000" fill-rule="evenodd"/>
		<path id="Vector" d="M1092.92 139.2L1092.92 100.35L932.24 100.35L932.24 139.2L991.61 139.2L991.61 284.88L1033.43 284.88L1033.43 139.2L1092.92 139.2ZM1031.43 139.2L1031.43 137.2L1090.92 137.2L1090.92 102.35L934.24 102.35L934.24 137.2L993.61 137.2L993.61 282.88L1031.43 282.88L1031.43 139.2Z" fill="#FFFFFF" fill-opacity="1.000000" fill-rule="evenodd"/>
		<mask id="mask_18_10974" fill="white">
			<path id="Union" d="M832.672 216.76L831.525 218.354L784.89 282.893L740.65 282.893L809.468 187.53L747.834 102.232L792.2 102.232L831.525 156.707L832.672 158.301L833.819 156.707L873.144 102.232L917.51 102.232L855.876 187.53L924.694 282.893L880.454 282.893L833.819 218.354L832.672 216.76Z" clip-rule="evenodd" fill="" fill-opacity="1.000000" fill-rule="evenodd"/>
		</mask>
		<path id="Union" d="M832.672 216.76L831.525 218.354L831.44 218.471L784.89 282.893L740.65 282.893L742.093 280.893L809.468 187.53L749.279 104.232L747.834 102.232L792.2 102.232L831.44 156.589L831.525 156.707L832.672 158.301L833.819 156.707L833.904 156.589L873.144 102.232L917.51 102.232L916.065 104.232L855.876 187.53L923.251 280.893L924.694 282.893L880.454 282.893L833.904 218.471L833.819 218.354L832.672 216.76ZM832.672 220.181L785.912 284.893L736.74 284.893L807.001 187.531L743.921 100.232L793.223 100.232L832.672 154.879L872.121 100.232L921.423 100.232L858.343 187.531L928.604 284.893L879.432 284.893L832.672 220.181Z" clip-rule="evenodd" fill="#FFFFFF" fill-opacity="1.000000" fill-rule="evenodd"/>
		<path id="Vector" d="M539.04 139.2L539.04 100.35L378.37 100.35L378.37 139.2L437.74 139.2L437.74 284.88L479.55 284.88L479.55 139.2L539.04 139.2ZM477.55 139.2L477.55 137.2L537.04 137.2L537.04 102.35L380.37 102.35L380.37 137.2L439.74 137.2L439.74 282.88L477.55 282.88L477.55 139.2Z" fill="#FFFFFF" fill-opacity="1.000000" fill-rule="evenodd"/>
		<path id="Vector" d="M358.93 284.88L358.93 100.47L317.11 100.47L317.11 203.54L240.07 203.54L240.07 100.47L198.38 100.47L198.38 284.88L240.07 284.88L240.07 242.39L317.11 242.39L317.11 284.88L358.93 284.88ZM319.11 242.39L319.11 282.88L356.93 282.88L356.93 102.47L319.11 102.47L319.11 205.54L238.07 205.54L238.07 102.47L200.38 102.47L200.38 282.88L238.07 282.88L238.07 240.39L319.11 240.39L319.11 242.39Z" fill="#FFFFFF" fill-opacity="1.000000" fill-rule="evenodd"/>
		<path id="Vector" d="M41.81 211.96L41.81 100.6L-0.01 100.6L-0.01 284.88L21.76 284.88L127.8 173.52L127.8 284.88L169.49 284.88L169.49 100.6L147.72 100.6L41.81 211.96ZM41.81 214.86L39.81 216.96L39.81 102.6L1.99 102.6L1.99 282.88L20.9 282.88L127.8 170.62L129.8 168.52L129.8 282.88L167.49 282.88L167.49 102.6L148.58 102.6L41.81 214.86Z" fill="#FFFFFF" fill-opacity="1.000000" fill-rule="evenodd"/>
	</g>
</svg>
