<svg width="1169.000000" height="883.000000" viewBox="0 0 1169 883" fill="none" xmlns="http://www.w3.org/2000/svg" xmlns:xlink="http://www.w3.org/1999/xlink">
	<desc>
			Created with Pixso.
	</desc>
	<defs>
		<filter id="filter_39_12073_dd" x="626.000000" y="0.000000" width="543.000000" height="543.000000" filterUnits="userSpaceOnUse" color-interpolation-filters="sRGB">
			<feFlood flood-opacity="0" result="BackgroundImageFix"/>
			<feBlend mode="normal" in="SourceGraphic" in2="BackgroundImageFix" result="shape"/>
			<feGaussianBlur stdDeviation="66.6667" result="effect_layerBlur_1"/>
		</filter>
		<filter id="filter_39_12072_dd" x="0.000000" y="341.000000" width="542.000000" height="542.000000" filterUnits="userSpaceOnUse" color-interpolation-filters="sRGB">
			<feFlood flood-opacity="0" result="BackgroundImageFix"/>
			<feBlend mode="normal" in="SourceGraphic" in2="BackgroundImageFix" result="shape"/>
			<feGaussianBlur stdDeviation="66.6667" result="effect_layerBlur_1"/>
		</filter>
	</defs>
	<g opacity="0.800000" filter="url(#filter_39_12073_dd)">
		<path id="Ellipse 1" d="M826 271.5C826 232.01 858.01 200 897.5 200C936.98 200 969 232.01 969 271.5C969 310.98 936.98 343 897.5 343C858.01 343 826 310.98 826 271.5Z" fill="#048159" fill-opacity="1.000000" fill-rule="evenodd"/>
	</g>
	<g opacity="0.800000" filter="url(#filter_39_12072_dd)">
		<path id="Ellipse 2" d="M200 612C200 572.78 231.78 541 271 541C310.21 541 342 572.78 342 612C342 651.21 310.21 683 271 683C231.78 683 200 651.21 200 612Z" fill="#048159" fill-opacity="1.000000" fill-rule="evenodd"/>
	</g>
	<rect id="Iconly/Bold/Setting" width="56.000000" height="56.000000" transform="translate(906.000000 264.000000)" fill="#FFFFFF" fill-opacity="0"/>
	<path id="Setting" d="M955.064 296.055C955.961 296.543 956.652 297.313 957.139 298.083C958.088 299.674 958.01 301.625 957.088 303.345L955.295 306.425C954.348 308.067 952.58 309.094 950.76 309.094C949.863 309.094 948.863 308.837 948.045 308.324C947.379 307.888 946.609 307.734 945.789 307.734C943.254 307.734 941.127 309.864 941.051 312.405C941.051 315.357 938.693 317.667 935.746 317.667L932.262 317.667C929.291 317.667 926.934 315.357 926.934 312.405C926.883 309.864 924.756 307.734 922.219 307.734C921.373 307.734 920.605 307.888 919.965 308.324C919.145 308.837 918.119 309.094 917.248 309.094C915.404 309.094 913.637 308.067 912.689 306.425L910.92 303.345C909.973 301.676 909.922 299.674 910.869 298.083C911.279 297.313 912.049 296.543 912.92 296.055C913.637 295.696 914.098 295.106 914.533 294.413C915.814 292.205 915.045 289.305 912.867 287.996C910.332 286.533 909.512 283.273 910.973 280.732L912.689 277.704C914.174 275.163 917.352 274.264 919.914 275.753C922.143 276.985 925.037 276.164 926.344 273.982C926.754 273.263 926.984 272.493 926.934 271.723C926.883 270.722 927.164 269.773 927.65 269.003C928.6 267.411 930.314 266.385 932.186 266.333L935.799 266.333C937.693 266.333 939.41 267.411 940.357 269.003C940.82 269.773 941.127 270.722 941.051 271.723C940.998 272.493 941.229 273.263 941.639 273.982C942.945 276.164 945.842 276.985 948.096 275.753C950.633 274.264 953.834 275.163 955.295 277.704L957.012 280.732C958.498 283.273 957.678 286.533 955.115 287.996C952.938 289.305 952.17 292.205 953.477 294.413C953.887 295.106 954.348 295.696 955.064 296.055ZM926.754 292.026C926.754 296.055 930.008 299.264 934.029 299.264C938.053 299.264 941.229 296.055 941.229 292.026C941.229 287.996 938.053 284.762 934.029 284.762C930.008 284.762 926.754 287.996 926.754 292.026Z" clip-rule="evenodd" fill="#048159" fill-opacity="1.000000" fill-rule="evenodd"/>
	<g opacity="0.080000">
		<mask id="mask2232_7376" mask-type="alpha" maskUnits="userSpaceOnUse" x="506.000000" y="304.000000" width="320.000000" height="320.000000">
			<path id="Vector" d="M788.84 448C788.74 447.21 788.63 446.4 788.51 445.59C788.51 445.12 788.35 444.64 788.28 444.17C788.21 443.7 788.12 443.24 788.05 442.76C787.91 441.97 787.75 441.16 787.61 440.37C787.61 440.23 787.61 440.09 787.52 439.95C787.43 439.81 787.52 439.51 787.4 439.3C787 437.31 786.54 435.34 786.05 433.39L785.47 431.25L816.8 410.15L806.34 386.9L769.82 396.38C768.2 393.88 766.48 391.44 764.67 389.05L764.4 388.71C763.91 388.06 763.42 387.43 762.91 386.8L762.01 385.69C761.69 385.32 761.39 384.93 761.1 384.56L759.51 382.72L759.23 382.4C757.26 380.13 755.2 377.97 753.1 375.88L769.69 341.99L749.03 327.08L722.13 353.55C719.48 352.21 716.77 350.94 714.01 349.78L713.62 349.62L711.35 348.71L710.02 348.2L708.68 347.69L706.38 346.88L705.97 346.74C703.15 345.77 700.29 344.91 697.39 344.16L694.86 306.56L669.5 304L659.43 340.45C656.46 340.6 653.49 340.87 650.51 341.25L650.09 341.25L648.14 341.52L647.67 341.52L646.24 341.75L644.83 341.98L642.44 342.42L642.11 342.42C639.17 342.99 636.24 343.68 633.32 344.47L612.22 313.26L588.97 323.72L598.45 360.24L596.59 361.48C594.92 362.6 593.26 363.78 591.64 364.99L591.12 365.4L590.85 365.61L588.94 367.1L587.83 368L586.7 368.91L586.33 369.21L584.86 370.5L584.52 370.78C582.27 372.75 580.11 374.8 578.02 376.91L544.13 360.3L529.22 380.98L555.69 407.88C554.35 410.53 553.08 413.24 551.92 416L551.77 416.41C551.45 417.16 551.15 417.9 550.85 418.66L550.32 420.01L549.83 421.33L548.92 423.7C548.92 423.83 548.92 423.95 548.79 424.09C547.83 426.92 547.03 429.79 546.21 432.65L508.56 435.22L506 460.58L542.43 470.56C542.59 473.53 542.85 476.51 543.24 479.48L543.24 479.9C543.34 480.71 543.45 481.52 543.57 482.33C543.57 482.8 543.73 483.28 543.8 483.75C543.87 484.23 543.94 484.68 544.03 485.16C544.17 485.95 544.33 486.76 544.47 487.55C544.47 487.69 544.47 487.83 544.56 487.97C545.14 490.91 545.83 493.81 546.61 496.67L515.28 517.77L525.83 541.02L562.32 531.56C563.93 534.06 565.65 536.5 567.47 538.89L567.73 539.23C568.22 539.88 568.72 540.51 569.23 541.14C569.74 541.78 569.82 541.88 570.12 542.25C570.42 542.62 570.74 543.01 571.04 543.38L572.62 545.13L572.9 545.45C574.87 547.72 576.93 549.88 579.04 551.97L562.42 585.94L583.1 600.86L610 574.39C612.65 575.73 615.36 577 618.12 578.15L618.51 578.31L620.78 579.23L622.12 579.74L623.45 580.25L625.74 581.06L626.16 581.2C628.99 582.16 631.86 582.96 634.72 583.78L637.29 621.43L662.65 624L672.7 587.63C675.68 587.47 678.65 587.21 681.62 586.82L682.04 586.82L683.99 586.56L684.47 586.56L685.89 586.33L687.28 586.1L689.69 585.66L690.02 585.66C692.97 585.08 695.9 584.39 698.82 583.61L719.92 614.94L743.16 604.39L733.68 567.87C736.18 566.25 738.62 564.53 741.02 562.72L741.28 562.52L743.21 561.01L744.32 560.12L745.45 559.2L745.82 558.9L747.27 557.62L747.63 557.34C749.88 555.37 752.04 553.31 754.13 551.2L788.05 567.64L802.96 546.96L776.5 520.06C777.84 517.4 779.1 514.78 780.26 511.94L780.42 511.55C780.74 510.79 781.03 510.04 781.33 509.28L781.33 509.14L781.33 509.02C781.47 508.67 781.6 508.3 781.74 507.95C781.88 507.59 782.09 507.05 782.25 506.61C782.53 505.84 782.79 505.08 783.06 504.31C783.11 504.17 783.16 504.04 783.2 503.9C784.17 501.07 784.96 498.2 785.78 495.34L823.43 492.77L826 467.42L789.63 457.36C789.47 454.39 789.21 451.41 788.82 448.44L788.84 448ZM709.36 555.35L707.43 556.21C706.85 556.48 706.25 556.76 705.67 557L705.22 557.2C690.43 563.38 674.39 565.98 658.41 564.79L657.92 564.79C657.19 564.79 656.49 564.65 655.79 564.58L653.87 564.39L653.38 564.39C637.48 562.34 622.29 556.57 609.03 547.56L608.63 547.28L606.87 546.03L605.29 544.9L604.9 544.61C592.19 534.87 581.95 522.27 575.01 507.84C574.92 507.7 574.85 507.55 574.78 507.4L573.9 505.45C573.64 504.87 573.37 504.29 573.13 503.69L572.93 503.23C566.71 488.41 564.08 472.33 565.27 456.3C565.27 456.14 565.27 455.99 565.27 455.85C565.27 455.12 565.41 454.4 565.48 453.7C565.55 453 565.6 452.42 565.67 451.77C565.68 451.61 565.68 451.46 565.67 451.31C567.72 435.4 573.49 420.19 582.52 406.93L582.78 406.54C583.15 406 583.54 405.49 583.93 404.96C584.31 404.43 584.75 403.8 585.17 403.2C585.26 403.06 585.37 402.94 585.45 402.81C595.18 390.07 607.78 379.79 622.22 372.82L622.66 372.61L624.42 371.8L626.32 370.94L626.76 370.76C641.61 364.57 657.71 361.98 673.76 363.2L674.23 363.2L676.24 363.41L678.29 363.62L678.77 363.62C694.68 365.67 709.87 371.44 723.13 380.47L723.52 380.73L725.14 381.89L726.9 383.12L727.28 383.42C740.03 393.14 750.31 405.73 757.28 420.17L757.49 420.61L758.28 422.37C758.58 423.02 758.88 423.67 759.16 424.32C759.16 424.48 759.28 424.62 759.34 424.78C765.54 439.59 768.15 455.66 766.95 471.67C766.95 471.85 766.95 472.02 766.95 472.2C766.95 472.83 766.81 473.48 766.76 474.11C766.7 474.75 766.62 475.52 766.53 476.21L766.53 476.72C764.48 492.61 758.71 507.8 749.7 521.04L749.42 521.45L748.15 523.21L747.05 524.75L746.75 525.14C737.01 537.85 724.41 548.09 709.98 555.03L709.36 555.35Z" fill="#000000" fill-opacity="1.000000" fill-rule="nonzero"/>
		</mask>
		<g mask="url(#mask2232_7376)">
			<path id="Vector (Граница)" d="M295.78 627.53L632.42 290.89L633.12 291.6L296.49 628.24L295.78 627.53Z" fill="#FFFFFF" fill-opacity="1.000000" fill-rule="evenodd"/>
			<path id="Vector (Граница)" d="M362.32 627.53L698.97 290.89L699.68 291.6L363.02 628.24L362.32 627.53Z" fill="#FFFFFF" fill-opacity="1.000000" fill-rule="evenodd"/>
			<path id="Vector (Граница)" d="M428.87 627.53L765.51 290.89L766.21 291.6L429.58 628.24L428.87 627.53Z" fill="#FFFFFF" fill-opacity="1.000000" fill-rule="evenodd"/>
			<path id="Vector (Граница)" d="M495.42 627.53L832.06 290.89L832.76 291.6L496.13 628.24L495.42 627.53Z" fill="#FFFFFF" fill-opacity="1.000000" fill-rule="evenodd"/>
			<path id="Vector (Граница)" d="M262.5 627.53L599.13 290.89L599.84 291.6L263.2 628.24L262.5 627.53Z" fill="#FFFFFF" fill-opacity="1.000000" fill-rule="evenodd"/>
			<path id="Vector (Граница)" d="M329.05 627.53L665.68 290.89L666.39 291.6L329.76 628.24L329.05 627.53Z" fill="#FFFFFF" fill-opacity="1.000000" fill-rule="evenodd"/>
			<path id="Vector (Граница)" d="M395.6 627.53L732.24 290.89L732.94 291.6L396.31 628.24L395.6 627.53Z" fill="#FFFFFF" fill-opacity="1.000000" fill-rule="evenodd"/>
			<path id="Vector (Граница)" d="M462.16 627.53L798.79 290.89L799.5 291.6L462.86 628.24L462.16 627.53Z" fill="#FFFFFF" fill-opacity="1.000000" fill-rule="evenodd"/>
			<path id="Vector (Граница)" d="M528.69 627.53L865.35 290.89L866.05 291.6L529.4 628.24L528.69 627.53Z" fill="#FFFFFF" fill-opacity="1.000000" fill-rule="evenodd"/>
			<path id="Vector (Граница)" d="M561.98 627.53L898.61 290.89L899.32 291.6L562.68 628.24L561.98 627.53Z" fill="#FFFFFF" fill-opacity="1.000000" fill-rule="evenodd"/>
			<path id="Vector (Граница)" d="M595.24 627.53L931.88 290.89L932.58 291.6L595.95 628.24L595.24 627.53Z" fill="#FFFFFF" fill-opacity="1.000000" fill-rule="evenodd"/>
			<path id="Vector (Граница)" d="M628.53 627.53L965.16 290.89L965.87 291.6L629.24 628.24L628.53 627.53Z" fill="#FFFFFF" fill-opacity="1.000000" fill-rule="evenodd"/>
			<path id="Vector (Граница)" d="M661.8 627.53L998.43 290.89L999.14 291.6L662.5 628.24L661.8 627.53Z" fill="#FFFFFF" fill-opacity="1.000000" fill-rule="evenodd"/>
			<path id="Vector (Граница)" d="M695.07 627.53L1031.72 290.89L1032.43 291.6L695.77 628.24L695.07 627.53Z" fill="#FFFFFF" fill-opacity="1.000000" fill-rule="evenodd"/>
			<path id="Vector (Граница)" d="M728.35 627.53L1064.99 290.89L1065.69 291.6L729.06 628.24L728.35 627.53Z" fill="#FFFFFF" fill-opacity="1.000000" fill-rule="evenodd"/>
			<path id="Vector (Граница)" d="M761.61 627.53L1098.25 290.89L1098.96 291.6L762.32 628.24L761.61 627.53Z" fill="#FFFFFF" fill-opacity="1.000000" fill-rule="evenodd"/>
			<path id="Vector (Граница)" d="M794.9 627.53L1131.54 290.89L1132.25 291.6L795.61 628.24L794.9 627.53Z" fill="#FFFFFF" fill-opacity="1.000000" fill-rule="evenodd"/>
			<path id="Vector (Граница)" d="M312.42 627.53L649.05 290.89L649.76 291.6L313.12 628.24L312.42 627.53Z" fill="#FFFFFF" fill-opacity="1.000000" fill-rule="evenodd"/>
			<path id="Vector (Граница)" d="M378.97 627.53L715.6 290.89L716.31 291.6L379.68 628.24L378.97 627.53Z" fill="#FFFFFF" fill-opacity="1.000000" fill-rule="evenodd"/>
			<path id="Vector (Граница)" d="M445.5 627.53L782.16 290.89L782.86 291.6L446.21 628.24L445.5 627.53Z" fill="#FFFFFF" fill-opacity="1.000000" fill-rule="evenodd"/>
			<path id="Vector (Граница)" d="M512.06 627.53L848.69 290.89L849.4 291.6L512.77 628.24L512.06 627.53Z" fill="#FFFFFF" fill-opacity="1.000000" fill-rule="evenodd"/>
			<path id="Vector (Граница)" d="M578.61 627.53L915.25 290.89L915.95 291.6L579.32 628.24L578.61 627.53Z" fill="#FFFFFF" fill-opacity="1.000000" fill-rule="evenodd"/>
			<path id="Vector (Граница)" d="M645.16 627.53L981.8 290.89L982.51 291.6L645.87 628.24L645.16 627.53Z" fill="#FFFFFF" fill-opacity="1.000000" fill-rule="evenodd"/>
			<path id="Vector (Граница)" d="M711.71 627.53L1048.35 290.89L1049.06 291.6L712.42 628.24L711.71 627.53Z" fill="#FFFFFF" fill-opacity="1.000000" fill-rule="evenodd"/>
			<path id="Vector (Граница)" d="M279.13 627.53L615.78 290.89L616.49 291.6L279.84 628.24L279.13 627.53Z" fill="#FFFFFF" fill-opacity="1.000000" fill-rule="evenodd"/>
			<path id="Vector (Граница)" d="M345.68 627.53L682.32 290.89L683.03 291.6L346.39 628.24L345.68 627.53Z" fill="#FFFFFF" fill-opacity="1.000000" fill-rule="evenodd"/>
			<path id="Vector (Граница)" d="M412.24 627.53L748.87 290.89L749.58 291.6L412.94 628.24L412.24 627.53Z" fill="#FFFFFF" fill-opacity="1.000000" fill-rule="evenodd"/>
			<path id="Vector (Граница)" d="M478.79 627.53L815.43 290.89L816.13 291.6L479.5 628.24L478.79 627.53Z" fill="#FFFFFF" fill-opacity="1.000000" fill-rule="evenodd"/>
			<path id="Vector (Граница)" d="M545.34 627.53L881.98 290.89L882.68 291.6L546.05 628.24L545.34 627.53Z" fill="#FFFFFF" fill-opacity="1.000000" fill-rule="evenodd"/>
			<path id="Vector (Граница)" d="M611.88 627.53L948.53 290.89L949.24 291.6L612.58 628.24L611.88 627.53Z" fill="#FFFFFF" fill-opacity="1.000000" fill-rule="evenodd"/>
			<path id="Vector (Граница)" d="M678.43 627.53L1015.07 290.89L1015.78 291.6L679.14 628.24L678.43 627.53Z" fill="#FFFFFF" fill-opacity="1.000000" fill-rule="evenodd"/>
			<path id="Vector (Граница)" d="M744.98 627.53L1081.62 290.89L1082.32 291.6L745.69 628.24L744.98 627.53Z" fill="#FFFFFF" fill-opacity="1.000000" fill-rule="evenodd"/>
			<path id="Vector (Граница)" d="M778.25 627.53L1114.91 290.89L1115.61 291.6L778.96 628.24L778.25 627.53Z" fill="#FFFFFF" fill-opacity="1.000000" fill-rule="evenodd"/>
			<path id="Vector (Граница)" d="M811.53 627.53L1148.17 290.89L1148.88 291.6L812.24 628.24L811.53 627.53Z" fill="#FFFFFF" fill-opacity="1.000000" fill-rule="evenodd"/>
			<path id="Vector (Граница)" d="M828.17 627.53L1164.81 290.89L1165.52 291.6L828.88 628.24L828.17 627.53Z" fill="#FFFFFF" fill-opacity="1.000000" fill-rule="evenodd"/>
			<path id="Vector (Граница)" d="M844.8 627.53L1181.43 290.89L1182.15 291.6L845.51 628.24L844.8 627.53Z" fill="#FFFFFF" fill-opacity="1.000000" fill-rule="evenodd"/>
			<path id="Vector (Граница)" d="M861.44 627.53L1198.09 290.89L1198.8 291.6L862.14 628.24L861.44 627.53Z" fill="#FFFFFF" fill-opacity="1.000000" fill-rule="evenodd"/>
			<path id="Vector (Граница)" d="M878.09 627.53L1214.73 290.89L1215.43 291.6L878.79 628.24L878.09 627.53Z" fill="#FFFFFF" fill-opacity="1.000000" fill-rule="evenodd"/>
			<path id="Vector (Граница)" d="M894.72 627.53L1231.36 290.89L1232.06 291.6L895.43 628.24L894.72 627.53Z" fill="#FFFFFF" fill-opacity="1.000000" fill-rule="evenodd"/>
			<path id="Vector (Граница)" d="M911.35 627.53L1247.99 290.89L1248.69 291.6L912.06 628.24L911.35 627.53Z" fill="#FFFFFF" fill-opacity="1.000000" fill-rule="evenodd"/>
		</g>
	</g>
	<g opacity="0.100000">
		<path id="Vector (Граница)" d="M789.51 445.51C789.5 445.24 789.45 444.9 789.35 444.47C789.31 444.26 789.28 444.12 789.27 444.02C789.24 443.86 789.2 443.62 789.15 443.3C789.1 443 789.06 442.77 789.04 442.62L788.81 441.39L788.61 440.27C788.6 440.03 788.55 439.81 788.47 439.62C788.46 439.38 788.43 439.18 788.36 439C787.98 437.15 787.53 435.2 787.02 433.15L786.62 431.68L818.06 410.5L806.9 385.72L770.26 395.23C768.75 392.92 767.15 390.66 765.46 388.44L765.18 388.09C764.68 387.42 764.18 386.78 763.68 386.17L762.78 385.05C762.64 384.89 762.43 384.62 762.15 384.28C762.03 384.13 761.93 384.01 761.87 383.93L760.27 382.07L759.98 381.74C758.28 379.78 756.39 377.76 754.31 375.67L770.96 341.68L748.93 325.78L721.94 352.33C719.35 351.04 716.83 349.89 714.39 348.86L714 348.7L711.73 347.78L710.37 347.27L709.02 346.75L706.71 345.94L706.3 345.8C705 345.35 703.69 344.92 702.37 344.52C701.04 344.11 699.69 343.73 698.34 343.37L695.8 305.65L668.77 302.92L658.66 339.49C655.86 339.65 653.12 339.91 650.45 340.25L650.02 340.25L648.07 340.52L647.59 340.52L646.08 340.76L644.67 340.99L642.35 341.42L642.01 341.42C639.28 341.95 636.46 342.6 633.75 343.32L612.57 312L587.79 323.16L597.3 359.8L596.03 360.64C594.36 361.77 592.7 362.95 591.04 364.19L590.51 364.6L590.23 364.83L588.32 366.31L587.2 367.22L586.07 368.14L585.69 368.45L584.2 369.74L583.88 370.01C581.9 371.75 579.87 373.64 577.81 375.7L543.82 359.03L527.92 381.08L554.47 408.07C553.18 410.66 552.03 413.17 551 415.61L550.84 416.03C550.54 416.74 550.24 417.49 549.92 418.29L549.39 419.65L548.89 420.98L547.92 423.52L547.85 423.77C547.3 425.37 546.56 427.78 545.64 431.01C545.57 431.27 545.5 431.5 545.44 431.7L507.65 434.28L504.92 461.32L541.47 471.34C541.64 474.14 541.89 476.87 542.24 479.54L542.24 479.96C542.37 481.01 542.49 481.87 542.57 482.41C542.58 482.68 542.63 483.02 542.72 483.45C542.77 483.66 542.8 483.81 542.81 483.9C542.9 484.48 542.98 484.96 543.04 485.34L543.27 486.53L543.47 487.65C543.48 487.89 543.52 488.1 543.6 488.29C544.14 490.98 544.76 493.63 545.46 496.24L514.02 517.42L525.27 542.2L561.87 532.71C563.39 535.02 564.99 537.28 566.67 539.5L566.95 539.84C567.45 540.52 567.95 541.16 568.45 541.77L569.09 542.57L569.34 542.88L569.8 543.44L570.28 544.03L571.88 545.8L572.15 546.11C573.85 548.07 575.74 550.09 577.82 552.18L561.15 586.26L583.2 602.16L610.19 575.61C612.78 576.89 615.3 578.05 617.74 579.08L618.13 579.24L620.4 580.15L621.76 580.67L623.11 581.19L625.4 582L625.84 582.15C627.44 582.69 629.85 583.43 633.08 584.35C633.33 584.42 633.56 584.49 633.77 584.55L636.35 622.34L663.38 625.08L673.48 588.59C676.27 588.43 679.01 588.17 681.68 587.82L682.11 587.82L684.06 587.56L684.55 587.56L686.05 587.32L687.44 587.09L689.78 586.66L690.12 586.66C692.85 586.12 695.67 585.47 698.38 584.76L719.56 616.2L744.34 604.95L734.83 568.31C737.14 566.8 739.4 565.2 741.62 563.51L741.88 563.32L743.83 561.8L744.95 560.89L746.08 559.98L746.46 559.67L747.92 558.38L748.27 558.1C750.24 556.38 752.28 554.47 754.34 552.41L788.37 568.91L804.27 546.86L777.71 519.87C779.16 516.96 780.32 514.45 781.19 512.31L781.35 511.93C781.56 511.42 781.86 510.66 782.26 509.65L782.33 509.47L782.33 509.21C782.37 509.1 782.42 508.97 782.48 508.83C782.56 508.59 782.62 508.42 782.67 508.32C782.86 507.83 783.04 507.37 783.19 506.95C783.44 506.26 783.71 505.5 783.99 504.66C784.03 504.56 784.07 504.47 784.1 504.38C784.12 504.32 784.13 504.26 784.15 504.2C784.7 502.6 785.43 500.19 786.35 496.98C786.43 496.71 786.5 496.48 786.55 496.29L824.34 493.71L827.08 466.68L790.59 456.59C790.43 453.79 790.17 451.06 789.83 448.4L789.85 447.96L789.8 447.59C789.68 446.68 789.58 445.99 789.51 445.51ZM788.47 439.62C788.46 439.58 788.42 439.49 788.37 439.42C788.4 439.47 788.45 439.56 788.47 439.62ZM787.4 444.89C787.47 445.23 787.51 445.46 787.51 445.59L787.52 445.74C787.59 446.21 787.69 446.92 787.81 447.86L787.84 448.05L787.82 448.49C788.19 451.36 788.47 454.39 788.63 457.41L788.67 458.13L824.92 468.15L822.52 491.83L785.02 494.39L784.82 495.06C784.73 495.37 784.6 495.83 784.43 496.43C783.51 499.63 782.79 502.01 782.25 503.58C782.24 503.62 782.21 503.7 782.2 503.74C782.18 503.8 782.16 503.86 782.13 503.92C781.85 504.76 781.56 505.58 781.31 506.27C781.16 506.67 781 507.1 780.81 507.57C780.76 507.7 780.69 507.89 780.6 508.14C780.51 508.37 780.45 508.54 780.41 508.65L780.33 508.83L780.33 509.09C779.97 510 779.69 510.7 779.49 511.17L779.34 511.56C778.42 513.8 777.18 516.48 775.6 519.61L775.28 520.25L801.66 547.06L787.73 566.37L753.93 549.99L753.42 550.5C751.23 552.71 749.08 554.74 746.98 556.57L746.63 556.85L745.17 558.14L744.82 558.42L743.69 559.34L742.6 560.22L740.69 561.72L740.41 561.92C738.04 563.72 735.61 565.43 733.14 567.03L732.53 567.42L741.98 603.83L720.27 613.68L699.25 582.45L698.56 582.64C695.69 583.41 692.81 584.09 689.93 584.66L689.6 584.66L687.12 585.12L685.73 585.34L684.39 585.56L683.93 585.56L681.97 585.82L681.55 585.82C678.68 586.2 675.67 586.47 672.65 586.63L671.93 586.67L661.91 622.92L638.23 620.52L635.67 583.02L635 582.82C634.7 582.73 634.24 582.6 633.63 582.43C630.44 581.51 628.05 580.79 626.48 580.25L626.07 580.11L623.81 579.31L622.47 578.8L621.15 578.3L618.89 577.39L618.51 577.23C615.91 576.14 613.23 574.9 610.45 573.5L609.81 573.18L583 599.55L563.69 585.63L580.25 551.77L579.74 551.26C577.49 549.03 575.46 546.87 573.65 544.79L573.36 544.46L571.8 542.73L571.35 542.18L570.9 541.62L570.65 541.31L570 540.52C569.52 539.92 569.03 539.28 568.52 538.61L568.26 538.29C566.46 535.92 564.76 533.49 563.15 531.02L562.76 530.41L526.39 539.84L516.54 518.13L547.77 497.1L547.58 496.41C546.8 493.57 546.12 490.69 545.54 487.78L545.5 487.6L545.47 487.46L545.23 486.17L545.01 484.97C544.95 484.62 544.87 484.17 544.79 483.6C544.77 483.47 544.73 483.28 544.68 483.03C544.61 482.69 544.57 482.46 544.57 482.33L544.56 482.18C544.48 481.65 544.37 480.87 544.24 479.83L544.24 479.41C543.86 476.54 543.59 473.53 543.43 470.51L543.39 469.79L507.08 459.83L509.47 436.16L546.98 433.6L547.17 432.93C547.26 432.62 547.39 432.17 547.56 431.56C548.45 428.46 549.16 426.12 549.69 424.55C549.78 424.38 549.88 424.12 549.9 423.92L550.77 421.68L551.26 420.37L551.78 419.02C552.09 418.23 552.4 417.49 552.69 416.79L552.85 416.38C553.94 413.78 555.18 411.1 556.58 408.33L556.9 407.69L530.53 380.88L544.45 361.57L578.22 378.13L578.73 377.62C580.93 375.4 583.08 373.37 585.17 371.54L585.51 371.25L586.98 369.98L587.33 369.69L588.46 368.78L589.55 367.89L591.48 366.39L591.73 366.19L592.24 365.79C593.87 364.57 595.5 363.41 597.14 362.31L599.6 360.69L590.15 324.29L611.86 314.52L632.89 345.63L633.58 345.44C636.44 344.65 639.32 343.98 642.2 343.42L642.53 343.42L644.99 342.96L646.4 342.73L647.75 342.52L648.21 342.52L650.16 342.25L650.58 342.25C653.45 341.88 656.46 341.61 659.48 341.44L660.2 341.41L670.24 305.07L693.92 307.47L696.44 344.94L697.14 345.12C699.38 345.7 701.59 346.35 703.78 347.06C704.41 347.27 705.02 347.47 705.64 347.69L706.04 347.82L708.34 348.63L709.66 349.13L710.98 349.64L713.24 350.55L713.62 350.7C716.22 351.8 718.91 353.04 721.68 354.44L722.32 354.76L749.13 328.39L768.43 342.31L751.88 376.08L752.39 376.59C754.64 378.82 756.67 380.98 758.48 383.06L758.75 383.37L760.33 385.2C760.39 385.28 760.47 385.39 760.59 385.53C760.87 385.88 761.09 386.15 761.24 386.33L762.13 387.42C762.61 388.02 763.1 388.66 763.62 389.33L763.87 389.65C765.67 392.02 767.37 394.45 768.98 396.92L769.37 397.53L805.77 388.08L815.54 409.79L784.31 430.82L785.08 433.64C785.6 435.69 786.04 437.65 786.42 439.5L786.45 439.66L786.54 439.8L786.45 439.66C786.46 439.98 786.55 440.29 786.68 440.48C786.63 440.41 786.61 440.38 786.61 440.37L786.68 440.48L786.85 441.75L787.06 442.93C787.09 443.09 787.13 443.33 787.18 443.63C787.23 443.94 787.27 444.17 787.29 444.32C787.31 444.45 787.35 444.64 787.4 444.89ZM707.84 557.13L709.8 556.25L710.43 555.93C717.82 552.37 724.62 548.07 730.81 543.03C736.99 538.01 742.56 532.25 747.54 525.75L747.85 525.35L748.97 523.79L750.24 522.02L750.53 521.61C755.15 514.82 758.87 507.69 761.71 500.22C764.53 492.77 766.47 484.98 767.52 476.84L767.53 476.27C767.63 475.48 767.7 474.79 767.75 474.2C767.77 474.05 767.79 473.83 767.84 473.52C767.91 472.94 767.95 472.5 767.95 472.2L767.95 471.71C768.56 463.52 768.22 455.48 766.94 447.6C765.66 439.72 763.44 431.99 760.27 424.41C760.24 424.34 760.21 424.26 760.16 424.17L760.08 423.92C759.89 423.48 759.59 422.83 759.19 421.96L758.4 420.19L758.18 419.73C754.6 412.32 750.28 405.52 745.22 399.32C740.18 393.16 734.4 387.59 727.89 382.63L727.49 382.32L725.72 381.08L724.09 379.91L723.69 379.64C716.91 375.02 709.78 371.29 702.31 368.45C694.85 365.62 687.04 363.68 678.9 362.63L678.35 362.62L676.34 362.42L674.29 362.2L673.8 362.2C665.55 361.57 657.46 361.9 649.52 363.19C641.66 364.47 633.95 366.68 626.39 369.83L625.93 370.02L624 370.89L622.23 371.7L621.79 371.92C614.39 375.49 607.6 379.8 601.42 384.84C595.23 389.89 589.64 395.68 584.66 402.21C584.65 402.23 584.6 402.29 584.56 402.34C584.47 402.46 584.4 402.56 584.34 402.64C584.27 402.74 584.17 402.89 584.04 403.08C583.61 403.68 583.31 404.11 583.12 404.37C583.06 404.45 582.97 404.57 582.85 404.73C582.45 405.27 582.15 405.69 581.96 405.98L581.69 406.37C577.07 413.16 573.34 420.28 570.51 427.75C567.67 435.22 565.73 443.03 564.68 451.18L564.68 451.36C564.68 451.42 564.68 451.48 564.68 451.54C564.68 451.59 564.68 451.64 564.68 451.69L564.61 452.36L564.49 453.6C564.47 453.74 564.44 453.96 564.4 454.26C564.31 454.95 564.27 455.48 564.27 455.85L564.27 456.27C563.67 464.45 564.01 472.49 565.29 480.36C566.58 488.27 568.82 496.02 572.02 503.62L572.2 504.07C572.37 504.48 572.63 505.08 572.99 505.86L573.86 507.8C573.9 507.89 573.95 507.99 574 508.08C574.04 508.16 574.08 508.24 574.13 508.32C577.68 515.7 581.98 522.48 587.01 528.67C592.03 534.84 597.79 540.42 604.29 545.4L604.69 545.71L606.29 546.85L608.06 548.1L608.47 548.39C615.26 553 622.38 556.72 629.84 559.55C637.31 562.39 645.11 564.33 653.25 565.38L653.82 565.39L655.69 565.58C655.83 565.59 656.05 565.62 656.35 565.66C657.03 565.75 657.55 565.79 657.92 565.79L658.37 565.79C666.52 566.4 674.53 566.06 682.38 564.79C690.27 563.51 698.02 561.29 705.6 558.12L706.06 557.92C706.36 557.8 706.8 557.6 707.39 557.33C707.59 557.24 707.74 557.17 707.84 557.13ZM708.93 554.45L707.02 555.3C706.92 555.34 706.76 555.42 706.56 555.51C705.98 555.77 705.56 555.96 705.28 556.08L704.83 556.28C697.41 559.37 689.85 561.55 682.14 562.8C674.4 564.06 666.52 564.39 658.48 563.79L657.92 563.79C657.64 563.79 657.2 563.75 656.62 563.67C656.3 563.63 656.05 563.6 655.89 563.59L653.92 563.39L653.44 563.39C645.48 562.36 637.85 560.45 630.55 557.68C623.23 554.91 616.25 551.26 609.6 546.73L609.2 546.46L607.45 545.21L605.88 544.1L605.51 543.82C599.12 538.92 593.45 533.43 588.52 527.35C583.59 521.29 579.39 514.64 575.91 507.41C575.88 507.35 575.8 507.21 575.77 507.15C575.74 507.1 575.72 507.05 575.7 507L574.81 505.04C574.47 504.28 574.21 503.7 574.05 503.31L573.86 502.84C570.73 495.41 568.54 487.82 567.27 480.09C566.01 472.34 565.67 464.43 566.27 456.38L566.27 455.85C566.27 455.57 566.31 455.12 566.39 454.52C566.43 454.2 566.46 453.96 566.48 453.8L566.6 452.56L566.67 451.85C566.68 451.75 566.68 451.63 566.68 451.54C566.68 451.48 566.68 451.41 566.68 451.35C567.71 443.39 569.61 435.76 572.38 428.46C575.16 421.14 578.81 414.15 583.34 407.49L583.61 407.11C583.79 406.83 584.08 406.44 584.46 405.91C584.58 405.75 584.67 405.63 584.73 405.55C584.93 405.28 585.24 404.84 585.67 404.23C585.81 404.03 585.92 403.88 585.99 403.78C586.01 403.74 586.08 403.64 586.15 403.56C586.19 403.5 586.23 403.45 586.26 403.41C591.14 397.01 596.62 391.34 602.68 386.4C608.75 381.44 615.41 377.22 622.65 373.72L623.09 373.51L624.84 372.71L626.71 371.86L627.13 371.69C634.63 368.56 642.28 366.37 650.09 365.13C657.81 363.9 665.67 363.59 673.68 364.2L674.18 364.2L676.13 364.4L678.24 364.62L678.71 364.62C686.67 365.65 694.31 367.55 701.61 370.33C708.93 373.11 715.92 376.76 722.57 381.29L722.95 381.55L724.55 382.7L726.3 383.93L726.67 384.21C733.09 389.1 738.77 394.59 743.74 400.67C748.67 406.73 752.89 413.37 756.38 420.6L756.58 421.03L757.37 422.78C757.73 423.57 758.01 424.18 758.19 424.6C758.23 424.75 758.29 424.91 758.37 425.07C761.48 432.5 763.71 440.18 764.97 447.92C766.23 455.66 766.55 463.55 765.95 471.6L765.95 472.2C765.95 472.41 765.92 472.76 765.85 473.25C765.81 473.59 765.77 473.85 765.76 474.03C765.71 474.61 765.64 475.29 765.54 476.08L765.53 476.65C764.5 484.6 762.6 492.22 759.84 499.51C757.06 506.83 753.4 513.82 748.87 520.48L748.6 520.88L747.34 522.62L746.24 524.16L745.96 524.53C741.06 530.92 735.57 536.59 729.49 541.53C723.43 546.45 716.78 550.65 709.55 554.13L708.93 554.45Z" fill="#FFFFFF" fill-opacity="1.000000" fill-rule="evenodd"/>
	</g>
	<g opacity="0.100000">
		<path id="Vector (Граница)" d="M610.46 400.2C604.3 405.58 598.95 411.89 594.42 419.14C589.89 426.39 586.55 433.96 584.42 441.86C582.28 449.75 581.34 457.97 581.59 466.52C581.85 475.06 583.29 483.21 585.9 490.96C588.51 498.72 592.29 506.07 597.25 513.04C602.21 520 607.93 525.98 614.4 530.97C620.88 535.97 628.11 539.99 636.11 543.02C644.1 546.05 652.17 547.85 660.34 548.41C668.5 548.97 676.74 548.29 685.07 546.37C693.4 544.45 701.12 541.46 708.21 537.39C715.31 533.32 721.79 528.18 727.65 521.96C733.52 515.74 738.27 508.96 741.91 501.64C745.55 494.31 748.08 486.43 749.5 478.01C750.92 469.58 751.1 461.3 750.06 453.19C749.02 445.08 746.75 437.12 743.25 429.32C740.95 424.21 738.2 419.41 735.01 414.93C731.82 410.45 728.18 406.28 724.1 402.43C720.02 398.59 715.64 395.21 710.98 392.29C706.32 389.37 701.36 386.91 696.12 384.92C690.87 382.93 685.54 381.48 680.11 380.57C674.68 379.66 669.17 379.29 663.56 379.46C657.96 379.62 652.47 380.33 647.11 381.56C641.75 382.8 636.51 384.57 631.4 386.87C623.6 390.38 616.62 394.82 610.46 400.2ZM586.35 442.38C588.43 434.67 591.69 427.28 596.11 420.2C600.54 413.13 605.76 406.96 611.78 401.71C617.79 396.46 624.61 392.12 632.22 388.69C637.21 386.44 642.33 384.72 647.56 383.51C652.8 382.3 658.15 381.62 663.62 381.46C669.1 381.29 674.48 381.65 679.78 382.54C685.08 383.43 690.29 384.85 695.41 386.79C700.53 388.74 705.37 391.13 709.92 393.98C714.47 396.83 718.74 400.14 722.73 403.89C726.72 407.65 730.27 411.71 733.38 416.09C736.5 420.47 739.18 425.15 741.42 430.14C744.84 437.76 747.06 445.52 748.08 453.45C749.09 461.37 748.91 469.44 747.52 477.67C746.14 485.9 743.67 493.59 740.11 500.74C736.56 507.9 731.92 514.51 726.2 520.59C720.47 526.66 714.15 531.68 707.22 535.66C700.29 539.63 692.76 542.55 684.62 544.42C676.49 546.29 668.44 546.96 660.47 546.41C652.5 545.87 644.62 544.11 636.82 541.15C629.01 538.19 621.95 534.27 615.63 529.39C609.3 524.51 603.72 518.67 598.88 511.88C594.04 505.08 590.34 497.89 587.79 490.32C585.25 482.76 583.85 474.8 583.59 466.46C583.34 458.12 584.26 450.09 586.35 442.38ZM635.87 439.98C637.85 440.96 639.98 441.65 642.26 442.03C644.54 442.41 646.78 442.46 648.97 442.18C651.17 441.9 653.32 441.28 655.43 440.33C658.3 439.04 660.74 437.33 662.74 435.21C664.74 433.09 666.3 430.55 667.42 427.6C668.54 424.66 669.05 421.72 668.97 418.81C668.88 415.9 668.19 413 666.9 410.12C665.95 408.02 664.75 406.13 663.3 404.46C661.85 402.79 660.14 401.35 658.18 400.12C656.22 398.89 654.18 397.99 652.04 397.41C649.91 396.83 647.68 396.58 645.37 396.64C643.06 396.71 640.86 397.1 638.76 397.8C636.67 398.51 634.68 399.53 632.79 400.87C630.91 402.21 629.29 403.76 627.94 405.51C626.59 407.26 625.51 409.21 624.68 411.37C623.86 413.54 623.38 415.72 623.23 417.93C623.08 420.13 623.26 422.36 623.78 424.61C624.29 426.87 625.1 428.95 626.2 430.87C627.3 432.79 628.7 434.54 630.38 436.13C632.06 437.71 633.89 439 635.87 439.98ZM648.72 440.19C646.72 440.45 644.68 440.41 642.59 440.06C640.52 439.71 638.57 439.08 636.76 438.19C634.96 437.29 633.28 436.12 631.75 434.67C630.21 433.22 628.94 431.63 627.94 429.88C626.94 428.12 626.2 426.22 625.73 424.17C625.25 422.11 625.09 420.08 625.22 418.06C625.36 416.05 625.8 414.06 626.55 412.08C627.3 410.11 628.29 408.33 629.53 406.73C630.76 405.13 632.24 403.72 633.95 402.5C635.67 401.28 637.49 400.34 639.4 399.7C641.31 399.06 643.33 398.71 645.43 398.64C647.54 398.58 649.57 398.81 651.52 399.34C653.46 399.87 655.33 400.69 657.12 401.81C658.91 402.93 660.46 404.25 661.79 405.78C663.12 407.3 664.21 409.02 665.08 410.94C666.26 413.57 666.88 416.21 666.96 418.87C667.04 421.53 666.57 424.2 665.55 426.89C664.53 429.59 663.1 431.9 661.28 433.84C659.46 435.77 657.23 437.33 654.6 438.51C652.68 439.38 650.72 439.94 648.72 440.19ZM700.33 464.47C702.32 465.46 704.44 466.14 706.72 466.52C709 466.91 711.24 466.96 713.43 466.67C715.63 466.39 717.78 465.78 719.89 464.83C722.76 463.53 725.2 461.83 727.2 459.7C729.2 457.58 730.76 455.05 731.88 452.1C733 449.15 733.52 446.22 733.43 443.3C733.34 440.39 732.65 437.49 731.36 434.62C730.41 432.51 729.21 430.62 727.76 428.95C726.31 427.29 724.6 425.84 722.64 424.61C720.68 423.39 718.64 422.48 716.5 421.9C714.37 421.32 712.14 421.07 709.84 421.14C707.52 421.21 705.32 421.59 703.22 422.3C701.13 423 699.14 424.02 697.26 425.36C695.37 426.7 693.76 428.25 692.4 430C691.05 431.75 689.97 433.71 689.14 435.87C688.32 438.03 687.84 440.21 687.69 442.42C687.54 444.63 687.72 446.86 688.24 449.11C688.76 451.36 689.57 453.45 690.67 455.37C691.77 457.28 693.16 459.04 694.84 460.62C696.52 462.2 698.35 463.49 700.33 464.47ZM713.18 464.69C711.18 464.95 709.14 464.9 707.06 464.55C704.98 464.2 703.03 463.58 701.23 462.68C699.42 461.78 697.75 460.61 696.21 459.16C694.68 457.72 693.41 456.12 692.4 454.37C691.4 452.62 690.66 450.71 690.19 448.66C689.71 446.6 689.55 444.57 689.68 442.56C689.82 440.54 690.27 438.55 691.02 436.58C691.76 434.61 692.75 432.82 693.99 431.22C695.22 429.63 696.7 428.22 698.42 426.99C700.13 425.77 701.95 424.84 703.86 424.19C705.77 423.55 707.78 423.2 709.89 423.14C712 423.07 714.03 423.31 715.98 423.84C717.93 424.36 719.79 425.19 721.58 426.31C723.37 427.43 724.93 428.75 726.25 430.27C727.58 431.79 728.67 433.51 729.54 435.44C730.72 438.06 731.35 440.7 731.42 443.36C731.5 446.02 731.03 448.7 730.01 451.39C728.99 454.08 727.56 456.39 725.74 458.33C723.92 460.27 721.69 461.82 719.07 463C717.14 463.87 715.18 464.43 713.18 464.69ZM660 460.98C659.71 461.56 659.5 462.19 659.39 462.87C659.27 463.53 659.25 464.19 659.33 464.84C659.41 465.49 659.59 466.14 659.87 466.77C660.05 467.18 660.27 467.57 660.53 467.93C660.79 468.3 661.08 468.63 661.41 468.94C661.74 469.25 662.09 469.53 662.47 469.76C662.85 470 663.25 470.2 663.67 470.36C664.1 470.52 664.53 470.64 664.96 470.71C665.4 470.78 665.85 470.81 666.3 470.8C666.74 470.78 667.17 470.73 667.59 470.63C668.04 470.53 668.48 470.38 668.9 470.19C669.52 469.9 670.08 469.54 670.57 469.11C671.06 468.68 671.49 468.17 671.85 467.59C672.2 467.01 672.47 466.4 672.64 465.77C672.81 465.13 672.88 464.47 672.85 463.79C672.83 463.11 672.71 462.46 672.5 461.84C672.29 461.22 671.99 460.63 671.59 460.07C671.19 459.52 670.73 459.04 670.22 458.64C669.7 458.24 669.12 457.92 668.48 457.68C667.84 457.43 667.19 457.29 666.54 457.25C665.89 457.2 665.23 457.25 664.56 457.41C663.89 457.56 663.27 457.8 662.71 458.12C662.14 458.45 661.62 458.86 661.15 459.35C660.68 459.85 660.3 460.39 660 460.98ZM661.32 464.62C661.26 464.16 661.27 463.69 661.36 463.21C661.44 462.73 661.59 462.29 661.79 461.87C662 461.46 662.27 461.08 662.6 460.73C662.93 460.38 663.3 460.09 663.7 459.86C664.1 459.63 664.53 459.46 665.01 459.36C665.48 459.25 665.94 459.21 666.4 459.24C666.86 459.27 667.32 459.38 667.77 459.55C668.22 459.72 668.63 459.94 669 460.23C669.36 460.51 669.68 460.84 669.96 461.24C670.25 461.63 670.46 462.04 670.61 462.48C670.76 462.92 670.84 463.38 670.85 463.86C670.87 464.34 670.82 464.8 670.7 465.25C670.58 465.7 670.4 466.13 670.14 466.54C669.89 466.95 669.59 467.3 669.25 467.61C668.9 467.92 668.51 468.17 668.07 468.37C667.79 468.5 667.51 468.6 667.21 468.67C666.9 468.74 666.57 468.79 666.24 468.8C665.92 468.81 665.6 468.79 665.29 468.74C664.98 468.68 664.68 468.6 664.38 468.49C664.08 468.37 663.8 468.23 663.53 468.07C663.27 467.9 663.02 467.71 662.78 467.49C662.55 467.27 662.35 467.03 662.16 466.78C661.98 466.52 661.83 466.25 661.7 465.95C661.5 465.52 661.38 465.08 661.32 464.62ZM611.38 504.53C613.36 505.51 615.49 506.2 617.77 506.58C620.05 506.96 622.28 507.01 624.48 506.73C626.67 506.45 628.82 505.83 630.93 504.88C633.81 503.59 636.25 501.88 638.25 499.76C640.25 497.64 641.8 495.1 642.93 492.15C644.04 489.2 644.56 486.27 644.47 483.36C644.39 480.45 643.7 477.55 642.4 474.67C641.46 472.56 640.26 470.68 638.81 469.01C637.35 467.34 635.65 465.89 633.69 464.67C631.73 463.44 629.68 462.54 627.55 461.96C625.41 461.38 623.19 461.12 620.88 461.19C618.57 461.26 616.37 461.65 614.27 462.35C612.17 463.06 610.18 464.08 608.3 465.42C606.42 466.76 604.8 468.31 603.45 470.06C602.1 471.81 601.01 473.76 600.19 475.92C599.37 478.08 598.88 480.27 598.73 482.47C598.58 484.68 598.77 486.91 599.28 489.16C599.8 491.42 600.61 493.5 601.71 495.42C602.81 497.34 604.2 499.09 605.88 500.68C607.57 502.26 609.4 503.54 611.38 504.53ZM624.22 504.74C622.22 505 620.18 504.96 618.1 504.61C616.02 504.26 614.08 503.63 612.27 502.74C610.46 501.84 608.79 500.67 607.26 499.22C605.72 497.77 604.45 496.17 603.45 494.42C602.44 492.67 601.7 490.77 601.23 488.71C600.76 486.66 600.59 484.62 600.73 482.61C600.87 480.6 601.31 478.6 602.06 476.63C602.81 474.66 603.8 472.88 605.03 471.28C606.27 469.68 607.74 468.27 609.46 467.05C611.18 465.83 613 464.89 614.91 464.25C616.82 463.61 618.83 463.25 620.94 463.19C623.05 463.13 625.08 463.36 627.02 463.89C628.97 464.42 630.84 465.24 632.63 466.36C634.41 467.48 635.97 468.8 637.3 470.32C638.62 471.84 639.72 473.57 640.58 475.49C641.76 478.12 642.39 480.76 642.47 483.42C642.55 486.08 642.08 488.75 641.05 491.44C640.03 494.13 638.61 496.45 636.79 498.38C634.96 500.32 632.74 501.88 630.11 503.06C628.19 503.92 626.23 504.49 624.22 504.74ZM675.89 529C677.87 529.98 680.01 530.66 682.28 531.05C684.56 531.43 686.8 531.48 689 531.19C691.19 530.91 693.34 530.29 695.45 529.34C698.32 528.05 700.76 526.34 702.76 524.21C704.75 522.09 706.31 519.56 707.43 516.61C708.55 513.66 709.06 510.73 708.97 507.81C708.89 504.9 708.19 502.01 706.9 499.13C705.95 497.02 704.75 495.13 703.3 493.47C701.85 491.8 700.14 490.35 698.18 489.13C696.22 487.9 694.17 487 692.04 486.42C689.9 485.84 687.68 485.59 685.37 485.66C683.06 485.73 680.85 486.11 678.76 486.82C676.66 487.53 674.67 488.55 672.79 489.89C670.91 491.23 669.29 492.78 667.94 494.53C666.59 496.28 665.51 498.24 664.68 500.4C663.86 502.56 663.38 504.74 663.23 506.95C663.08 509.16 663.27 511.39 663.78 513.64C664.3 515.89 665.11 517.98 666.22 519.9C667.32 521.81 668.71 523.57 670.39 525.15C672.08 526.73 673.91 528.02 675.89 529ZM688.74 529.21C686.74 529.47 684.69 529.42 682.61 529.07C680.53 528.73 678.59 528.1 676.78 527.21C674.97 526.31 673.3 525.14 671.77 523.69C670.23 522.25 668.96 520.65 667.95 518.9C666.95 517.15 666.21 515.25 665.73 513.19C665.26 511.14 665.09 509.1 665.23 507.09C665.36 505.07 665.81 503.08 666.55 501.11C667.3 499.14 668.29 497.35 669.53 495.75C670.76 494.15 672.23 492.74 673.95 491.52C675.67 490.3 677.48 489.36 679.4 488.72C681.31 488.07 683.32 487.72 685.43 487.66C687.54 487.59 689.57 487.83 691.51 488.35C693.46 488.88 695.33 489.7 697.12 490.82C698.91 491.94 700.46 493.26 701.79 494.78C703.12 496.3 704.21 498.03 705.08 499.95C706.26 502.58 706.89 505.22 706.97 507.87C707.05 510.53 706.58 513.21 705.56 515.9C704.54 518.59 703.12 520.9 701.29 522.84C699.47 524.78 697.25 526.34 694.62 527.52C692.7 528.38 690.74 528.95 688.74 529.21Z" fill="#FFFFFF" fill-opacity="1.000000" fill-rule="evenodd"/>
	</g>
</svg>
