<svg width="58.000000" height="58.000000" viewBox="0 0 58 58" fill="none" xmlns="http://www.w3.org/2000/svg" xmlns:xlink="http://www.w3.org/1999/xlink">
	<desc>
			Created with Pixso.
	</desc>
	<defs/>
	<g opacity="0.160000">
		<rect id="stroke" width="56.000000" height="16.000000" transform="translate(0.999756 1.000000)" fill="#FFFFFF" fill-opacity="0"/>
		<path id="stroke" d="M-0.01 17C-0.01 15.84 0.11 14.7 0.34 13.57C0.56 12.47 0.89 11.41 1.33 10.38C1.76 9.37 2.28 8.4 2.9 7.49C3.51 6.58 4.2 5.75 4.97 4.97C5.75 4.2 6.59 3.51 7.49 2.9C8.4 2.28 9.37 1.76 10.38 1.33C11.41 0.9 12.47 0.57 13.57 0.34C14.7 0.11 15.84 0 16.99 0L40.99 0C42.15 0 43.29 0.11 44.42 0.34C45.52 0.57 46.58 0.9 47.61 1.33C48.62 1.76 49.59 2.28 50.5 2.9C51.4 3.51 52.24 4.2 53.02 4.97C53.79 5.75 54.48 6.58 55.09 7.49C55.71 8.4 56.23 9.37 56.66 10.38C57.09 11.41 57.42 12.47 57.65 13.57C57.88 14.7 57.99 15.84 57.99 17L55.99 17C55.99 14.96 55.6 13.01 54.82 11.16C54.44 10.26 53.98 9.41 53.43 8.61C52.89 7.81 52.28 7.07 51.6 6.39C50.92 5.71 50.18 5.1 49.38 4.56C48.58 4.01 47.73 3.55 46.83 3.17C44.98 2.39 43.03 2 40.99 2L16.99 2C14.96 2 13.01 2.39 11.16 3.17C10.26 3.55 9.41 4.01 8.61 4.56C7.81 5.1 7.07 5.71 6.39 6.39C5.71 7.07 5.1 7.81 4.56 8.61C4.01 9.41 3.55 10.26 3.17 11.16C2.39 13.01 1.99 14.96 1.99 17L-0.01 17Z" fill="#ECECF3" fill-opacity="1.000000" fill-rule="evenodd"/>
	</g>
	<path id="VK" d="M39.09 31.17C40.02 32.08 41 32.95 41.83 33.95C42.2 34.4 42.55 34.86 42.82 35.38C43.2 36.12 42.85 36.94 42.2 36.98L38.12 36.98C37.07 37.07 36.23 36.64 35.52 35.91C34.96 35.33 34.43 34.71 33.89 34.11C33.67 33.87 33.43 33.64 33.16 33.45C32.6 33.09 32.12 33.2 31.8 33.79C31.47 34.38 31.4 35.04 31.37 35.71C31.32 36.68 31.03 36.93 30.07 36.98C28.01 37.08 26.05 36.76 24.23 35.71C22.63 34.79 21.39 33.48 20.31 32C18.2 29.12 16.59 25.95 15.14 22.69C14.81 21.96 15.05 21.57 15.85 21.55C17.18 21.53 18.51 21.53 19.84 21.55C20.38 21.56 20.74 21.87 20.95 22.39C21.67 24.18 22.55 25.88 23.66 27.45C23.95 27.87 24.25 28.29 24.68 28.59C25.15 28.91 25.51 28.81 25.74 28.28C25.88 27.94 25.94 27.57 25.97 27.21C26.08 25.97 26.09 24.73 25.91 23.49C25.79 22.72 25.36 22.22 24.6 22.07C24.21 22 24.26 21.85 24.45 21.62C24.78 21.24 25.09 21 25.7 21L30.31 21C31.04 21.14 31.2 21.47 31.3 22.21L31.3 27.38C31.3 27.66 31.45 28.51 31.96 28.7C32.36 28.83 32.63 28.5 32.88 28.24C33.98 27.06 34.77 25.66 35.47 24.21C35.78 23.58 36.05 22.92 36.31 22.26C36.5 21.77 36.81 21.53 37.35 21.54L41.79 21.54C41.92 21.54 42.06 21.54 42.18 21.56C42.93 21.69 43.14 22.02 42.9 22.75C42.54 23.91 41.83 24.87 41.14 25.84C40.4 26.88 39.61 27.88 38.88 28.91C38.2 29.87 38.26 30.34 39.09 31.17Z" fill="#4680C2" fill-opacity="1.000000" fill-rule="nonzero"/>
	<g opacity="0.160000">
		<rect id="stroke" width="56.000000" height="16.000000" transform="matrix(1 0 0 -1 0.999756 57)" fill="#FFFFFF" fill-opacity="0"/>
		<path id="stroke" d="M-0.01 41Q-0.01 42.73 0.34 44.42Q0.68 46.07 1.33 47.61Q1.97 49.13 2.9 50.5Q3.82 51.86 4.97 53.02Q6.13 54.17 7.49 55.09Q8.86 56.02 10.38 56.66Q11.92 57.31 13.57 57.65Q15.26 58 16.99 58L40.99 58Q42.73 58 44.42 57.65Q46.07 57.31 47.61 56.66Q49.13 56.02 50.5 55.09Q51.86 54.17 53.02 53.02Q54.17 51.86 55.09 50.5Q56.02 49.13 56.66 47.61Q57.31 46.07 57.65 44.42Q57.99 42.73 57.99 41L55.99 41Q55.99 44.05 54.82 46.83Q54.25 48.17 53.43 49.38Q52.62 50.58 51.6 51.6Q50.58 52.62 49.38 53.43Q48.17 54.25 46.83 54.82Q44.05 56 40.99 56L16.99 56Q13.94 56 11.16 54.82Q9.82 54.25 8.61 53.43Q7.41 52.62 6.39 51.6Q5.36 50.58 4.56 49.38Q3.74 48.17 3.17 46.83Q1.99 44.05 1.99 41L-0.01 41Z" fill="#ECECF3" fill-opacity="1.000000" fill-rule="evenodd"/>
	</g>
</svg>
