<svg width="24" height="24" viewBox="0 0 24 24" fill="none" xmlns="http://www.w3.org/2000/svg">
<g filter="url(#filter0_b_1_6746)">
<path d="M12.0461 22.811H12.0415C10.2082 22.8103 8.40684 22.3526 6.80689 21.484L1 23L2.55402 17.3509C1.59542 15.6976 1.09102 13.8223 1.09184 11.9009C1.09424 5.89019 6.00821 1 12.046 1C14.9763 1.00126 17.7266 2.13656 19.7947 4.19719C21.8628 6.25771 23.0012 8.99665 23 11.9095C22.9976 17.9188 18.0856 22.8085 12.0461 22.811Z" fill="#25D366"/>
<path d="M17.4606 14.3373C17.393 14.2309 17.2126 14.167 16.9419 14.0393C16.6713 13.9116 15.3407 13.2946 15.0926 13.2094C14.8445 13.1243 14.664 13.0818 14.4836 13.3371C14.3033 13.5924 13.7846 14.167 13.6267 14.3373C13.4688 14.5075 13.3109 14.5288 13.0404 14.4011C12.7697 14.2734 11.8977 14.0041 10.8639 13.135C10.0594 12.4586 9.51619 11.6233 9.35832 11.3679C9.20044 11.1126 9.34149 10.9746 9.47697 10.8474C9.59874 10.733 9.74764 10.5494 9.88295 10.4005C10.0183 10.2515 10.0634 10.1451 10.1536 9.97495C10.2438 9.80464 10.1987 9.65573 10.131 9.52804C10.0634 9.40035 9.52211 8.14477 9.29658 7.63401C9.07688 7.13661 8.85377 7.20399 8.68765 7.19614C8.52997 7.18867 8.34934 7.1871 8.16894 7.1871C7.98852 7.1871 7.6953 7.25094 7.44723 7.50632C7.19916 7.7617 6.5 8.37884 6.5 9.63432C6.5 10.8899 7.46977 12.1029 7.6051 12.2731C7.74041 12.4434 9.5135 15.0198 12.2285 16.1247C12.8742 16.3876 13.3783 16.5445 13.7713 16.6621C14.4197 16.8563 15.0097 16.8289 15.476 16.7632C15.996 16.69 17.0772 16.1461 17.3028 15.5503C17.5282 14.9544 17.5282 14.4436 17.4606 14.3373Z" fill="white"/>
</g>
<defs>
<filter id="filter0_b_1_6746" x="-16" y="-16" width="56" height="56" filterUnits="userSpaceOnUse" color-interpolation-filters="sRGB">
<feFlood flood-opacity="0" result="BackgroundImageFix"/>
<feGaussianBlur in="BackgroundImageFix" stdDeviation="8"/>
<feComposite in2="SourceAlpha" operator="in" result="effect1_backgroundBlur_1_6746"/>
<feBlend mode="normal" in="SourceGraphic" in2="effect1_backgroundBlur_1_6746" result="shape"/>
</filter>
</defs>
</svg>
