<svg width="80.000000" height="80.000000" viewBox="0 0 80 80" fill="none" xmlns="http://www.w3.org/2000/svg" xmlns:xlink="http://www.w3.org/1999/xlink">
	<desc>
			Created with Pixso.
	</desc>
	<defs>
		<clipPath id="clip28_5974">
			<rect id="Iconly / Stroke / Like" width="40.000000" height="40.000000" transform="translate(20.000000 20.000000)" fill="white" fill-opacity="0"/>
		</clipPath>
		<clipPath id="clip28_5978">
			<rect id="Iconly / Bold / Gear" rx="14.000000" width="28.000000" height="28.000000" transform="translate(40.000000 12.000000)" fill="white" fill-opacity="0"/>
		</clipPath>
		<clipPath id="clip28_5973">
			<rect id="icon" rx="40.000000" width="80.000000" height="80.000000" fill="white" fill-opacity="0"/>
		</clipPath>
	</defs>
	<rect id="icon" rx="40.000000" width="80.000000" height="80.000000" fill="#F6F6F9" fill-opacity="1.000000"/>
	<g clip-path="url(#clip28_5973)">
		<rect id="Iconly / Stroke / Like" width="40.000000" height="40.000000" transform="translate(20.000000 20.000000)" fill="#FFFFFF" fill-opacity="0"/>
		<g clip-path="url(#clip28_5974)">
			<path id="Vector" d="M54 52.5C54 53.32 53.32 54 52.5 54C51.67 54 51 53.32 51 52.5C51 51.67 51.67 51 52.5 51C53.32 51 54 51.67 54 52.5Z" fill="#252525" fill-opacity="1.000000" fill-rule="evenodd"/>
			<path id="Vector" d="M48.36 55.44C49.82 58.97 56.99 58.48 56.99 54.1L56.99 36.59C56.99 32.82 50.06 32.45 48.36 35.25C45.32 33.67 41.67 31.24 42.03 27.22C42.89 19.68 36.44 20.65 34.37 27.71C33.4 30.26 33.89 32.33 34.74 34.52L24.64 34.52C20.63 34.64 19.9 39.38 22.58 41.09C21.12 42.79 21.6 45.83 23.79 47.05C22.58 48.75 23.43 52.03 25.37 52.88C24.4 54.71 25.62 57.63 29.39 57.87C35.59 58.11 42.52 57.99 48.36 55.44ZM49.45 54.1C49.45 57.14 55.66 57.14 55.66 54.1L55.66 36.59C55.66 34.15 49.45 34.15 49.45 36.59L49.45 54.1ZM48.12 54.1C42.52 56.65 35.59 56.78 29.39 56.41C25.62 56.29 25.74 52.76 27.93 52.76C28.66 52.76 29.26 52.76 29.87 52.76C30.6 52.76 30.85 51.79 29.87 51.79C28.66 51.79 27.56 51.79 26.35 51.79C24.64 51.67 23.31 47.17 26.35 47.17C27.2 47.17 28.17 47.17 28.78 47.17C29.75 47.17 29.75 46.07 28.78 46.07C27.81 46.07 26.71 46.07 25.74 46.07C22.7 46.07 21.85 41.45 25.25 41.45L27.81 41.45C28.78 41.45 28.78 40.36 27.81 40.36C26.71 40.36 25.74 40.36 24.64 40.36C21.6 40.36 21.6 35.98 24.64 35.86L36.68 35.86C35.59 32.82 34.62 30.99 35.59 28.07C37.17 22.84 41.43 21.26 40.7 27.1C40.21 31.72 44.1 34.64 48.12 36.59L48.12 54.1Z" fill="#252525" fill-opacity="1.000000" fill-rule="evenodd"/>
			<path id="Vector" d="M56.99 54.1L56.99 36.59C56.99 32.82 50.06 32.45 48.36 35.25C45.32 33.67 41.67 31.24 42.03 27.22C42.89 19.68 36.44 20.65 34.37 27.71C33.4 30.26 33.89 32.33 34.74 34.52L24.64 34.52C20.63 34.64 19.9 39.38 22.58 41.09C21.12 42.79 21.6 45.83 23.79 47.05C22.58 48.75 23.43 52.03 25.37 52.88C24.4 54.71 25.62 57.63 29.39 57.87C35.59 58.11 42.52 57.99 48.36 55.44C49.82 58.97 56.99 58.48 56.99 54.1ZM55.66 54.1L55.66 36.59C55.66 34.15 49.45 34.15 49.45 36.59L49.45 54.1C49.45 57.14 55.66 57.14 55.66 54.1ZM29.39 56.41C25.62 56.29 25.74 52.76 27.93 52.76C28.66 52.76 29.26 52.76 29.87 52.76C30.6 52.76 30.85 51.79 29.87 51.79C28.66 51.79 27.56 51.79 26.35 51.79C24.64 51.67 23.31 47.17 26.35 47.17C27.2 47.17 28.17 47.17 28.78 47.17C29.75 47.17 29.75 46.07 28.78 46.07C27.81 46.07 26.71 46.07 25.74 46.07C22.7 46.07 21.85 41.45 25.25 41.45L27.81 41.45C28.78 41.45 28.78 40.36 27.81 40.36C26.71 40.36 25.74 40.36 24.64 40.36C21.6 40.36 21.6 35.98 24.64 35.86L36.68 35.86C35.59 32.82 34.62 30.99 35.59 28.07C37.17 22.84 41.43 21.26 40.7 27.1C40.21 31.72 44.1 34.64 48.12 36.59L48.12 54.1C42.52 56.65 35.59 56.78 29.39 56.41Z" stroke="#252525" stroke-opacity="1.000000" stroke-width="0.600000"/>
		</g>
		<rect id="Iconly / Bold / Gear" rx="14.000000" width="28.000000" height="28.000000" transform="translate(40.000000 12.000000)" fill="#F6F6F9" fill-opacity="1.000000"/>
		<g clip-path="url(#clip28_5978)">
			<path id="shape" d="M63.45 23.62L64.02 23.62C64.28 23.62 64.53 23.72 64.71 23.91C64.89 24.09 65 24.34 65 24.6L65 27.39C65 27.65 64.89 27.9 64.71 28.08C64.53 28.27 64.28 28.37 64.02 28.37L63.45 28.37C63.17 28.39 62.9 28.49 62.67 28.65C62.44 28.81 62.26 29.04 62.15 29.3C62.13 29.34 62.12 29.38 62.1 29.43C61.99 29.69 61.96 29.97 62 30.25C62.05 30.53 62.17 30.79 62.36 31L62.76 31.4C62.95 31.59 63.05 31.83 63.05 32.09C63.05 32.35 62.95 32.6 62.76 32.78L60.78 34.76C60.6 34.95 60.35 35.05 60.09 35.05C59.83 35.05 59.59 34.95 59.4 34.76L59 34.36C58.79 34.17 58.53 34.05 58.25 34C57.97 33.96 57.69 33.99 57.43 34.1C57.38 34.12 57.34 34.13 57.3 34.15C57.04 34.26 56.81 34.44 56.65 34.67C56.49 34.9 56.39 35.17 56.37 35.45L56.37 36.02C56.37 36.28 56.27 36.53 56.08 36.71C55.9 36.89 55.65 37 55.39 37L52.6 37C52.34 37 52.09 36.89 51.91 36.71C51.72 36.53 51.62 36.28 51.62 36.02L51.62 35.45C51.6 35.17 51.5 34.9 51.34 34.67C51.18 34.44 50.95 34.26 50.69 34.15C50.65 34.13 50.61 34.12 50.56 34.1C50.3 33.99 50.02 33.96 49.74 34C49.46 34.05 49.2 34.17 48.99 34.36L48.59 34.76C48.4 34.95 48.16 35.05 47.9 35.05C47.64 35.05 47.39 34.95 47.21 34.76L45.23 32.78C45.04 32.6 44.94 32.35 44.94 32.09C44.94 31.83 45.04 31.59 45.23 31.4L45.63 31C45.82 30.79 45.94 30.53 45.99 30.25C46.03 29.97 46 29.69 45.89 29.43C45.87 29.38 45.86 29.34 45.84 29.3C45.73 29.04 45.55 28.81 45.32 28.65C45.09 28.49 44.82 28.39 44.54 28.37L43.97 28.37C43.71 28.37 43.46 28.27 43.28 28.08C43.1 27.9 43 27.65 43 27.39L43 24.6C43 24.34 43.1 24.09 43.28 23.91C43.46 23.72 43.71 23.62 43.97 23.62L44.54 23.62C44.82 23.6 45.09 23.5 45.32 23.34C45.55 23.18 45.73 22.95 45.84 22.69C45.86 22.65 45.87 22.61 45.89 22.56C46 22.3 46.03 22.02 45.99 21.74C45.94 21.46 45.82 21.2 45.63 20.99L45.23 20.59C45.04 20.41 44.94 20.16 44.94 19.9C44.94 19.64 45.04 19.39 45.23 19.21L47.21 17.23C47.39 17.04 47.64 16.94 47.9 16.94C48.16 16.94 48.4 17.04 48.59 17.23L48.99 17.63C49.2 17.82 49.46 17.94 49.74 17.99C50.02 18.03 50.3 18 50.56 17.89C50.61 17.87 50.65 17.86 50.69 17.84C50.95 17.73 51.18 17.55 51.34 17.32C51.5 17.09 51.6 16.82 51.62 16.54L51.62 15.97C51.62 15.71 51.72 15.46 51.91 15.28C52.09 15.1 52.34 15 52.6 15L55.39 15C55.65 15 55.9 15.1 56.08 15.28C56.27 15.46 56.37 15.71 56.37 15.97L56.37 16.54C56.39 16.82 56.49 17.09 56.65 17.32C56.81 17.55 57.04 17.73 57.3 17.84C57.34 17.86 57.38 17.87 57.43 17.89C57.69 18 57.97 18.03 58.25 17.99C58.53 17.94 58.79 17.82 59 17.63L59.4 17.23C59.59 17.04 59.83 16.94 60.09 16.94C60.35 16.94 60.6 17.04 60.78 17.23L62.76 19.21C62.95 19.39 63.05 19.64 63.05 19.9C63.05 20.16 62.95 20.41 62.76 20.59L62.36 20.99C62.17 21.2 62.05 21.46 62 21.74C61.96 22.02 61.99 22.3 62.1 22.56C62.1 22.58 62.11 22.6 62.12 22.61C62.13 22.64 62.14 22.67 62.15 22.69C62.26 22.95 62.44 23.18 62.67 23.34C62.9 23.5 63.17 23.6 63.45 23.62ZM53.95 28.83C55.54 28.83 56.83 27.54 56.83 25.95C56.83 24.36 55.54 23.06 53.95 23.06C52.36 23.06 51.06 24.36 51.06 25.95C51.06 27.54 52.36 28.83 53.95 28.83Z" fill="#048159" fill-opacity="1.000000" fill-rule="evenodd"/>
		</g>
	</g>
</svg>
