<svg width="80.000000" height="80.000000" viewBox="0 0 80 80" fill="none" xmlns="http://www.w3.org/2000/svg" xmlns:xlink="http://www.w3.org/1999/xlink">
	<desc>
			Created with Pixso.
	</desc>
	<defs>
		<clipPath id="clip711_972">
			<rect id="Iconly / Stroke / Logistic" width="40.000000" height="40.000000" transform="translate(20.000000 20.000000)" fill="white" fill-opacity="0"/>
		</clipPath>
		<clipPath id="clip711_971">
			<rect id="icon" rx="40.000000" width="80.000000" height="80.000000" fill="white" fill-opacity="0"/>
		</clipPath>
	</defs>
	<rect id="icon" rx="40.000000" width="80.000000" height="80.000000" fill="#F6F6F9" fill-opacity="1.000000"/>
	<g clip-path="url(#clip711_971)">
		<rect id="Iconly / Stroke / Logistic" width="40.000000" height="40.000000" transform="translate(20.000000 20.000000)" fill="#FFFFFF" fill-opacity="0"/>
		<g clip-path="url(#clip711_972)">
			<path id="Vector" d="M26.6584 29.4829L45.981 29.4829C46.4092 29.4829 46.7566 29.1357 46.7566 28.707C46.7566 28.2788 46.4092 27.9316 45.981 27.9316L26.6584 27.9316C26.2302 27.9316 25.8828 28.2788 25.8828 28.707C25.8828 29.1357 26.2302 29.4829 26.6584 29.4829Z" fill="#252525" fill-opacity="1.000000" fill-rule="nonzero"/>
			<path id="Vector" d="M45.981 29.4829C46.4092 29.4829 46.7566 29.1357 46.7566 28.707C46.7566 28.2788 46.4092 27.9316 45.981 27.9316L26.6584 27.9316C26.2302 27.9316 25.8828 28.2788 25.8828 28.707C25.8828 29.1357 26.2302 29.4829 26.6584 29.4829L45.981 29.4829Z" stroke="#252525" stroke-opacity="1.000000" stroke-width="0.300000"/>
			<path id="Vector" d="M26.6584 36.0757L45.981 36.0757C46.4092 36.0757 46.7566 35.7285 46.7566 35.2998C46.7566 34.8716 46.4092 34.5244 45.981 34.5244L26.6584 34.5244C26.2302 34.5244 25.8828 34.8716 25.8828 35.2998C25.8828 35.7285 26.2302 36.0757 26.6584 36.0757Z" fill="#252525" fill-opacity="1.000000" fill-rule="nonzero"/>
			<path id="Vector" d="M45.981 36.0757C46.4092 36.0757 46.7566 35.7285 46.7566 35.2998C46.7566 34.8716 46.4092 34.5244 45.981 34.5244L26.6584 34.5244C26.2302 34.5244 25.8828 34.8716 25.8828 35.2998C25.8828 35.7285 26.2302 36.0757 26.6584 36.0757L45.981 36.0757Z" stroke="#252525" stroke-opacity="1.000000" stroke-width="0.300000"/>
			<path id="Vector" d="M26.8186 42.6299L37.4238 42.6299C38.6716 42.6299 38.6716 41.1177 37.4238 41.1177L26.8186 41.1177C25.5708 41.1177 25.571 42.6299 26.8186 42.6299Z" fill="#252525" fill-opacity="1.000000" fill-rule="nonzero"/>
			<path id="Vector" d="M37.4238 42.6299C38.6716 42.6299 38.6716 41.1177 37.4238 41.1177L26.8186 41.1177C25.5708 41.1177 25.571 42.6299 26.8186 42.6299L37.4238 42.6299Z" stroke="#252525" stroke-opacity="1.000000" stroke-width="0.300000"/>
			<path id="Vector" d="M26.6211 49.6099L31.0425 49.6099C32.2012 49.6099 32.2012 48.0977 31.0425 48.0977L26.6211 48.0977C25.4426 48.0977 25.583 49.6099 26.6211 49.6099Z" fill="#252525" fill-opacity="1.000000" fill-rule="nonzero"/>
			<path id="Vector" d="M31.0425 49.6099C32.2012 49.6099 32.2012 48.0977 31.0425 48.0977L26.6211 48.0977C25.4426 48.0977 25.583 49.6099 26.6211 49.6099L31.0425 49.6099Z" stroke="#252525" stroke-opacity="1.000000" stroke-width="0.300000"/>
			<path id="Vector" d="M21 55.4268C21 57.2397 22.4753 58.7153 24.2888 58.7153C35.8403 58.7153 44.8777 58.7153 56.3474 58.7153C57.8101 58.7153 59 57.522 59 56.0552L59 43.8628C59 42.3999 57.8101 41.21 56.3474 41.21C55.1296 41.21 53.3628 41.21 51.4814 41.21L51.4814 24.5732C51.4814 22.7603 50.0059 21.2847 48.1921 21.2847L24.2888 21.2847C22.4753 21.2847 21 22.7603 21 24.5732L21 55.4268ZM53.3867 49.2236C53.6165 49.0825 53.7571 48.8325 53.7571 48.5625L53.7571 42.7612L56.3474 42.7612C56.9546 42.7612 57.4487 43.2554 57.4487 43.8628L57.4487 56.0552C57.4487 56.6665 56.9546 57.1641 56.3474 57.1641C52.0156 57.1641 46.2986 57.1641 43.5422 57.1641C42.9307 57.1641 42.4329 56.6665 42.4329 56.0552L42.4329 43.8628C42.4329 43.2554 42.9307 42.7612 43.5422 42.7612L46.1248 42.7612L46.1248 48.5625C46.1248 48.8325 46.2651 49.0825 46.4951 49.2236C46.6194 49.2998 46.7593 49.3379 46.9004 49.3379C47.0212 49.3379 47.1418 49.3101 47.2529 49.2529L49.9407 47.8818L52.6287 49.2529C52.8694 49.376 53.156 49.3652 53.3867 49.2236ZM52.2058 42.7612L52.2058 47.2959L50.2935 46.3203C50.1824 46.2642 50.0615 46.2354 49.9407 46.2354C49.8198 46.2354 49.6992 46.2642 49.5881 46.3203L47.676 47.2959L47.676 42.7612L52.2058 42.7612ZM22.5513 24.5732C22.5513 23.6152 23.3306 22.8359 24.2888 22.8359L48.1921 22.8359C49.1504 22.8359 49.9302 23.6152 49.9302 24.5732L49.9302 41.21C47.5061 41.21 45.0842 41.21 43.5422 41.21C42.0752 41.21 40.8818 42.3999 40.8818 43.8628L40.8818 56.0552C40.8818 56.4521 40.9751 56.8257 41.1316 57.1641L24.2888 57.1641C23.3306 57.1641 22.5513 56.3848 22.5513 55.4268L22.5513 24.5732Z" fill="#252525" fill-opacity="1.000000" fill-rule="nonzero"/>
			<path id="Vector" d="M24.2888 58.7153C35.8403 58.7153 44.8777 58.7153 56.3474 58.7153C57.8101 58.7153 59 57.522 59 56.0552L59 43.8628C59 42.3999 57.8101 41.21 56.3474 41.21C55.1296 41.21 53.3628 41.21 51.4814 41.21L51.4814 24.5732C51.4814 22.7603 50.0059 21.2847 48.1921 21.2847L24.2888 21.2847C22.4753 21.2847 21 22.7603 21 24.5732L21 55.4268C21 57.2397 22.4753 58.7153 24.2888 58.7153ZM53.7571 48.5625L53.7571 42.7612L56.3474 42.7612C56.9546 42.7612 57.4487 43.2554 57.4487 43.8628L57.4487 56.0552C57.4487 56.6665 56.9546 57.1641 56.3474 57.1641C52.0156 57.1641 46.2986 57.1641 43.5422 57.1641C42.9307 57.1641 42.4329 56.6665 42.4329 56.0552L42.4329 43.8628C42.4329 43.2554 42.9307 42.7612 43.5422 42.7612L46.1248 42.7612L46.1248 48.5625C46.1248 48.8325 46.2651 49.0825 46.4951 49.2236C46.6194 49.2998 46.7593 49.3379 46.9004 49.3379C47.0212 49.3379 47.1418 49.3101 47.2529 49.2529L49.9407 47.8818L52.6287 49.2529C52.8694 49.376 53.156 49.3652 53.3867 49.2236C53.6165 49.0825 53.7571 48.8325 53.7571 48.5625ZM52.2058 47.2959L50.2935 46.3203C50.1824 46.2642 50.0615 46.2354 49.9407 46.2354C49.8198 46.2354 49.6992 46.2642 49.5881 46.3203L47.676 47.2959L47.676 42.7612L52.2058 42.7612L52.2058 47.2959ZM24.2888 22.8359L48.1921 22.8359C49.1504 22.8359 49.9302 23.6152 49.9302 24.5732L49.9302 41.21C47.5061 41.21 45.0842 41.21 43.5422 41.21C42.0752 41.21 40.8818 42.3999 40.8818 43.8628L40.8818 56.0552C40.8818 56.4521 40.9751 56.8257 41.1316 57.1641L24.2888 57.1641C23.3306 57.1641 22.5513 56.3848 22.5513 55.4268L22.5513 24.5732C22.5513 23.6152 23.3306 22.8359 24.2888 22.8359Z" stroke="#252525" stroke-opacity="1.000000" stroke-width="0.300000"/>
		</g>
		<rect id="Iconly / Bold / Shield Done" rx="14.000000" width="28.000000" height="28.000000" transform="translate(40.000000 12.000000)" fill="#F6F6F9" fill-opacity="1.000000"/>
		<path id="Shield Done" d="M54.1025 37.667C53.958 37.668 53.8137 37.6338 53.6843 37.5659L49.4832 35.3926C48.2898 34.7734 47.3572 34.0801 46.6289 33.2725C45.0352 31.5063 44.1497 29.2388 44.1343 26.8867L44.085 19.145C44.0803 18.2515 44.6558 17.4492 45.5178 17.1484L53.2322 14.4575C53.6902 14.2954 54.2012 14.292 54.6675 14.4497L62.4111 17.0479C63.2778 17.3374 63.864 18.1333 63.8687 19.0259L63.918 26.7734C63.9333 29.1221 63.0771 31.3999 61.509 33.1846C60.7878 34.0034 59.8635 34.707 58.6831 35.3364L54.5208 37.5615C54.3904 37.6304 54.2471 37.6655 54.1025 37.667ZM52.3306 28.7212C52.5137 28.9097 52.7512 29.0024 52.9888 29C53.2261 28.999 53.4624 28.9033 53.6431 28.7119L58.4331 23.6489C58.7932 23.2681 58.7893 22.6558 58.4258 22.2803C58.0608 21.9043 57.4734 21.9067 57.1135 22.2881L52.9751 26.6611L51.2805 24.915C50.9158 24.5391 50.3296 24.543 49.9683 24.9238C49.6084 25.3052 49.6121 25.917 49.9771 26.293L52.3306 28.7212Z" clip-rule="evenodd" fill="#048159" fill-opacity="1.000000" fill-rule="evenodd"/>
	</g>
</svg>
