<svg width="80.000000" height="80.000000" viewBox="0 0 80 80" fill="none" xmlns="http://www.w3.org/2000/svg" xmlns:xlink="http://www.w3.org/1999/xlink">
	<desc>
			Created with Pixso.
	</desc>
	<defs>
		<clipPath id="clip711_965">
			<rect id="Iconly / Stroke / Trophy" width="40.000000" height="40.000000" transform="translate(20.000000 20.000000)" fill="white" fill-opacity="0"/>
		</clipPath>
		<clipPath id="clip711_964">
			<rect id="icon" rx="40.000000" width="80.000000" height="80.000000" fill="white" fill-opacity="0"/>
		</clipPath>
	</defs>
	<rect id="icon" rx="40.000000" width="80.000000" height="80.000000" fill="#F6F6F9" fill-opacity="1.000000"/>
	<g clip-path="url(#clip711_964)">
		<rect id="Iconly / Stroke / Trophy" width="40.000000" height="40.000000" transform="translate(20.000000 20.000000)" fill="#FFFFFF" fill-opacity="0"/>
		<g clip-path="url(#clip711_965)">
			<path id="Vector" d="M24.1794 32.9956L29.0122 34.4312C29.6804 37.8857 31.9573 40.9033 35.1963 42.4395C35.5327 42.5986 35.741 42.9238 35.741 43.2886L35.741 47.147L34.0889 47.147C33.6423 47.147 33.25 47.4429 33.1274 47.8721L31.5999 53.2168L29.8042 53.2168C29.252 53.2168 28.8042 53.6646 28.8042 54.2168L28.8042 58.1328C28.8042 58.6851 29.252 59.1328 29.8042 59.1328L50.1958 59.1328C50.748 59.1328 51.1958 58.6851 51.1958 58.1328L51.1958 54.2168C51.1958 53.6646 50.748 53.2168 50.1958 53.2168L48.4001 53.2168L46.8726 47.8721C46.75 47.4429 46.3577 47.147 45.9111 47.147L44.259 47.147L44.259 43.2886C44.259 42.9238 44.4673 42.5986 44.8037 42.4395C48.0427 40.9033 50.3196 37.8857 50.9878 34.4312L55.8206 32.9956C57.6921 32.439 59 30.6865 59 28.7334C59 26.9053 57.9028 25.2852 56.2056 24.606L56.1035 24.5649C54.6516 23.9844 52.979 24.2158 51.7397 25.1704L51.1958 25.5894L51.1958 23C51.1958 22.4478 50.748 22 50.1958 22L29.8042 22C29.252 22 28.8042 22.4478 28.8042 23L28.8042 25.5894L28.2603 25.1704C27.021 24.2158 25.3477 23.9854 23.8955 24.5654L23.7954 24.606C22.0972 25.2852 21 26.9053 21 28.7334C21 30.6865 22.3079 32.439 24.1794 32.9956ZM49.6157 54.7969L49.6157 57.5527L30.3843 57.5527L30.3843 54.7969L31.1482 54.7969L48.8518 54.7969L49.6157 54.7969ZM45.4741 48.7271L46.7563 53.2168L33.2437 53.2168L34.5259 48.7271L35.741 48.7271L44.259 48.7271L45.4741 48.7271ZM52.7041 26.4224C53.5027 25.8076 54.5813 25.6577 55.5166 26.0322L55.6184 26.0728C56.7124 26.5107 57.4199 27.5552 57.4199 28.7334C57.4199 29.9922 56.5767 31.1226 55.3699 31.481L51.1814 32.7256C51.1863 32.5933 51.1958 32.4614 51.1958 32.3286L51.1958 27.584L52.7041 26.4224ZM30.3843 23.5801L49.6157 23.5801L49.6157 32.3286C49.6157 36.022 47.4609 39.4307 44.1262 41.0117C43.2473 41.4287 42.6787 42.3223 42.6787 43.2886L42.6787 47.147L37.3213 47.147L37.3213 43.2886C37.3213 42.3223 36.7527 41.4287 35.8738 41.0117C32.5393 39.4307 30.3843 36.022 30.3843 32.3286L30.3843 23.5801ZM24.3823 26.0728L24.4827 26.0322C25.4194 25.6577 26.498 25.8066 27.2959 26.4224L28.8042 27.584L28.8042 32.3286C28.8042 32.4614 28.8137 32.5933 28.8186 32.7256L24.6301 31.481C23.4233 31.1226 22.5801 29.9922 22.5801 28.7334C22.5801 27.5552 23.2876 26.5107 24.3823 26.0728Z" fill="#252525" fill-opacity="1.000000" fill-rule="nonzero"/>
			<path id="Vector" d="M29.0122 34.4312C29.6804 37.8857 31.9573 40.9033 35.1963 42.4395C35.5327 42.5986 35.741 42.9238 35.741 43.2886L35.741 47.147L34.0889 47.147C33.6423 47.147 33.25 47.4429 33.1274 47.8721L31.5999 53.2168L29.8042 53.2168C29.252 53.2168 28.8042 53.6646 28.8042 54.2168L28.8042 58.1328C28.8042 58.6851 29.252 59.1328 29.8042 59.1328L50.1958 59.1328C50.748 59.1328 51.1958 58.6851 51.1958 58.1328L51.1958 54.2168C51.1958 53.6646 50.748 53.2168 50.1958 53.2168L48.4001 53.2168L46.8726 47.8721C46.75 47.4429 46.3577 47.147 45.9111 47.147L44.259 47.147L44.259 43.2886C44.259 42.9238 44.4673 42.5986 44.8037 42.4395C48.0427 40.9033 50.3196 37.8857 50.9878 34.4312L55.8206 32.9956C57.6921 32.439 59 30.6865 59 28.7334C59 26.9053 57.9028 25.2852 56.2056 24.606L56.1035 24.5649C54.6516 23.9844 52.979 24.2158 51.7397 25.1704L51.1958 25.5894L51.1958 23C51.1958 22.4478 50.748 22 50.1958 22L29.8042 22C29.252 22 28.8042 22.4478 28.8042 23L28.8042 25.5894L28.2603 25.1704C27.021 24.2158 25.3477 23.9854 23.8955 24.5654L23.7954 24.606C22.0972 25.2852 21 26.9053 21 28.7334C21 30.6865 22.3079 32.439 24.1794 32.9956L29.0122 34.4312ZM49.6157 57.5527L30.3843 57.5527L30.3843 54.7969L31.1482 54.7969L48.8518 54.7969L49.6157 54.7969L49.6157 57.5527ZM46.7563 53.2168L33.2437 53.2168L34.5259 48.7271L35.741 48.7271L44.259 48.7271L45.4741 48.7271L46.7563 53.2168ZM55.5166 26.0322L55.6184 26.0728C56.7124 26.5107 57.4199 27.5552 57.4199 28.7334C57.4199 29.9922 56.5767 31.1226 55.3699 31.481L51.1814 32.7256C51.1863 32.5933 51.1958 32.4614 51.1958 32.3286L51.1958 27.584L52.7041 26.4224C53.5027 25.8076 54.5813 25.6577 55.5166 26.0322ZM49.6157 23.5801L49.6157 32.3286C49.6157 36.022 47.4609 39.4307 44.1262 41.0117C43.2473 41.4287 42.6787 42.3223 42.6787 43.2886L42.6787 47.147L37.3213 47.147L37.3213 43.2886C37.3213 42.3223 36.7527 41.4287 35.8738 41.0117C32.5393 39.4307 30.3843 36.022 30.3843 32.3286L30.3843 23.5801L49.6157 23.5801ZM24.4827 26.0322C25.4194 25.6577 26.498 25.8066 27.2959 26.4224L28.8042 27.584L28.8042 32.3286C28.8042 32.4614 28.8137 32.5933 28.8186 32.7256L24.6301 31.481C23.4233 31.1226 22.5801 29.9922 22.5801 28.7334C22.5801 27.5552 23.2876 26.5107 24.3823 26.0728L24.4827 26.0322Z" stroke="#252525" stroke-opacity="1.000000" stroke-width="0.200000"/>
		</g>
		<rect id="Iconly / Bold / Star" rx="14.000000" width="28.000000" height="28.000000" transform="translate(40.000000 12.000000)" fill="#F6F6F9" fill-opacity="1.000000"/>
		<path id="Star" d="M59.6086 28.1982C59.3633 28.436 59.2507 28.7798 59.3066 29.1172L60.1487 33.7783C60.2197 34.1733 60.053 34.5732 59.7224 34.8013C59.3984 35.0386 58.9673 35.0669 58.614 34.8774L54.418 32.689C54.2722 32.6113 54.1101 32.5693 53.9443 32.5645L53.6875 32.5645C53.5984 32.5781 53.5112 32.6064 53.4316 32.6499L49.2349 34.8486C49.0273 34.9531 48.7925 34.9902 48.5623 34.9531C48.0012 34.8472 47.6272 34.3125 47.719 33.749L48.5623 29.0879C48.6182 28.7476 48.5054 28.4019 48.26 28.1602L44.8389 24.8442C44.5527 24.5669 44.4534 24.1499 44.584 23.7739C44.7109 23.3989 45.0349 23.125 45.4263 23.0635L50.1348 22.3804C50.4929 22.3433 50.8074 22.1255 50.9685 21.8032L53.0432 17.5493C53.0925 17.4546 53.156 17.3677 53.2329 17.2935L53.3181 17.2275C53.3625 17.1782 53.4138 17.1372 53.4707 17.104L53.574 17.0664L53.7349 17L54.1338 17C54.49 17.0371 54.8035 17.25 54.9675 17.5684L57.0698 21.8032C57.2214 22.1133 57.5159 22.3281 57.856 22.3804L62.5647 23.0635C62.9624 23.1201 63.2952 23.395 63.4268 23.7739C63.5508 24.1538 63.4438 24.5708 63.1521 24.8442L59.6086 28.1982Z" fill="#048159" fill-opacity="1.000000" fill-rule="nonzero"/>
	</g>
</svg>
